<svg xmlns="http://www.w3.org/2000/svg" viewBox="0 0 56.9 53.64"><defs><style>.cls-1{fill:#ff9500;}.cls-2{fill:#fff;}</style></defs><g id="Layer_2" data-name="Layer 2"><g id="Layer_1-2" data-name="Layer 1"><path d="M47.22,34.12H44.94V0h1.28a1,1,0,0,1,1,1Z"/><path d="M17.22,0H16a1,1,0,0,0-1,1V3.35h2.28Z"/><path class="cls-1" d="M28.92,24.75H1.14A1.14,1.14,0,0,1,0,23.61V6.49A1.14,1.14,0,0,1,1.14,5.35H29A1.14,1.14,0,0,1,30.1,6.49V23.61A1.14,1.14,0,0,1,29,24.75Z"/><path class="cls-2" d="M21.45,19.33a1.07,1.07,0,1,0-1.07,1.07h.07A1.08,1.08,0,0,0,21.45,19.33Z"/><path class="cls-2" d="M24,16.23a4.75,4.75,0,0,0-6.7-.48,5.44,5.44,0,0,0-.48.48,1,1,0,0,0,1.51,1.31,2.84,2.84,0,0,1,4-.15l.15.15a1,1,0,0,0,.75.34A1,1,0,0,0,24,16.23h0Z"/><path class="cls-2" d="M27.21,13.43a9,9,0,0,0-12.69-1,8.88,8.88,0,0,0-1,1,1,1,0,1,0,1.51,1.31,7,7,0,0,1,10.64,0,1,1,0,0,0,1.41.14,1,1,0,0,0,.14-1.4Z"/><path d="M16,53.64h1.28V26.75H15V52.64A1,1,0,0,0,16,53.64Z"/><path d="M45,42.24h2.27v10.4a1,1,0,0,1-1,1h-27V26.75H29a3.16,3.16,0,0,0,3.14-3.14V6.49A3.16,3.16,0,0,0,29,3.35h-9.7V0H42.94V34.12H39.58A9.16,9.16,0,0,0,31.9,29a8.93,8.93,0,0,0-6.67,2.41A9.15,9.15,0,1,0,39.45,42.58l.17-.34H43v7a1,1,0,1,0,2,0Z"/><path class="cls-2" d="M38.66,5.35V22.61H34.31a1,1,0,0,0,0,2h5.35a1,1,0,0,0,1-1V4.35a1,1,0,0,0-1-1H34.31a1,1,0,0,0,0,2Z"/><path d="M29.05,35.93a4.94,4.94,0,0,1,.36-.44c0-.06.09-.12.15-.18h0l.19-.16a3.54,3.54,0,0,1,2.7-1h4.86A7.16,7.16,0,0,0,31.79,31h-.48a7,7,0,0,0-4.7,1.9,7.14,7.14,0,1,0,10.73,9.3H32.45a4.06,4.06,0,0,1-4.06-4.06h0V37.8A4,4,0,0,1,29.05,35.93Z"/><path d="M54.84,36.12H32.05a2.05,2.05,0,0,0-1,.57l-.11.13a2.28,2.28,0,0,0-.34.53,2.13,2.13,0,0,0-.15.79,2.06,2.06,0,0,0,2,2.06H54.84a2.09,2.09,0,0,0,1.45-.6,2,2,0,0,0-1.45-3.48Z"/></g></g></svg>