<?xml version="1.0" encoding="utf-8"?>
<!-- Generator: Adobe Illustrator 25.4.0, SVG Export Plug-In . SVG Version: 6.00 Build 0)  -->
<svg version="1.1" id="Layer_1" xmlns="http://www.w3.org/2000/svg" xmlns:xlink="http://www.w3.org/1999/xlink" x="0px" y="0px"
	 viewBox="0 0 1200 800" style="enable-background:new 0 0 1200 800;" xml:space="preserve">
<style type="text/css">
	.st0{fill:#FFFFFF;}
	.st1{fill:#EAF1FA;}
	.st2{fill:#F8951D;}
	.st3{fill:#B1D8F3;}
	.st4{opacity:0.4;fill:#B1D8F3;enable-background:new    ;}
	.st5{fill:#89AED1;}
	.st6{opacity:0.4;}
	.st7{fill:#0C2842;}
	.st8{fill:#6AC9F2;}
	.st9{fill:#E4F5FD;}
	.st10{fill:#1D4973;}
	.st11{fill:#143054;}
	.st12{fill:#E6E8EF;}
	.st13{font-family:'OpenSansSemiCondensed-Bold';}
	.st14{font-size:36px;}
	.st15{letter-spacing:-1;}
</style>
<g>
	<g>
		<rect class="st0" width="1200" height="800"/>
		<path class="st1" d="M742.8,546.8c-13.2,13.8-33.5,21.9-57.5,24.9c-8.2,1-16.5,1.5-24.7,1.4c-20.4-0.3-40.7-3-60.5-8
			C492.5,538.6,384.9,448.4,471.8,334c67.4-88.8,260-115.1,249.3-6.1c-4.6,46.6-85.4,58.9-76.2,99.7
			c12.2,54.3,111.4,26.5,114.1,70.4C760.3,518.8,754.1,534.9,742.8,546.8z"/>
		<path class="st1" d="M737.5,394.5c16.1,11.2,19.7,31.6,7.9,45.4s-34.3,16-50.5,4.7s-19.7-31.6-7.9-45.4S721.4,383.2,737.5,394.5z"
			/>
		<path class="st0" d="M690.2,562.3c-24.8,0-52.2-4.2-80.1-12.6c-51-15.3-95.8-42.7-122.7-75c-19.2-23.1-29.3-48-30-74.1
			c-0.8-29.2,10.5-59.4,33.3-89.5c22.4-29.5,60.2-54.7,103.8-69.2c42.4-14.1,84-16.4,114-6.1c22.6,7.7,48.6,25.9,44.3,69.2
			c-2.3,24-23.6,39.1-44.1,53.8c-20.9,14.9-40.6,28.9-35.8,50.6c6.6,29.5,37.3,35.5,67,41.4c26.4,5.2,51.3,10.2,52.7,32.5
			c2.1,34.6-15.2,59.3-50,71.3C727.4,559.7,709.7,562.3,690.2,562.3z M491.1,311.3l0.3,0.2c-54.7,72-32,128.2-3.3,162.6
			c26.8,32.2,71.4,59.5,122.3,74.8c49.5,14.9,97.6,16.7,131.9,4.8c34.4-11.9,51.5-36.3,49.4-70.5c-1.3-21.7-25.9-26.6-52-31.7
			c-28.5-5.7-60.8-12.1-67.6-42c-5-22.1,15-36.3,36.1-51.4c20.4-14.5,41.5-29.5,43.8-53.2c4.2-42.8-21.5-60.8-43.8-68.4
			c-29.8-10.1-71.1-7.9-113.4,6.1c-43.4,14.4-81.1,39.5-103.4,68.9L491.1,311.3z"/>
		<path class="st0" d="M563.4,493.6c-18.5,0-30.8-9.6-38.5-19.1c-14.1-17.5-21.1-45.2-19.2-76c1.9-31.6,13.2-61.7,31-82.6
			c18.2-21.3,38.8-35,61.3-40.6c20-5,41.2-3.7,62.9,4.1c30.3,10.9,60.6,34.4,83,64.6c21.8,29.4,33.3,60.7,31.5,85.8
			c-1.9,25.4-17.1,41.9-44,47.8c-17.3,3.8-26.4-11.5-35.9-27.7c-10.7-18.1-21.8-36.9-45.5-35.1c-17.4,1.4-24,17.2-31,34
			c-6.8,16.5-13.9,33.6-31.8,40.2C579.5,491.8,571.5,493.4,563.4,493.6z M537,316.1l0.3,0.2c-39.5,46.3-38.7,124-11.8,157.5
			c10.4,13,29.5,26,61.2,14.3c17.5-6.5,24.5-23.4,31.3-39.8c7-17,13.7-33.1,31.7-34.5c24.3-1.9,36,18,46.3,35.5
			c9.4,15.9,18.2,31,35,27.3c26.5-5.8,41.5-22.1,43.3-47.1c4-53.5-52.5-127.6-113.9-149.6c-32.2-11.5-79.8-14.6-123.2,36.3
			L537,316.1z"/>
		<path class="st1" d="M506.8,450.8c-20.5,0-40-4.2-56.5-12.3c-25.2-12.4-41.7-33-47.5-59.5c-9.2-41.9,6.4-82.2,42.8-110.6
			c19.5-15,42.1-25.3,66.2-30.1c24.8-5,48.6-3.7,68.9,3.6c22.9,8.3,51.6,28.1,58.1,75.4c10.7,77.4-48.7,122.6-108.4,131.8
			C522.6,450.2,514.7,450.8,506.8,450.8z M541.1,236.1c-32.6,0-67.9,11.6-95,32.8c-36.2,28.2-51.7,68.3-42.5,109.9
			c13,59,74.8,77.4,126.7,69.4c59.3-9.1,118.3-54,107.7-130.9c-6.5-46.9-34.9-66.5-57.6-74.7C567.8,238.2,554.5,236,541.1,236.1
			L541.1,236.1z"/>
		<path class="st2" d="M427.4,358.8l55.1-12.9c1.9-0.5,3.7,0.6,4.4,2.4l9.5,30.6c0.5,1.7-0.5,3.4-2.1,3.9c-0.1,0-0.2,0.1-0.3,0.1
			l-26.4,6.1l-5.8,8.4c-0.5,0.7-1.3,0.9-2.1,0.6l-10.1-4.8l-10.8,2.5c-1.9,0.5-3.8-0.6-4.4-2.4l-9.5-30.6c-0.5-1.7,0.5-3.4,2.1-3.9
			C427.3,358.8,427.4,358.8,427.4,358.8z"/>
		<path class="st3" d="M737.2,226.4l-42-9.8c-1.4-0.3-2.9,0.4-3.4,1.8l-7.2,23.3c-0.4,1.3,0.4,2.6,1.6,3c0.1,0,0.1,0,0.2,0l20.1,4.7
			l4.4,6.4c0.4,0.5,1,0.7,1.6,0.4l7.7-3.7l8.2,1.9c1.4,0.4,2.9-0.4,3.4-1.8l7.2-23.3c0.4-1.3-0.4-2.6-1.7-2.9
			C737.4,226.4,737.3,226.4,737.2,226.4z"/>
		<path class="st4" d="M450.2,498.9c13.1,30.5,50.5,45.3,83.4,33.2s48.9-46.8,35.8-77.3S519,409.5,486,421.7
			S437.1,468.4,450.2,498.9z"/>
		<path class="st0" d="M510,530.3c-7.8,0-15.6-1.5-22.9-4.4c-14.2-5.7-25.2-16-30.9-29.2c-0.1-0.2,0-0.4,0.2-0.5c0,0,0,0,0,0
			l52.1-19.3l-53.3-16.3c-0.2,0-0.3-0.3-0.3-0.5c0,0,0,0,0,0c5.3-15,17.5-27,33.4-32.9c14.3-5.3,30-5,44.1,0.6
			c14.2,5.7,25.2,16,30.8,29.2c5.7,13.1,5.4,28-0.7,40.9c-6.3,13.3-17.6,23.6-31.5,28.6C524.5,529,517.3,530.3,510,530.3z
			 M457.2,496.8c5.6,12.8,16.4,22.9,30.2,28.4c13.9,5.6,29.4,5.8,43.5,0.6c13.7-4.9,24.8-15,31-28.2c6-12.7,6.3-27.4,0.7-40.2
			c-5.6-13-16.4-23.2-30.4-28.8c-13.9-5.6-29.4-5.8-43.4-0.6c-15.5,5.7-27.4,17.4-32.8,32l54,16.5c0.2,0.1,0.3,0.2,0.3,0.4
			c0,0.2-0.1,0.3-0.3,0.4L457.2,496.8z"/>
		<path class="st5" d="M501,549.5c-9.5,0-18.8-2.2-27.3-6.4c-11.7-5.7-21-15.4-26.3-27.3c-0.1-0.2,0-0.4,0.2-0.5c0,0,0,0,0,0
			l53.2-19.7c0.1-0.1,0.2-0.1,0.4,0c0.1,0.1,0.2,0.1,0.2,0.3l11.7,51.9c0,0.1,0,0.2-0.1,0.3c-0.1,0.1-0.2,0.1-0.3,0.2
			C508.9,549.1,504.9,549.5,501,549.5z M448.3,516c5.2,11.6,14.3,20.9,25.7,26.5c11.8,5.8,25.1,7.6,38.1,5.2l-11.5-51.1L448.3,516z"
			/>
		<g class="st6">
			<polygon class="st3" points="449.1,302 417.5,317.4 415.2,313.3 446.8,297.9 			"/>
			<polygon class="st3" points="440.8,326 426.3,333 424,328.9 438.5,321.9 			"/>
			<polygon class="st3" points="448.3,322.3 445.3,323.8 443,319.7 446,318.2 			"/>
			<polygon class="st3" points="445.6,313.6 421.9,325.2 419.6,321.1 443.3,309.5 			"/>
			<polygon class="st3" points="464.9,304.3 451.2,311 448.9,306.9 462.5,300.2 			"/>
		</g>
		<path class="st7" d="M719.1,379.2c-10-3.5-19.5-7.4-29-11.9c-9.8-4.4-19.1-9.6-27.9-15.8c-2.4-1.7-4.6-3.6-6.8-5.6
			c-2.6-2.4-4.7-5.3-6.2-8.5c-2.8-6.3-3.1-11.6-3.4-16.7s-0.2-9.8-0.3-14.6s-0.3-9.4,0.2-14.1v-0.1c0.7-3.9,4.5-6.4,8.3-5.7
			c2.5,0.5,4.5,2.2,5.4,4.6c1.5,4.7,1.8,9.6,2.5,14.4s1.2,9.5,1.9,13.9c0.3,2.1,0.7,4.2,1.2,6.2c0.4,1.7,0.9,3.3,1.7,4.8
			c0.7,1.2,1.5,2.2,2.6,3.1c1.5,1.4,3.1,2.6,4.8,3.8c7.3,5,16.1,9.4,24.9,13.6s18.1,8,27.1,11.6l0.2,0.1c4.9,2,7.2,7.3,5.1,11.8
			C729.2,378.9,723.9,381,719.1,379.2z"/>
		<path class="st8" d="M655.2,292.8c7.1-2.6,3.6-9.8,1.8-13.3c-1.9-3.8-7.1-12.1-13-5.5c-2.6,2.9-2.6,9.1-0.8,12.5
			C645.5,290.9,648.5,295.3,655.2,292.8z"/>
		<path class="st3" d="M654,276.7l-115.8,69.5c-5.9,3.5-13.8,2-17.6-3.5l-45.7-65.3c-3.6-5.1-2.3-12.2,2.9-15.7
			c0.3-0.2,0.6-0.4,0.9-0.6l115.8-69.5c5.9-3.5,13.8-2,17.6,3.5l45.8,65.4c3.5,5.1,2.3,12.2-2.9,15.7
			C654.6,276.3,654.3,276.5,654,276.7z"/>
		<path class="st9" d="M560.4,263.9c-11-2.2-22,4.4-24.3,14.6l-8.4,36.5c-0.5,2.1,2,3.6,3.9,2.5l69.1-41.5c1.1-0.6,1.5-2,0.9-3.2
			c-0.4-0.6-1-1.1-1.7-1.2L560.4,263.9z"/>
		<path class="st0" d="M593.1,248.3c-10-2-19.9,4-22.1,13.3l-7.3,31.9c-0.5,2.1,2,3.6,3.9,2.5l60.8-36.5c1.1-0.6,1.5-2.1,0.8-3.2
			c-0.4-0.6-1-1-1.7-1.1L593.1,248.3z"/>
		<path class="st0" d="M567.6,243.9c2,2.9,1.3,6.8-1.6,8.8c-0.2,0.1-0.4,0.2-0.5,0.3c-3.3,2-7.6,1.1-9.9-2c-2-2.9-1.3-6.8,1.6-8.8
			c0.2-0.1,0.4-0.2,0.5-0.3C561,239.9,565.3,240.8,567.6,243.9z"/>
		<path class="st0" d="M742.8,546.8c-13.2,13.8-33.5,21.9-57.5,24.9c-2.3-7.8-4.6-15.6-6.9-23.4c-5.4,7.9-11.5,16.3-17.9,24.8
			c-20.4-0.3-40.7-3-60.5-8c21-46.5,48.1-100.8,48.1-100.8l23.3,7.3l33.1-3.7c0.8-0.1,1.6,0.1,2.2,0.5c5,3.4,27.2,19.7,32.3,47.9
			C740.6,525.2,741.8,535.7,742.8,546.8z"/>
		<path class="st8" d="M716,290.4c-10.5-10.1-27.8-10.5-38.7-0.8l-8,7c0,0-0.3,0.7-0.5,1.1s-0.4,1-0.6,1.5c-0.4,1-0.8,2.1-1.2,3.2
			c-0.7,2.2-1.4,4.5-2,6.8c-0.7,2.4-1.2,4.7-1.7,7.2c-0.5,2.6-0.7,5.3-0.7,8l0.1,3.3c0.1,2.2,0.5,4.3,1.3,6.3
			c2.4,5.7,7.2,9.9,13.1,11.7c0.5,3,1,6,1.7,9c0.4,1.5,0.8,3,1.3,4.5c0.2,0.8,0.4,1.5,0.7,2.3s0.9,1.5,2.7,1.8
			c4.7,0.8,9.5-0.3,13.4-3.2l1.3-1c1.4-1.1,1.6-1.7,1.4-2.4s-0.3-1.2-0.4-1.9c-0.3-1.2-0.5-2.5-0.7-3.8c-0.5-2.6-0.9-5.2-1.2-7.9
			l0-0.4c1.3-0.7,2.6-1.5,3.8-2.3c2.8-1.9,5.4-4.1,7.9-6.4c2.4-2.3,4.7-4.7,6.7-7.2c1-1.3,2-2.6,2.9-4c0.5-0.7,0.9-1.4,1.3-2.1
			c0.5-0.8,1-1.7,1.4-2.6C725.7,308.7,723.6,297.5,716,290.4z"/>
		<path class="st2" d="M697.1,278.8c0,0-25.1-5.3-33.2,14.4c-0.1,0.1-0.1,0.3-0.2,0.4c-10.3,19.2-17.4,25.4-17.5,25.4l0.6,0.6
			c0.3-0.2,5.6-4.8,13.9-18.9c-7.2,16.4-12.7,24.2-12.7,24.2s57.1,27.1,70.2,21.5c5.9-2.5,11.3-9.4,14.6-17.8
			c-3.5,12-10.3,17.5-10.4,17.5l0.5,0.6c0.1-0.1,10.7-8.5,12.4-27.2C738.6,301.1,730.8,280,697.1,278.8z"/>
		<path class="st10" d="M702.8,348.1c-4-2.7-27.2-3.2-28.3,6.8c8.4,1.4,16.8,2.2,25.3,2.2C707.9,357,706.6,350.6,702.8,348.1z"/>
		<path class="st8" d="M560.2,342.7c4.2-5.9-3.8-6.5-7.9-10c-3.7-3.3-17.4-11-14.7,2.5c0.5,2.5,5.3,6.9,8.8,8.8
			C551,346.2,556.2,348.3,560.2,342.7z"/>
		<path class="st11" d="M731.6,365.1c-12.7-14.6-52.3-12.8-68.4-8c-1.4,0.5-2.8,1.1-4.1,1.9c-7.5,2.3-15.3,4.4-22.9,5.9
			c-4.7,1-9.4,1.7-14.2,2.2c-4.2,0.5-8.4,0.4-12.5-0.4c-4.3-1-8.4-2.6-12.3-4.5c-4.3-2.1-8.5-4.3-12.6-6.8
			c-4.2-2.5-8.2-5.3-12.2-8.1s-7.7-6-12-8.8l-0.1-0.1c-2.5-1.6-5.7-1.6-8.1,0.1c-2.9,1.8-3.7,5.6-1.9,8.5c0.1,0.2,0.2,0.4,0.4,0.5
			c3.4,4,7.1,7.7,11.1,11.1c4,3.5,8.1,6.8,12.5,10c4.4,3.3,9.1,6.2,13.9,8.9c5.2,3,10.8,5.3,16.6,6.9c6.2,1.3,12.5,1.7,18.8,1.1
			c5.7-0.4,11.3-1.2,16.9-2.3c1.7-0.4,3.3-0.7,4.9-1.1c-7.7,28.1-5,71.4-2.4,87.2c2.1,12.9,68.8,14.3,68.9-1.3
			C712.3,413.7,741.3,376.2,731.6,365.1z"/>
		<path class="st12" d="M703,510.2c-0.9,5.4-3.9,10.2-8.2,13.4c-5.2,3.8-12.4,5.1-21.3,4l-0.2,1.5c2,0.3,4,0.4,6,0.4
			c3,0,6-0.4,8.8-1.1c-2.6,6.1-5.7,12-9.2,17.6l1.4,0.8c3.8-6.1,7.1-12.5,9.9-19.1c2-0.7,3.9-1.7,5.6-2.9c4.7-3.5,7.9-8.7,8.9-14.5
			L703,510.2z"/>
	</g>
	<text transform="matrix(1 0 0 1 429.9494 631.844)" class="st11 st13 st14">Tap to Add New Card </text>
	<text transform="matrix(1 0 0 1 599.4516 620.7903)" class="st11 st13 st14 st15"> </text>
</g>
</svg>
