<?xml version="1.0" encoding="utf-8"?>
<!-- Generator: Adobe Illustrator 25.4.0, SVG Export Plug-In . SVG Version: 6.00 Build 0)  -->
<svg version="1.1" id="Capa_1" xmlns="http://www.w3.org/2000/svg" xmlns:xlink="http://www.w3.org/1999/xlink" x="0px" y="0px"
	 viewBox="0 0 800 800" style="enable-background:new 0 0 800 800;" xml:space="preserve">
<style type="text/css">
	.st0{fill:#FBA304;}
</style>
<g>
	<g>
		<path class="st0" d="M742.9,276.4c-3.2-24.3-3.7-66.2,18.9-80.3c0.4-0.3,0.7-0.6,1.1-1c18.5-5.9,31.2-14.2,21.2-25.4L511.7,87.8
			L70.6,149.1c0,0-50.5,7.2-46,85.7c2.4,42.7,15.8,63.7,27.6,74l-36.2,10.9c-10,11.2,2.7,19.4,21.2,25.3c0.4,0.3,0.6,0.7,1.1,1
			c22.6,14.1,22.1,56,18.9,80.3c-81.1,23-52,30.5-52,30.5l17.8,4.3C10.4,472.4-2,493.9,0.3,534.5c4.5,78.5,46,83.9,46,83.9
			l288.7,93.8l435.7-105.5c0,0,29.1-7.5-52-30.5c-3.3-24.3-3.7-66.2,18.9-80.3c0.4-0.3,0.7-0.6,1.1-0.9
			c18.5-5.9,31.2-14.2,21.2-25.3l-18.9-5.7c12.6-7.6,31.6-27.5,34.6-79.2c2.1-35.6-7.2-56.4-18-68.7l37.4-9.1
			C794.9,307,824,299.4,742.9,276.4z M378.5,275.4l73.3-15.1l247.6-50.9l36.9-7.6c-11.8,21.6-11.3,51.1-9.3,70.1
			c0.4,4.3,0.9,8.2,1.4,11.2l-40.4,10l-312.5,77.7L378.5,275.4z M63.8,351.8l36.9,7.6l237.8,48.9l20.8,4.3l0,0l0,0l62.3,12.8
			l3.1,95.5l-321.2-79.9L71.7,433c0.5-3,1-6.9,1.4-11.2C75.1,402.9,75.6,373.3,63.8,351.8z M49.4,231c-0.4-20.9,3.3-36,10.8-43.6
			c4.8-4.9,10.4-5.9,14.3-5.9c2,0,3.5,0.3,3.6,0.3l190.1,62l94.8,30.9l-3.1,96.2l-266-74.6l-14-3.9c-0.5-0.1-1.2-0.2-1.8-0.3
			C77,291.9,50.7,289.5,49.4,231z M335.6,670.6L55.6,592.1c-0.5-0.2-1.2-0.3-1.8-0.3c-1.1-0.1-27.4-2.5-28.7-61
			c-0.5-20.9,3.3-36,10.8-43.7c4.8-4.9,10.4-5.9,14.3-5.9c2.1,0,3.5,0.3,3.6,0.3c0,0,0,0,0,0l284.9,92.9L335.6,670.6z M702.6,571.7
			c0.4,4.3,0.9,8.2,1.4,11.2l-352.9,87.8l3.1-95.5l75.4-15.5l11.1,2.7l41.8-13.6l192.5-39.6l36.9-7.6
			C700.2,523.2,700.6,552.7,702.6,571.7z M722,441.9c-0.6,0-1.3,0.1-1.9,0.3l-26.6,7.5l-253.4,71.1l-3.1-96.2l83.1-27.1l201.3-65.7
			c0,0,10.6-2.4,18.3,5.5c7.5,7.7,11.2,22.8,10.8,43.6C749.3,439.4,723,441.8,722,441.9z"/>
	</g>
</g>
</svg>
