<?xml version="1.0" encoding="utf-8"?>
<!-- Generator: Adobe Illustrator 25.4.0, SVG Export Plug-In . SVG Version: 6.00 Build 0)  -->
<svg version="1.1" id="Layer_1" xmlns="http://www.w3.org/2000/svg" xmlns:xlink="http://www.w3.org/1999/xlink" x="0px" y="0px"
	 viewBox="0 0 800 800" style="enable-background:new 0 0 800 800;" xml:space="preserve">
<style type="text/css">
	.st0{fill:#FBA304;}
</style>
<path class="st0" d="M550,150C550,67.2,482.8,0,400,0S250,67.2,250,150s67.2,150,150,150S550,232.8,550,150z M365,376.7
	c-92.7-56.8-242.9-72.3-318.4-76.6C21.2,298.6,0,318,0,342.4v348.1c0,22.4,18.1,41.1,41.4,42.3c68.2,3.6,206.2,16.7,301.6,64.7
	c14.6,7.4,32-2.7,32-18.5V394.6C375,387.3,371.4,380.6,365,376.7L365,376.7z M753.4,300.1c-75.5,4.3-225.7,19.9-318.4,76.6
	c-6.4,3.9-10,10.9-10,18.2v384c0,15.9,17.4,26,32.1,18.6c95.4-48,233.3-61.1,301.5-64.7c23.3-1.2,41.4-19.9,41.4-42.3V342.4
	C800,318,778.8,298.6,753.4,300.1z"/>
</svg>
