<svg xmlns="http://www.w3.org/2000/svg" viewBox="0 0 64 58.32"><defs><style>.cls-1{fill:#ff9500;}</style></defs><g id="Layer_2" data-name="Layer 2"><g id="Layer_1-2" data-name="Layer 1"><rect x="16.76" y="31.71" width="6.38" height="6.46"/><path d="M57.67,22.59,55,11.39C-8,26.6,5.81,23.27,2.45,24.09L6.52,41a2,2,0,0,0,1.33,1.41V26.69a4.1,4.1,0,0,1,4.09-4.1Z"/><path d="M52.57,1.51A2,2,0,0,0,50.66,0a1.89,1.89,0,0,0-.47.06L1.51,11.83A2,2,0,0,0,.06,14.21l.29,1.2L52.86,2.71Z"/><path class="cls-1" d="M62,24.72H11.94a2,2,0,0,0-2,2V56.35a2,2,0,0,0,2,2H62a2,2,0,0,0,2-2V26.69A2,2,0,0,0,62,24.72ZM22,53.61H15.7a1.06,1.06,0,0,1,0-2.12H22a1.06,1.06,0,1,1,0,2.12Zm3.24-14.38a1.06,1.06,0,0,1-1.07,1.06H15.7a1.05,1.05,0,0,1-1.06-1.06V30.64a1.06,1.06,0,0,1,1.06-1.06h8.5a1.07,1.07,0,0,1,1.07,1.06Zm8.56,14.38H27.49a1.06,1.06,0,1,1,0-2.12h6.34a1.06,1.06,0,1,1,0,2.12Zm11.79,0H39.29a1.06,1.06,0,1,1,0-2.12h6.33a1.06,1.06,0,1,1,0,2.12Zm11.79,0H51.08a1.06,1.06,0,1,1,0-2.12h6.33a1.06,1.06,0,1,1,0,2.12Zm.71-17H38.33a1.07,1.07,0,0,1,0-2.13H58.12a1.07,1.07,0,1,1,0,2.13Zm0-4.95H38.33a1.07,1.07,0,0,1,0-2.13H58.12a1.07,1.07,0,1,1,0,2.13Z"/><path d="M54.46,9.32l-1.1-4.54L.85,17.47,1.94,22Z"/></g></g></svg>