<?xml version="1.0" encoding="utf-8"?>
<!-- Generator: Adobe Illustrator 23.0.3, SVG Export Plug-In . SVG Version: 6.00 Build 0)  -->
<svg version="1.1" id="Layer_1" xmlns="http://www.w3.org/2000/svg" xmlns:xlink="http://www.w3.org/1999/xlink" x="0px" y="0px"
	 viewBox="0 0 800 800" style="enable-background:new 0 0 800 800;" xml:space="preserve">
<style type="text/css">
	.st0{fill:#FF9500;}
</style>
<g>
	<g>
		<g>
			<path d="M130,52.1H78.4v103.1h25.8v-25.8H130c21.3,0,38.7-17.3,38.7-38.7C168.6,69.4,151.3,52.1,130,52.1z M130,103.7h-25.8V77.9
				H130c7.1,0,12.9,5.8,12.9,12.9C142.9,97.9,137.1,103.7,130,103.7z"/>
			<path class="st0" d="M593.8,670.6c0-71-57.8-128.8-128.8-128.8s-128.8,57.8-128.8,128.8c0,42.2,20.5,79.6,51.9,103.1H194.4v-51.5
				h-38.7V438.7H130V206.7h60l44.2-103.1L190,0.6H44.2L0,103.7l44.2,103.1h60v231.9H78.4v283.5H39.8v51.5H1.1v25.8h38.7h154.6H800
				v-25.8H542C573.4,750.1,593.8,712.8,593.8,670.6z M61.2,181L28,103.7l33.1-77.3H173l33.1,77.3L173,181H61.2z M104.2,464.4H130
				v257.7h-25.8V464.4z M168.6,773.7H65.6v-25.8h12.9h77.3h12.9V773.7z M465,773.7c-56.8,0-103.1-46.2-103.1-103.1
				S408.2,567.5,465,567.5s103.1,46.2,103.1,103.1S521.8,773.7,465,773.7z"/>
			<path d="M712,103.7c-52.6,0-98.7,35.5-112.1,86.4l-41.7,158.4h-67.4c-86.8,0-167.2,46.3-211.1,121.2l-33.7,11.2v86.6h-51.5v103.1
				h51.5h25.8h38.7v-25.8h-38.7v-77.3v-68l35.3-11.8c46.4-15.5,94.7-23.3,143.5-23.3h9.3c56.7,0,109.5,25.4,144.9,69.7
				c25.1,31.4,39.3,70.6,40.4,110.7h-25.5v25.8h25.8h12.9H800v-25.8H671.1c-1.1-46-17.5-90.9-46.2-126.8
				c-40.3-50.4-100.5-79.3-165-79.3h-9.3c-44.5,0-88.4,6.1-131.1,18.3c41.2-51.7,104.1-82.7,171.3-82.7H578l46.7-177.6
				c10.4-39.6,46.3-67.2,87.2-67.2h88v-25.8L712,103.7L712,103.7z M245.9,644.8h-25.8v-51.5h25.8V644.8z"/>
			<path d="M465,606.2c-35.5,0-64.4,28.9-64.4,64.4c0,35.5,28.9,64.4,64.4,64.4c35.5,0,64.4-28.9,64.4-64.4
				C529.4,635.1,500.5,606.2,465,606.2z M465,709.2c-21.3,0-38.7-17.3-38.7-38.7s17.3-38.7,38.7-38.7c21.3,0,38.7,17.3,38.7,38.7
				C503.6,691.9,486.3,709.2,465,709.2z"/>
			<path d="M653.6,196.8l-37.8,141.7c-3.1,11.7-0.7,23.9,6.7,33.5c7.4,9.6,18.5,15.1,30.6,15.1H800v-25.8H653.1c-4,0-7.8-1.8-10.2-5
				c-2.4-3.2-3.3-7.3-2.2-11.2l37.8-141.7c1.5-5.6,6.6-9.6,12.5-9.6h109v-25.8H691C673.5,168.1,658.1,179.9,653.6,196.8z"/>
		</g>
	</g>
</g>
</svg>
