<?xml version="1.0" encoding="utf-8"?>
<!-- Generator: Adobe Illustrator 23.0.3, SVG Export Plug-In . SVG Version: 6.00 Build 0)  -->
<svg version="1.1" id="Layer_1" xmlns="http://www.w3.org/2000/svg" xmlns:xlink="http://www.w3.org/1999/xlink" x="0px" y="0px"
	 viewBox="0 0 16 25" style="enable-background:new 0 0 16 25;" xml:space="preserve">
<style type="text/css">
	.st0{display:none;}
	.st1{display:inline;fill:#FFFFFF;}
	.st2{fill:#FFFFFF;}
</style>
<g id="centerbutton" transform="translate(-180 -1709)">
	<g id="credit-card" transform="translate(180 1720)" class="st0">
		<path id="Path_87" class="st1" d="M0,4c0-1.1,0.9-2,2-2h12c1.1,0,2,0.9,2,2v8c0,1.1-0.9,2-2,2H2c-1.1,0-2-0.9-2-2V4z M2,3
			C1.4,3,1,3.4,1,4v1h14V4c0-0.6-0.4-1-1-1H2z M15,7H1v5c0,0.6,0.4,1,1,1h12c0.6,0,1-0.4,1-1V7z"/>
		<path id="Path_88" class="st1" d="M2,10c0-0.6,0.4-1,1-1h1c0.6,0,1,0.4,1,1v1c0,0.6-0.4,1-1,1H3c-0.6,0-1-0.4-1-1V10z"/>
	</g>
	<g id="wifi" transform="translate(179.532 1706)">
		<path id="Path_91" class="st2" d="M15.9,13.5c0.2-0.2,0.2-0.5,0-0.7c0,0,0,0-0.1-0.1c-4.4-3.2-10.3-3.2-14.7,0
			c-0.2,0.2-0.3,0.5-0.1,0.7c0,0,0,0,0.1,0.1c0.2,0.2,0.5,0.2,0.7,0.1c4-2.9,9.4-2.9,13.4,0C15.4,13.7,15.7,13.6,15.9,13.5
			L15.9,13.5z"/>
		<path id="Path_92" class="st2" d="M13.7,15.6c0.2-0.2,0.2-0.5,0-0.7c0,0,0,0-0.1-0.1c-3.1-2-7.2-2-10.3,0C3.1,15,3,15.3,3.2,15.5
			c0,0,0,0.1,0.1,0.1c0.2,0.2,0.4,0.2,0.7,0.1c2.8-1.8,6.4-1.8,9.2,0C13.3,15.8,13.5,15.8,13.7,15.6z M11.5,17.8
			c0.2-0.2,0.2-0.5,0-0.7c0,0-0.1-0.1-0.1-0.1c-1.9-0.9-4-0.9-5.9,0c-0.2,0.1-0.3,0.4-0.2,0.6c0,0,0.1,0.1,0.1,0.1l0,0
			C5.6,18,5.8,18,6,17.9c1.5-0.7,3.3-0.7,4.8,0C11.1,18,11.3,18,11.5,17.8L11.5,17.8z M9.5,19.8c0.2-0.1,0.2-0.4,0-0.6
			c0,0-0.1-0.1-0.1-0.1c-0.6-0.4-1.4-0.4-2,0c-0.2,0.1-0.2,0.4-0.1,0.6c0,0,0,0.1,0.1,0.1l0.7,0.7c0.2,0.2,0.5,0.2,0.7,0L9.5,19.8
			L9.5,19.8z"/>
	</g>
</g>
</svg>
