<svg width="24" height="24" viewBox="0 0 24 24" fill="none" xmlns="http://www.w3.org/2000/svg">
<g clip-path="url(#clip0_5298_1913)">
<path d="M15.6464 8.64645L15.6465 8.64644C15.8417 8.45119 16.1583 8.45119 16.3535 8.64644L16.7071 8.2929L16.3535 8.64644C16.5488 8.8417 16.5488 9.15829 16.3535 9.35355C16.3535 9.35356 16.3535 9.35356 16.3535 9.35356L11.3535 14.3535L11.7071 14.7071L11.3535 14.3535C11.1583 14.5488 10.8417 14.5488 10.6464 14.3535L8.14645 11.8535L8.14644 11.8535C7.95119 11.6583 7.95119 11.3417 8.14644 11.1465L8.14644 11.1465C8.3417 10.9512 8.65829 10.9512 8.85355 11.1464C8.85356 11.1464 8.85356 11.1464 8.85356 11.1465L10.6464 12.9393L11 13.2929L11.3535 12.9393L15.6464 8.64645Z" fill="#FCFCFC" stroke="#FCFCFC"/>
<path d="M1 12C1 14.4477 1.13246 16.3463 1.46153 17.827C1.78807 19.2963 2.29478 20.2921 3.00136 20.9986C3.70794 21.7052 4.70365 22.2119 6.17298 22.5385C7.65366 22.8675 9.55232 23 12 23C14.4477 23 16.3463 22.8675 17.827 22.5385C19.2963 22.2119 20.2921 21.7052 20.9986 20.9986C21.7052 20.2921 22.2119 19.2963 22.5385 17.827C22.8675 16.3463 23 14.4477 23 12C23 9.55232 22.8675 7.65366 22.5385 6.17298C22.2119 4.70365 21.7052 3.70794 20.9986 3.00136C20.2921 2.29478 19.2963 1.78807 17.827 1.46153C16.3463 1.13246 14.4477 1 12 1C9.55232 1 7.65366 1.13246 6.17298 1.46153C4.70365 1.78807 3.70794 2.29478 3.00136 3.00136C2.29478 3.70794 1.78807 4.70365 1.46153 6.17298C1.13246 7.65366 1 9.55232 1 12Z" stroke="#FCFCFC" stroke-width="2" stroke-linecap="round" stroke-linejoin="round"/>
</g>
<defs>
<clipPath id="clip0_5298_1913">
<rect width="24" height="24" fill="white"/>
</clipPath>
</defs>
</svg>
