<?xml version="1.0" encoding="utf-8"?>
<!-- Generator: Adobe Illustrator 25.4.0, SVG Export Plug-In . SVG Version: 6.00 Build 0)  -->
<svg version="1.1" id="Layer_1" xmlns="http://www.w3.org/2000/svg" xmlns:xlink="http://www.w3.org/1999/xlink" x="0px" y="0px"
	 viewBox="0 0 25 24" style="enable-background:new 0 0 25 24;" xml:space="preserve">
<style type="text/css">
	.st0{clip-path:url(#SVGID_00000115511320278793396820000007124993734081149850_);}
	.st1{fill:none;stroke:#0A0104;stroke-width:2;stroke-linecap:round;stroke-linejoin:round;}
	.st2{fill:none;stroke:#FF9500;stroke-width:2;stroke-linecap:round;stroke-linejoin:round;}
</style>
<g>
	<defs>
		<rect id="SVGID_1_" x="0.5" width="24" height="24"/>
	</defs>
	<clipPath id="SVGID_00000079480243357309083720000015452129974247366559_">
		<use xlink:href="#SVGID_1_"  style="overflow:visible;"/>
	</clipPath>
	<g style="clip-path:url(#SVGID_00000079480243357309083720000015452129974247366559_);">
		<path class="st1" d="M1.5,12c0,2.4,0.1,4.3,0.5,5.8c0.3,1.5,0.8,2.5,1.5,3.2c0.7,0.7,1.7,1.2,3.2,1.5c1.5,0.3,3.4,0.5,5.8,0.5
			s4.3-0.1,5.8-0.5c1.5-0.3,2.5-0.8,3.2-1.5c0.7-0.7,1.2-1.7,1.5-3.2c0.3-1.5,0.5-3.4,0.5-5.8c0-2.4-0.1-4.3-0.5-5.8
			c-0.3-1.5-0.8-2.5-1.5-3.2c-0.7-0.7-1.7-1.2-3.2-1.5C16.8,1.1,14.9,1,12.5,1S8.2,1.1,6.7,1.5C5.2,1.8,4.2,2.3,3.5,3S2.3,4.7,2,6.2
			C1.6,7.7,1.5,9.6,1.5,12z"/>
		<path class="st2" d="M15.5,9l-3,3 M12.5,12l-3,3 M12.5,12l3,3 M12.5,12l-3-3"/>
	</g>
</g>
</svg>
