<?xml version="1.0" encoding="utf-8"?>
<!-- Generator: Adobe Illustrator 25.4.0, SVG Export Plug-In . SVG Version: 6.00 Build 0)  -->
<svg version="1.1" id="Layer_1" xmlns:svgjs="http://svgjs.com/svgjs"
	 xmlns="http://www.w3.org/2000/svg" xmlns:xlink="http://www.w3.org/1999/xlink" x="0px" y="0px" viewBox="0 0 512 512"
	 style="enable-background:new 0 0 512 512;" xml:space="preserve">
<g>
	<path d="M433.1,425.1h-3.6v-9c11.6-8,18.6-21.2,18.6-35.4v-26.4c0,0,0-0.1,0-0.1v-7.3c0-2.9-0.4-5.6-1-8.1
		c-3.6-14.4-16.7-25-32.2-25h-19.7c-13.6,0-25.6,8.5-30.6,20.5c-4.6-1.5-9.3-2.2-14.1-2.2h-3.6v-9c11.6-8,18.6-21.2,18.6-35.4v-33.8
		c0-0.4,0-0.8,0-1.2c-0.2-4.8-1.2-9.1-3-12.7c-5.3-11.4-16.8-19.3-30.1-19.3h-19.7c-17.7,0-32.2,13.9-33.1,31.3
		c0,0.6-0.1,1.2-0.1,1.9v7.3c0,0,0,0.1,0,0.1v26.4c0,14.2,7,27.4,18.6,35.4v9h-3.6c-4.9,0-9.8,0.8-14.4,2.4
		c-5-12.1-17-20.6-30.7-20.6h-8V201.5h13.3c9,0,16.3-7.3,16.3-16.3v-9c0-9-7.3-16.3-16.3-16.3h-10.7l13.4-44.4
		c0.7-2.5,0.2-5.2-1.5-7.1l-32.7-38c-2.8-3.1-7.5-3.4-10.7-0.7c-3.1,2.7-3.4,7.4-0.8,10.5l30,34.9l-13.5,44.8H227V140
		c0-22.9-18.6-41.4-41.4-41.4h-0.7v-6.9c10-7.3,16.1-19,16.1-31.5v-6.8c0,0,0-0.1,0-0.1V23.9c0-9-5-16.9-12.4-21C185,1,181,0,177,0
		h-30.1C133.7,0,123,10.7,123,23.9v36.2c0,12.8,6.3,24.8,16.8,32v6.4h-3.6c-22.8,0-41.4,18.6-41.4,41.4v19.9H66.7
		c-9,0-16.3,7.3-16.3,16.3v9c0,9,7.3,16.3,16.3,16.3H80v112.2H63.9c-16.6,0-30.4,12.3-32.8,28.2c-0.3,1.6-0.4,3.3-0.4,5v7.3
		c0,0,0,0.1,0,0.1v26.4c0,14.2,7,27.4,18.6,35.4v9h-3.6C20.5,425.1,0,445.6,0,470.9v24.2c0,9.3,7.6,16.9,16.9,16.9H462
		c9.3,0,16.9-7.6,16.9-16.9v-24.2C478.9,445.6,458.4,425.1,433.1,425.1L433.1,425.1z M395.7,411.9c0-2.8-1.5-5.3-4-6.7
		c-6.8-3.7-11.8-10.1-13.8-17.6c7.4,6,16.8,9.6,27.1,9.6c10.2,0,19.7-3.6,27-9.6c-1.9,7.5-6.9,13.9-13.8,17.6
		c-2.4,1.3-4,3.9-3.9,6.7v20.7c0,1.2-1,2.3-2.3,2.3H398c-1.2,0-2.3-1-2.3-2.3V411.9z M377.1,346.8c0-0.6,0-1.1,0.1-1.7
		c0.8-9.2,8.7-16.4,18-16.4h19.7c10,0,18.1,8.1,18.1,18.1v7.4c-0.1,15.3-12.6,27.8-27.9,27.8c-15.4,0-27.9-12.5-27.9-27.9
		L377.1,346.8z M313.1,318.7C313.1,318.7,313.1,318.6,313.1,318.7c0-0.6,0-1-0.1-1.3c-0.4-2.3-1.8-4.3-3.8-5.4
		c-6.8-3.7-11.8-10.1-13.8-17.6c7.4,6,16.8,9.6,27,9.6c10.2,0,19.7-3.6,27.1-9.6c-1.9,7.5-6.9,13.9-13.8,17.6c-2.4,1.3-4,3.9-4,6.7
		v20.7c0,1.3-1,2.3-2.3,2.3h-14.2c-1.3,0-2.3-1-2.3-2.3V318.7z M294.5,253.6c0-10,8.1-18.1,18.1-18.1h19.7c9.9,0,18,8.1,18.1,18
		c0,0,0,0.1,0,0.1v7.3c0,15.4-12.5,27.9-27.9,27.9c-15.4,0-27.9-12.5-27.9-27.8L294.5,253.6z M252.7,405.2c-2.4,1.3-4,3.9-3.9,6.7
		v20.7c0,1.3-1,2.3-2.3,2.3h-14.2c-1.2,0-2.3-1-2.3-2.3v-20.7c0-2.8-1.5-5.4-3.9-6.7c-6.8-3.7-11.8-10.1-13.8-17.6
		c7.4,6,16.8,9.6,27.1,9.6s19.7-3.6,27.1-9.6C264.6,395.1,259.6,401.5,252.7,405.2z M211.4,425.1c-25.2,0-45.8,20.5-45.8,45.8v24.2
		c0,0.6,0,1.2,0.1,1.8h-18.2c0.1-0.6,0.1-1.2,0.1-1.8v-24.2c0-12.9-5.5-25.3-15.1-34c-8.4-7.6-19.3-11.8-30.7-11.8h-3.6v-9
		c11.6-8,18.6-21.2,18.6-35.4v-30.4c4.3-2.1,8.9-3.2,13.7-3.2h5.3c2.8,5.8,8.8,9.8,15.6,9.8h14.2c6.9,0,12.8-4,15.6-9.8h5.3
		c3.4,0,6.6,0.5,9.8,1.6v32.1c0,14.2,7,27.4,18.6,35.4v9H211.4z M64.5,411.9c0-2.8-1.5-5.4-4-6.7c-6.8-3.7-11.8-10.1-13.8-17.6
		c7.4,6,16.8,9.6,27.1,9.6c10.2,0,19.7-3.6,27.1-9.6c-1.9,7.5-6.9,13.9-13.8,17.6c-2.4,1.3-4,3.9-4,6.7v20.7c0,1.2-0.9,2.2-2.2,2.3
		H66.7c-1.3,0-2.3-1-2.3-2.3V411.9z M45.9,346.8c0-10,8.1-18.1,18.1-18.1h19.7c0.9,0,1.9,0.1,2.8,0.2c8.5,1.3,15,8.5,15.3,17.2
		c0,0.2,0,0.5,0,0.7v7.3c0,15.4-12.5,27.9-27.9,27.9c-15.4,0-27.9-12.5-27.9-27.8L45.9,346.8z M130.7,253.6c0-0.6,0-1.2,0.1-1.7
		l0-0.1c0.9-9.1,8.6-16.2,18-16.2h19.7c10,0,18.1,8.1,18.1,18.1v7.3c0,15.4-12.5,27.9-27.9,27.9s-27.9-12.5-27.9-27.9L130.7,253.6
		L130.7,253.6z M158.6,304c10.2,0,19.7-3.6,27.1-9.6c-1.9,7.5-6.9,13.9-13.8,17.6c-2.4,1.3-4,3.9-3.9,6.7v20.7c0,1.2-1,2.3-2.3,2.3
		h-14.2c-1.2,0-2.3-1-2.3-2.3v-20.7c0-2.8-1.5-5.3-3.9-6.7c-6.8-3.7-11.8-10.1-13.8-17.6C138.9,300.4,148.4,304,158.6,304L158.6,304
		z M239.4,382.1c-15.4,0-27.9-12.5-27.9-27.9v-7.3c0-0.3,0-0.7,0-1.1c0,0,0-0.1,0-0.2c0-0.3,0.1-0.7,0.1-1c0,0,0,0,0,0
		c1.1-9,8.8-15.8,17.9-15.8h19.7c9.4,0,17.3,7.3,18,16.6c0,0.2,0,0.5,0,0.7c0,0.2,0,0.5,0,0.7v7.3
		C267.4,369.5,254.9,382.1,239.4,382.1L239.4,382.1z M154.9,106c0-0.1,0-0.2,0-0.3v-7.3c4.9,0.9,9.9,0.8,14.8-0.1v7.4l0,0.3
		c-0.1,4-3.4,7.3-7.4,7.3C158.3,113.3,155,110,154.9,106L154.9,106z M178.5,29.4c-0.5-3.7-3.7-6.6-7.5-6.6c-3.8,0-6.9,2.8-7.5,6.5
		h-16.6c-3.1,0-6.1,0.6-8.8,1.7v-7.1c0-4.8,3.9-8.8,8.8-8.8H177c1.5,0,2.9,0.4,4.2,1.1c2.8,1.5,4.6,4.5,4.6,7.7V31
		C183.5,30.1,181,29.5,178.5,29.4L178.5,29.4z M138.1,53.3C138.1,53.3,138.1,53.3,138.1,53.3c0-4.9,3.9-8.9,8.8-8.9H177
		c4.8,0,8.7,3.9,8.8,8.7v7c0,8.6-4.7,16.6-12.2,20.8c0,0,0,0,0,0c0,0,0,0,0,0c-3.6,2-7.5,3-11.6,3c-3.9,0-7.6-0.9-11.1-2.7h0
		c-7.9-4.1-12.8-12.2-12.8-21.1L138.1,53.3z M109.9,140c0-14.5,11.8-26.3,26.3-26.3h5c3.2,8.6,11.5,14.7,21.1,14.7
		s17.9-6.2,21.1-14.7h2.2c14.5,0,26.3,11.8,26.3,26.3v19.9h-16.1v-8.4c0-4.2-3.4-7.6-7.6-7.6c0,0,0,0,0,0c-4.2,0-7.6,3.4-7.6,7.6
		v8.4h-39.2v-8.4c0-4.2-3.4-7.6-7.6-7.6s-7.6,3.4-7.6,7.6v8.4h-16.5V140z M105.1,201.5c4.2,0,7.6-3.4,7.6-7.6c0-4.2-3.4-7.6-7.6-7.6
		c0,0,0,0,0,0H66.7c-0.6,0-1.2-0.5-1.2-1.2v-9c0-0.6,0.5-1.2,1.2-1.2h35.5c0,0,0.1,0,0.1,0s0.1,0,0.1,0h31.5c0,0,0.1,0,0.1,0
		c0,0,0.1,0,0.1,0h54.1c0,0,0.1,0,0.1,0c0,0,0.1,0,0.1,0h31.1c0,0,0.1,0,0.1,0c0,0,0.1,0,0.1,0h14.2c0,0,0,0,0,0c0,0,0,0,0,0h20.8
		c0.6,0,1.2,0.5,1.2,1.2v9c0,0.6-0.5,1.2-1.2,1.2h-19.2c-0.6-0.1-1.1-0.2-1.7-0.2c-0.6,0-1.2,0.1-1.7,0.2h-90.5
		c-4.2,0.1-7.5,3.5-7.4,7.7c0.1,4.1,3.4,7.3,7.4,7.4h84.7v112.4c-12.1,1.2-22.4,9-27.1,19.8c-4.1-1.2-8.3-1.7-12.5-1.8h-3.6v-9
		c11.6-8,18.6-21.2,18.6-35.4v-33.8c0-9.5-3.3-17.3-9.1-22.7c-6.1-6.4-14.6-10.4-24.1-10.4h-19.7c-18.3,0-33.2,14.9-33.2,33.2v33.8
		c0,14.2,7,27.4,18.6,35.4v9h-3.6c-5.5,0-10.9,1-16,2.9c-3.5-8.8-10.5-15.8-19.5-19.1V201.5L105.1,201.5z M112.3,496.9V484
		c0-4.2-3.4-7.6-7.6-7.6s-7.6,3.4-7.6,7.6v12.9H50.9V484c0-4.2-3.4-7.6-7.6-7.6c0,0,0,0,0,0c-4.2,0-7.6,3.4-7.6,7.6c0,0,0,0,0,0
		v12.9H16.9c-1,0-1.8-0.8-1.8-1.8v-24.2c0-16.9,13.8-30.7,30.7-30.7h5.3c2.8,5.8,8.8,9.8,15.6,9.8h14.4c0.1,0,0.1,0,0.2,0
		c6.8-0.2,12.5-4.1,15.2-9.8h5.3c7.6,0,14.9,2.8,20.5,7.9c6.4,5.8,10.1,14.1,10.1,22.8v24.2c0,1-0.8,1.8-1.8,1.8L112.3,496.9z
		 M277.9,496.9V484c0-4.2-3.4-7.6-7.6-7.6c0,0,0,0,0,0c-4.2,0-7.6,3.4-7.6,7.6v12.9h-46.3V484c0-4.2-3.4-7.6-7.6-7.6c0,0,0,0,0,0
		c-4.2,0-7.6,3.4-7.6,7.6c0,0,0,0,0,0v12.9h-18.9c-1,0-1.8-0.8-1.8-1.8v-24.2c0-16.9,13.8-30.7,30.7-30.7h5.3
		c2.8,5.8,8.8,9.8,15.6,9.8h14.2c6.9,0,12.8-4,15.6-9.8h5.3c16.9,0,30.7,13.8,30.7,30.7c0.1,4.2,3.5,7.5,7.7,7.4
		c4.1-0.1,7.3-3.4,7.4-7.4c0-25.2-20.5-45.8-45.8-45.8h-3.6v-9c11.6-8,18.6-21.2,18.6-35.4v-31.2c3.8-1.6,7.8-2.4,11.9-2.4h5.3
		c2.8,5.8,8.8,9.8,15.6,9.8h14.2c6.9,0,12.8-4,15.6-9.8h5.3c4,0,7.9,0.8,11.5,2.2v31.4c0,14.2,7,27.4,18.6,35.4v9h-3.6
		c-25.2,0-45.8,20.5-45.8,45.8v24.2c0,0.6,0,1.2,0.1,1.8L277.9,496.9L277.9,496.9z M463.8,495.1c0,1-0.8,1.8-1.8,1.8h-18.4V484
		c0-4.2-3.4-7.6-7.6-7.6c-4.2,0-7.6,3.4-7.6,7.6c0,0,0,0,0,0v12.9h-46.3V484c0-4.2-3.4-7.6-7.6-7.6s-7.6,3.4-7.6,7.6v12.9h-18.9
		c-1,0-1.8-0.8-1.8-1.8v-24.2c0-16.9,13.8-30.7,30.7-30.7h5.3c2.8,5.8,8.8,9.8,15.6,9.8h14.2c6.9,0,12.8-4,15.6-9.8h5.3
		c16.9,0,30.7,13.8,30.7,30.7L463.8,495.1L463.8,495.1z M460.5,12.7H304.8c-10.2,0-18.4,8.3-18.4,18.4v66.2
		c0,10.2,8.3,18.4,18.4,18.4h6.8V128c0,4,2.4,7.6,6.1,9.1c3.7,1.5,7.9,0.7,10.7-2.1l19.2-19.2h22.1c4.2,0,7.6-3.4,7.6-7.6
		c0-4.2-3.4-7.6-7.6-7.6h-22.3c-3.9,0-7.6,1.5-10.3,4.3l-10.4,10.4v-0.1c0-8-6.5-14.6-14.6-14.6h-7.3c-1.8,0-3.3-1.5-3.3-3.3V31.1
		c0-1.8,1.5-3.3,3.3-3.3h155.6c1.8,0,3.3,1.5,3.3,3.3v66.2c0,1.8-1.5,3.3-3.3,3.3h-55.4c-4.2,0-7.6,3.4-7.6,7.6s3.4,7.6,7.6,7.6
		h55.4c10.2,0,18.4-8.3,18.4-18.4V31.1C478.9,21,470.6,12.7,460.5,12.7L460.5,12.7z"/>
	<path d="M326.4,57.1h112.4c4.2,0,7.6-3.4,7.6-7.6c0,0,0,0,0,0c0-4.2-3.4-7.6-7.6-7.6H326.4c-4.2,0-7.6,3.4-7.6,7.6
		C318.9,53.7,322.3,57.1,326.4,57.1C326.4,57.1,326.4,57.1,326.4,57.1z M326.4,85.1h53.8c4.2,0,7.6-3.4,7.6-7.6s-3.4-7.6-7.6-7.6
		h-53.8c-4.2,0-7.6,3.4-7.6,7.6S322.3,85.1,326.4,85.1z"/>
</g>
</svg>
