<svg id="Layer_1" data-name="Layer 1" xmlns="http://www.w3.org/2000/svg" viewBox="0 0 1200 800"><defs><style>.cls-1{fill:#fff;}.cls-2{fill:#eaf1fa;}.cls-3{fill:#f8951d;}.cls-4,.cls-5{fill:#b1d8f3;}.cls-5,.cls-7{opacity:0.4;}.cls-6{fill:#89aed1;}.cls-8{fill:#0c2842;}.cls-9{fill:#6ac9f2;}.cls-10{fill:#e4f5fd;}.cls-11{fill:#1d4973;}.cls-12,.cls-14{fill:#143054;}.cls-13{fill:#e6e8ef;}.cls-14{font-size:36px;font-family:OpenSans-Bold, OpenSans Bold;font-weight:700;}.cls-15{letter-spacing:-0.06em;}.cls-16{letter-spacing:0em;}.cls-17{letter-spacing:-0.01em;}.cls-18{letter-spacing:-0.05em;}.cls-19{letter-spacing:-0.08em;}.cls-20{letter-spacing:0em;}.cls-21{letter-spacing:-0.01em;}.cls-22{letter-spacing:0em;}.cls-23{font-size:14px;fill:#95a6b7;font-family:OpenSans;}.cls-24{letter-spacing:0em;}.cls-25{letter-spacing:-0.01em;}.cls-26{letter-spacing:0em;}.cls-27{letter-spacing:-0.01em;}.cls-28{letter-spacing:0em;}.cls-29{letter-spacing:-0.01em;}</style></defs><rect class="cls-1" width="1200" height="800"/><path class="cls-2" d="M747,546.79c-13.23,13.77-33.53,21.86-57.49,24.9a186.58,186.58,0,0,1-24.73,1.41,262.06,262.06,0,0,1-60.53-8C496.8,538.58,389.13,448.44,476,334c67.37-88.75,260-115.09,249.34-6.11-4.57,46.56-85.4,58.85-76.2,99.67,12.22,54.26,111.42,26.52,114.09,70.44C764.51,518.8,758.38,534.91,747,546.79Z" transform="translate(-4.25)"/><path class="cls-2" d="M741.77,394.48c16.13,11.23,19.67,31.57,7.91,45.41s-34.35,16-50.47,4.73-19.66-31.57-7.91-45.41S725.65,383.24,741.77,394.48Z" transform="translate(-4.25)"/><path class="cls-1" d="M694.49,562.3c-24.8,0-52.24-4.24-80.14-12.63-51-15.35-95.75-42.7-122.69-75-19.22-23.08-29.32-48-30-74.11-.76-29.25,10.45-59.35,33.31-89.45,22.39-29.49,60.24-54.72,103.85-69.22,42.44-14.11,84-16.35,114-6.15,22.56,7.68,48.56,25.92,44.31,69.21-2.35,24-23.59,39.15-44.12,53.77-20.9,14.89-40.63,28.94-35.76,50.58,6.64,29.45,37.3,35.54,66.95,41.42,26.37,5.24,51.29,10.18,52.65,32.47,2.12,34.63-15.17,59.3-50,71.33C731.69,559.7,713.9,562.3,694.49,562.3Zm-199.17-251,.34.23c-54.7,72-32,128.2-3.33,162.63,26.84,32.22,71.41,59.47,122.28,74.78,49.55,14.9,97.63,16.66,131.92,4.81,34.44-11.9,51.54-36.29,49.44-70.55-1.32-21.69-25.93-26.57-52-31.74-28.52-5.66-60.85-12.08-67.59-42-5-22.12,15-36.32,36.07-51.36,20.38-14.52,41.47-29.54,43.79-53.22,4.2-42.8-21.48-60.82-43.76-68.4-29.81-10.14-71.14-7.9-113.39,6.15C555.66,257,518,282.16,495.66,311.52Z" transform="translate(-4.25)"/><path class="cls-1" d="M567.62,493.56c-18.48,0-30.8-9.58-38.5-19.15-14.08-17.51-21.1-45.2-19.24-76,1.9-31.6,13.21-61.69,31-82.55,18.17-21.3,38.79-35,61.27-40.6,20.05-5,41.2-3.66,62.86,4.09,30.33,10.86,60.58,34.41,83,64.61,21.85,29.43,33.32,60.69,31.47,85.76-1.87,25.37-17.08,41.9-44,47.79-17.31,3.8-26.37-11.5-35.92-27.71-10.69-18.14-21.8-36.9-45.52-35.08-17.44,1.35-24,17.19-31,33.95-6.85,16.53-13.94,33.62-31.8,40.22A68.38,68.38,0,0,1,567.62,493.56Zm-26.4-177.42.33.25c-39.49,46.27-38.72,124-11.75,157.55,10.43,13,29.51,26,61.2,14.26,17.52-6.47,24.53-23.4,31.32-39.77,7-17,13.71-33.06,31.68-34.45,24.27-1.88,36,18,46.33,35.49,9.39,15.93,18.25,31,35,27.32,26.5-5.81,41.49-22.09,43.34-47.08,4-53.49-52.49-127.59-113.93-149.58-32.23-11.54-79.76-14.62-123.17,36.26Z" transform="translate(-4.25)"/><path class="cls-2" d="M511,450.77c-20.49,0-40-4.19-56.5-12.32-25.24-12.41-41.67-33-47.51-59.53-9.21-41.86,6.38-82.18,42.8-110.6a161,161,0,0,1,66.23-30.11c24.75-5,48.57-3.71,68.89,3.63,22.92,8.28,51.6,28.07,58.13,75.36,10.69,77.44-48.7,122.58-108.4,131.75A155.94,155.94,0,0,1,511,450.77Zm34.35-214.65c-32.63,0-67.92,11.64-95,32.8-36.17,28.23-51.66,68.27-42.51,109.85,13,59.05,74.77,77.36,126.68,69.4,59.32-9.11,118.32-53.95,107.7-130.88-6.48-46.9-34.9-66.52-57.6-74.72A115.94,115.94,0,0,0,545.39,236.12Z" transform="translate(-4.25)"/><path class="cls-3" d="M431.69,358.79l55.13-12.86a3.73,3.73,0,0,1,4.4,2.35l9.51,30.57a3.13,3.13,0,0,1-2.45,3.94l-26.36,6.15-5.77,8.44a1.72,1.72,0,0,1-2.07.57L454,393.13l-10.8,2.52a3.74,3.74,0,0,1-4.41-2.35l-9.51-30.56A3.14,3.14,0,0,1,431.69,358.79Z" transform="translate(-4.25)"/><path class="cls-4" d="M741.5,226.38l-42-9.8a2.85,2.85,0,0,0-3.36,1.79l-7.25,23.3a2.39,2.39,0,0,0,1.86,3l20.1,4.69,4.4,6.43a1.31,1.31,0,0,0,1.58.43l7.71-3.67,8.23,1.92a2.84,2.84,0,0,0,3.36-1.79l7.25-23.3A2.39,2.39,0,0,0,741.5,226.38Z" transform="translate(-4.25)"/><path class="cls-5" d="M454.49,498.94c13.15,30.5,50.49,45.35,83.41,33.17s48.94-46.78,35.79-77.28-50.48-45.35-83.4-33.17S441.35,468.44,454.49,498.94Z" transform="translate(-4.25)"/><path class="cls-1" d="M514.3,530.3a61.91,61.91,0,0,1-22.91-4.41c-14.22-5.65-25.18-16-30.86-29.19a.39.39,0,0,1,.24-.51l52.09-19.27-53.27-16.26a.38.38,0,0,1-.27-.49c5.34-15,17.51-27,33.39-32.91a61.46,61.46,0,0,1,44.09.61c14.22,5.66,25.18,16,30.85,29.19a49.47,49.47,0,0,1-.66,40.86,55.47,55.47,0,0,1-31.51,28.59A61,61,0,0,1,514.3,530.3Zm-52.82-33.53c5.63,12.81,16.36,22.88,30.24,28.4a60.52,60.52,0,0,0,43.45.61,54.6,54.6,0,0,0,31-28.17,48.71,48.71,0,0,0,.66-40.25c-5.59-13-16.39-23.19-30.41-28.77A60.49,60.49,0,0,0,493,428c-15.51,5.73-27.43,17.4-32.77,32.05l54,16.47a.42.42,0,0,1,.29.36.41.41,0,0,1-.27.38Z" transform="translate(-4.25)"/><path class="cls-6" d="M505.23,549.51a61.35,61.35,0,0,1-27.3-6.36,55.1,55.1,0,0,1-26.28-27.26.38.38,0,0,1,.23-.51l53.17-19.67a.42.42,0,0,1,.36,0,.39.39,0,0,1,.21.26l11.68,51.93a.4.4,0,0,1-.06.3.48.48,0,0,1-.27.17A61.92,61.92,0,0,1,505.23,549.51ZM452.59,516a54.32,54.32,0,0,0,25.74,26.5,60.93,60.93,0,0,0,38.05,5.24l-11.49-51.09Z" transform="translate(-4.25)"/><g class="cls-7"><polygon class="cls-4" points="449.14 302 417.48 317.36 415.16 313.26 446.82 297.89 449.14 302"/><polygon class="cls-4" points="440.77 325.97 426.31 332.98 424 328.88 438.45 321.87 440.77 325.97"/><polygon class="cls-4" points="448.32 322.3 445.29 323.77 442.98 319.67 446 318.2 448.32 322.3"/><polygon class="cls-4" points="445.65 313.64 421.9 325.17 419.58 321.07 443.34 309.54 445.65 313.64"/><polygon class="cls-4" points="464.87 304.31 451.2 310.95 448.88 306.85 462.55 300.21 464.87 304.31"/></g><path class="cls-8" d="M723.38,379.22c-10-3.54-19.5-7.43-29-11.86a170.72,170.72,0,0,1-27.86-15.75,62.34,62.34,0,0,1-6.76-5.58,27,27,0,0,1-6.17-8.52c-2.78-6.29-3.06-11.65-3.44-16.7s-.21-9.82-.26-14.56-.32-9.38.22-14.11v-.06A7.12,7.12,0,0,1,663.8,291c1.48,4.74,1.84,9.59,2.5,14.35s1.17,9.47,1.87,13.9a57.25,57.25,0,0,0,1.22,6.25,20.68,20.68,0,0,0,1.72,4.84,11,11,0,0,0,2.59,3.11,44.78,44.78,0,0,0,4.82,3.8c7.27,5,16.09,9.4,24.87,13.6s18.1,8.05,27.12,11.65l.17.06c4.93,2,7.21,7.27,5.09,11.84A10,10,0,0,1,723.38,379.22Z" transform="translate(-4.25)"/><path class="cls-9" d="M659.5,292.83c7.11-2.65,3.56-9.76,1.76-13.27-1.94-3.8-7.08-12.06-13-5.54-2.6,2.85-2.56,9.15-.79,12.52C649.72,290.86,652.79,295.33,659.5,292.83Z" transform="translate(-4.25)"/><path class="cls-4" d="M658.22,276.7,542.46,346.23c-5.86,3.52-13.77,2-17.57-3.48l-45.72-65.34a11.3,11.3,0,0,1,3.75-16.28L598.68,191.6c5.86-3.53,13.77-2,17.57,3.47L662,260.42A11.3,11.3,0,0,1,658.22,276.7Z" transform="translate(-4.25)"/><path class="cls-10" d="M564.68,263.87c-11-2.18-21.95,4.39-24.3,14.6L532,315c-.48,2.07,2,3.65,3.9,2.49L605,276a2.32,2.32,0,0,0-.86-4.32Z" transform="translate(-4.25)"/><path class="cls-1" d="M597.33,248.27c-10-2-19.94,4-22.08,13.26l-7.35,31.89c-.47,2.08,2,3.65,3.91,2.5l60.8-36.52a2.33,2.33,0,0,0-.86-4.32Z" transform="translate(-4.25)"/><path class="cls-1" d="M571.81,243.92a6.34,6.34,0,0,1-2.11,9.16,7.49,7.49,0,0,1-9.88-2,6.33,6.33,0,0,1,2.1-9.16A7.5,7.5,0,0,1,571.81,243.92Z" transform="translate(-4.25)"/><path class="cls-1" d="M747,546.79c-13.23,13.77-33.53,21.86-57.49,24.9-2.33-7.75-4.63-15.62-6.87-23.36-5.38,7.9-11.5,16.33-17.86,24.77a262.06,262.06,0,0,1-60.53-8c21-46.55,48.08-100.76,48.08-100.76l23.31,7.34,33.13-3.74a3.56,3.56,0,0,1,2.23.54c5,3.38,27.17,19.69,32.28,47.93C744.85,525.22,746.07,535.66,747,546.79Z" transform="translate(-4.25)"/><path class="cls-9" d="M720.3,290.41c-10.45-10.13-27.79-10.49-38.73-.8l-8,7.05s-.32.66-.51,1.09-.4,1-.6,1.5c-.41,1-.79,2.11-1.16,3.21-.71,2.2-1.41,4.46-2,6.79a71.29,71.29,0,0,0-1.66,7.16,44.76,44.76,0,0,0-.68,8l.09,3.32a18.22,18.22,0,0,0,1.34,6.31,20.49,20.49,0,0,0,13.08,11.68q.68,4.46,1.74,9c.4,1.51.78,3,1.26,4.54.24.77.44,1.52.73,2.29s.9,1.46,2.7,1.78a17.3,17.3,0,0,0,13.36-3.2l1.26-1c1.38-1.06,1.57-1.74,1.44-2.35s-.28-1.23-.42-1.85c-.28-1.23-.49-2.54-.73-3.82-.46-2.6-.86-5.25-1.25-7.92l-.05-.36q2-1.1,3.81-2.31a58.19,58.19,0,0,0,7.88-6.43,69.46,69.46,0,0,0,6.72-7.25c1-1.27,2-2.59,2.91-4,.46-.7.92-1.38,1.34-2.14a25.8,25.8,0,0,0,1.36-2.57A24,24,0,0,0,720.3,290.41Z" transform="translate(-4.25)"/><path class="cls-3" d="M701.37,278.82s-25.12-5.31-33.15,14.4c-.06.14-.12.27-.17.41C657.76,312.86,650.66,319,650.58,319l.57.59c.26-.22,5.63-4.82,13.88-18.88-7.23,16.35-12.7,24.24-12.7,24.24s57.09,27.08,70.15,21.45c5.86-2.53,11.3-9.4,14.6-17.83-3.46,12-10.31,17.45-10.41,17.52l.54.61c.12-.1,10.66-8.51,12.42-27.17C742.89,301.08,735,280,701.37,278.82Z" transform="translate(-4.25)"/><path class="cls-11" d="M707,348.08c-4-2.68-27.19-3.19-28.29,6.75A149.26,149.26,0,0,0,704,357C712.17,357,710.88,350.64,707,348.08Z" transform="translate(-4.25)"/><path class="cls-9" d="M564.47,342.67c4.22-5.92-3.84-6.48-7.86-10-3.71-3.3-17.4-11-14.73,2.46.51,2.55,5.3,6.94,8.82,8.78C555.22,346.22,560.49,348.27,564.47,342.67Z" transform="translate(-4.25)"/><path class="cls-12" d="M735.87,365.1c-12.67-14.58-52.33-12.77-68.41-8a17,17,0,0,0-4.07,1.91c-7.51,2.29-15.31,4.39-22.91,5.94a136.35,136.35,0,0,1-14.22,2.19,43.88,43.88,0,0,1-12.48-.35,58,58,0,0,1-12.32-4.54,136.29,136.29,0,0,1-12.63-6.84c-4.15-2.52-8.2-5.26-12.17-8.14s-7.73-6-11.95-8.81l-.13-.09a7.41,7.41,0,0,0-8.13.09,6.13,6.13,0,0,0-1.47,9,89.43,89.43,0,0,0,11.07,11.12c4,3.48,8.12,6.84,12.47,10a124.06,124.06,0,0,0,13.89,8.87A73.75,73.75,0,0,0,609,384.32a63.56,63.56,0,0,0,18.84,1.14,126.15,126.15,0,0,0,16.88-2.34c1.67-.35,3.3-.74,4.94-1.12-7.71,28.1-5,71.35-2.36,87.17,2.14,12.87,68.76,14.3,68.86-1.32C716.52,413.68,745.52,376.19,735.87,365.1Z" transform="translate(-4.25)"/><path class="cls-13" d="M707.22,510.16A21.33,21.33,0,0,1,699,523.57c-5.24,3.79-12.38,5.14-21.29,4l-.22,1.55a46.54,46.54,0,0,0,6,.4,33.23,33.23,0,0,0,8.85-1.13A124.87,124.87,0,0,1,683.11,546l1.44.81a129.51,129.51,0,0,0,9.87-19.14,23.22,23.22,0,0,0,5.61-2.88,22.49,22.49,0,0,0,8.87-14.46Z" transform="translate(-4.25)"/><text class="cls-14" transform="translate(398.34 637.62)"><tspan class="cls-15">T</tspan><tspan class="cls-16" x="15.59" y="0">ap </tspan><tspan class="cls-17" x="61.05" y="0">t</tspan><tspan x="72.75" y="0">o Upload</tspan><tspan class="cls-18" x="209.84" y="0"> </tspan><tspan class="cls-19" x="215.82" y="0">Y</tspan><tspan x="232.56" y="0">our </tspan><tspan class="cls-20" x="291.56" y="0">D</tspan><tspan x="315.68" y="0">esi</tspan><tspan class="cls-21" x="356.39" y="0">g</tspan><tspan class="cls-22" x="376.3" y="0">n</tspan></text><text class="cls-23" transform="translate(413.23 662.81)"><tspan class="cls-24">P</tspan><tspan x="7.38" y="0">lease upload an image: 1200x800 pi</tspan><tspan class="cls-25" x="215.1" y="0">x</tspan><tspan class="cls-26" x="221.38" y="0">el</tspan><tspan class="cls-27" x="231.69" y="0">s</tspan><tspan x="237.08" y="0">, JPEG/PNG, 500K</tspan><tspan class="cls-28" x="337.01" y="0">B</tspan><tspan x="344.67" y="0">-5M</tspan><tspan class="cls-29" x="367.4" y="0">B</tspan><tspan x="374.81" y="0">.</tspan></text></svg>