<svg width="24" height="24" viewBox="0 0 24 24" fill="none" xmlns="http://www.w3.org/2000/svg">
<path d="M10.8569 14.2C10.8704 14.2 10.8704 14.2 10.8839 14.2045C11.0907 14.2312 11.2929 14.2669 11.4457 14.3383C11.5895 14.4007 11.6749 14.481 11.7513 14.6237C11.8682 14.8378 11.8772 15.1366 11.7693 15.3641C11.6884 15.5336 11.5176 15.6763 11.3603 15.7521C11.1985 15.8324 11.0367 15.8681 10.8525 15.8904C10.5289 15.9261 10.1783 15.8592 9.89066 15.7209C9.71987 15.6362 9.50864 15.4934 9.40077 15.3106C9.32437 15.1768 9.32437 14.9984 9.41875 14.869C9.57156 14.6639 9.89515 14.6193 10.1378 14.6282C10.3221 14.6371 10.6592 14.6906 10.8345 14.7531C10.8839 14.7709 11.0637 14.8423 11.0952 14.8735C11.1176 14.8958 11.1311 14.927 11.1221 14.9582C11.0817 15.0786 10.7805 15.1455 10.6952 15.1589C10.4614 15.1946 10.3446 15.1054 10.0794 15.0028C10.012 14.9761 9.92661 14.9493 9.8592 14.9448C9.73785 14.9315 9.59403 14.9671 9.57156 15.0965C9.55807 15.1634 9.63897 15.2258 9.6974 15.2526C9.83673 15.315 9.95358 15.3329 10.0929 15.3373C10.5019 15.3418 10.9648 15.2749 11.3019 15.0385C11.3468 15.0073 11.3918 14.9582 11.3918 14.9002C11.3918 14.7798 11.1805 14.704 11.1805 14.704C10.9558 14.6103 10.5334 14.5657 10.3221 14.5479C10.0974 14.5301 9.73785 14.4988 9.65246 14.4855C9.56257 14.4721 9.46819 14.4542 9.39178 14.423C9.31538 14.3873 9.23897 14.3115 9.2165 14.2268C9.17605 14.0751 9.22549 13.8878 9.31088 13.7629C9.5356 13.4418 10.0614 13.3214 10.457 13.2723C10.839 13.2233 11.4547 13.2277 11.8277 13.424C11.8862 13.4552 11.9131 13.4819 11.9041 13.5444C11.8817 13.6603 11.7918 13.7317 11.6884 13.7674C11.5761 13.8031 11.3468 13.8164 11.248 13.8209C10.7985 13.8477 10.2547 13.8343 9.82324 13.9502C9.79178 13.9592 9.73335 13.977 9.71088 13.9949C9.64347 14.0662 9.83673 14.0885 9.87717 14.0974C9.89066 14.1019 9.89066 14.1019 9.90414 14.1019L10.8569 14.2ZM8.1738 12.2064C8.1738 12.2064 8.24571 12.0993 8.30864 12.0146C8.421 11.8629 8.62324 11.6533 8.77605 11.524C8.821 11.4838 8.87942 11.4392 8.87942 11.4392C8.87942 11.4392 8.79403 11.4482 8.74459 11.4571C8.62774 11.4794 8.46144 11.5909 8.37605 11.6622C8.23673 11.7827 8.08392 11.9744 8.15133 12.1439C8.16032 12.1751 8.1738 12.2064 8.1738 12.2064ZM8.95133 12.4115C9.17156 12.3981 9.3783 12.3312 9.57156 12.2287C9.76032 12.1261 10.039 11.9209 10.0075 11.6801C9.99852 11.6043 9.94909 11.5418 9.88167 11.5151C9.79628 11.4794 9.75583 11.4838 9.64796 11.5151C9.57156 11.5374 9.5356 11.5507 9.4592 11.5953C9.24347 11.7202 8.93335 11.9878 8.76706 12.2019C8.72661 12.251 8.69066 12.3089 8.6592 12.3491C8.64122 12.3714 8.62324 12.3937 8.62774 12.4026C8.63673 12.4204 8.86594 12.4204 8.95133 12.4115ZM8.38953 12.8219C8.36706 12.8442 8.34459 12.9021 8.31762 12.9467C8.30414 12.969 8.28167 12.9958 8.26369 13.0092C8.20527 13.0493 8.15583 13.0538 8.10189 13.0047C8.02549 12.9378 7.98055 12.8308 7.97605 12.7282C7.97605 12.6836 7.98055 12.6345 7.97156 12.5944C7.95807 12.5319 7.89515 12.465 7.8592 12.4026C7.81875 12.3312 7.78729 12.2064 7.78279 12.1261C7.76931 11.8719 7.90414 11.6399 8.07493 11.4571C8.25021 11.2698 8.47942 11.1181 8.73111 11.0111C8.96482 10.9129 9.31088 10.846 9.57156 10.9352C9.65695 10.962 9.7738 11.0334 9.83223 11.1092C9.84571 11.1226 9.8547 11.1404 9.86819 11.1493C9.88167 11.1583 9.90864 11.1583 9.9356 11.1627C10.0165 11.1761 10.1378 11.2385 10.1873 11.2787C10.2862 11.3634 10.3401 11.4437 10.3626 11.5597C10.412 11.7916 10.2772 12.0503 10.1244 12.2064C9.8592 12.474 9.59852 12.6613 9.26144 12.7951C9.11313 12.8531 8.88392 12.9066 8.71313 12.8932C8.6592 12.8888 8.60526 12.8754 8.55583 12.8709C8.52886 12.8665 8.43448 12.8442 8.42549 12.8397C8.40751 12.8263 8.39403 12.8219 8.38953 12.8219ZM8.69066 13.3392C8.69965 13.3392 8.71762 13.3437 8.73111 13.3526C8.84796 13.3972 8.8974 13.5042 8.92886 13.6247C8.99628 13.9012 9.02324 14.5167 9.03673 14.7575C9.04571 14.9359 9.05021 15.1143 9.0592 15.2927C9.06369 15.4444 9.07718 15.6451 9.04571 15.7833C9.03223 15.8324 9.00077 15.8948 8.95133 15.9216C8.89291 15.9573 8.76706 15.9617 8.69515 15.9439C8.51987 15.9082 8.46594 15.7967 8.43897 15.6272C8.38055 15.2214 8.40751 14.423 8.44347 14.0885C8.45695 13.977 8.4974 13.6202 8.55583 13.473C8.5738 13.4284 8.61875 13.3258 8.69066 13.3392ZM3.41875 14.0172C3.41875 14.0172 3.16257 14.035 2.98279 14.0528C2.75807 14.0751 2.33111 14.151 2.08841 14.2357C2.0165 14.2625 1.86369 14.3249 1.8547 14.4007C1.84122 14.4765 1.89066 14.539 1.94459 14.6014C1.97605 14.6371 2.15133 14.8066 2.20077 14.8467C2.40751 15.0207 2.82998 15.2838 3.1401 15.4132C3.24796 15.4578 3.42324 15.5202 3.42324 15.5202C3.42324 15.5202 3.40976 15.0207 3.41425 14.5301C3.41425 14.2714 3.41875 14.0172 3.41875 14.0172ZM8.14684 14.2134C8.16032 14.3472 8.12886 14.6014 8.11987 14.6326C8.11088 14.7085 8.05246 14.8869 8.03897 14.9092C7.98953 15.0162 7.94459 15.1054 7.89515 15.1946C7.80976 15.3462 7.60751 15.5871 7.49066 15.6897C7.04571 16.0688 6.35807 16.2873 5.76931 16.3587C5.36931 16.4077 4.91088 16.3988 4.48392 16.323C4.3401 16.2962 4.11987 16.2472 4.11987 16.2472C4.11987 16.2472 4.11987 16.3319 4.11538 16.3944C4.11088 16.4211 4.09291 16.4969 4.07942 16.5192C4.04796 16.5817 3.99852 16.6129 3.92661 16.6307C3.83673 16.6486 3.74234 16.653 3.66144 16.6174C3.52661 16.5594 3.47718 16.4345 3.4547 16.2918C3.43673 16.1758 3.41425 15.9751 3.41425 15.9751C3.41425 15.9751 3.31538 15.9261 3.22998 15.8859C2.9738 15.761 2.72661 15.6049 2.51088 15.4488C2.45246 15.4042 2.19628 15.1946 2.13785 15.1411C1.98055 14.9939 1.83673 14.8423 1.72886 14.6549C1.64347 14.5078 1.621 14.374 1.68392 14.2179C1.7738 13.9993 2.08841 13.8343 2.30414 13.7406C2.46144 13.6693 2.96032 13.5087 3.16257 13.4819C3.26145 13.4686 3.40976 13.4418 3.41875 13.4373C3.42324 13.4329 3.42324 13.4329 3.42774 13.4284C3.43223 13.424 3.44122 13.2054 3.43673 13.1251C3.43673 13.0449 3.49515 12.5364 3.51313 12.4249C3.52212 12.3669 3.56706 12.1395 3.61201 12.0815C3.64347 12.0413 3.69291 12.0458 3.73785 12.0726C3.97156 12.2197 4.04347 12.7237 4.06144 12.978C4.07043 13.1341 4.07942 13.3704 4.07942 13.3704C4.07942 13.3704 4.34909 13.3615 4.51538 13.366C4.67718 13.3704 4.85695 13.3972 5.02324 13.4195C5.23897 13.4552 5.65695 13.5444 5.89515 13.6648C6.09291 13.7629 6.27717 13.9324 6.3401 14.1108C6.39403 14.2714 6.38953 14.3873 6.30414 14.5345C6.20976 14.6995 6.02998 14.8244 5.84571 14.8333C5.79178 14.8378 5.58504 14.811 5.52212 14.762C5.49965 14.7441 5.49965 14.7085 5.51762 14.6862C5.52212 14.6772 5.621 14.6282 5.67493 14.597C5.70189 14.5836 5.72886 14.5657 5.74684 14.5434C5.79178 14.5033 5.83673 14.4587 5.83223 14.4052C5.82774 14.3383 5.75133 14.2937 5.68392 14.2669C5.35583 14.1376 4.69965 14.0305 4.38504 14.0127C4.2592 14.0038 4.08392 13.9993 4.08392 13.9993L4.11987 15.7343C4.11987 15.7343 4.26369 15.761 4.38055 15.7789C4.44796 15.7878 4.72661 15.8146 4.79852 15.8146C5.36482 15.8279 5.99403 15.7789 6.51088 15.538C6.7401 15.431 6.94684 15.3016 7.10414 15.1188C7.31088 14.8824 7.42324 14.5568 7.39178 14.2179C7.36032 13.8477 7.09965 13.4106 6.88841 13.143C6.3356 12.4383 5.38729 11.854 4.55133 11.5151C3.6974 11.1672 2.85695 10.9665 1.95358 10.9352C1.71987 10.9263 1.21201 10.9397 0.955827 11.0111C0.919872 11.02 0.883917 11.0334 0.847962 11.0423C0.820995 11.0467 0.780546 11.0646 0.767063 11.078C0.762568 11.0824 0.75358 11.0913 0.75358 11.0913C0.75358 11.0913 0.771557 11.1003 0.78504 11.1047C0.812007 11.1181 0.928861 11.1226 0.987288 11.1359C1.04122 11.1449 1.09515 11.1716 1.11762 11.2118C1.1401 11.2475 1.1401 11.2787 1.11762 11.3099C1.0592 11.3813 0.838973 11.3679 0.744591 11.3545C0.645715 11.3367 0.519872 11.3099 0.4974 11.2207C0.470434 11.1181 0.519872 11.02 0.573804 10.9263C0.68167 10.739 0.829984 10.6453 1.0547 10.5829C1.36931 10.4982 1.76931 10.4357 2.06594 10.4268C2.7401 10.4 3.3783 10.5205 4.03448 10.7167C4.40751 10.8282 4.8974 11.0155 5.25695 11.1895C5.51313 11.3144 5.92212 11.5374 6.14684 11.689C6.21875 11.7381 6.64122 12.0413 6.70414 12.0949C6.83897 12.2064 7.01875 12.3625 7.14909 12.4918C7.40077 12.7371 7.71088 13.1118 7.8592 13.415C7.89515 13.4864 7.92212 13.5578 7.97156 13.638C7.98953 13.6648 8.05695 13.8343 8.06594 13.8833C8.07942 13.9324 8.09291 14.0038 8.0974 14.0082C8.11987 14.0127 8.15133 14.1554 8.14684 14.2134ZM16.6367 13.8298C16.3221 13.9012 15.4907 13.9413 15.4907 13.9413L15.3873 14.2669C15.3873 14.2669 15.8008 14.2312 16.1064 14.2625C16.1064 14.2625 16.2053 14.2491 16.2143 14.374C16.2187 14.4855 16.2053 14.6103 16.2053 14.6103C16.2053 14.6103 16.2008 14.6862 16.0929 14.704C15.9805 14.7218 15.1985 14.7531 15.1985 14.7531L15.0727 15.1768C15.0727 15.1768 15.0277 15.2749 15.1311 15.2481C15.23 15.2214 16.048 15.0697 16.1558 15.092C16.2682 15.1188 16.3985 15.2704 16.3581 15.4087C16.3131 15.5782 15.4952 16.0955 15.0008 16.0599C15.0008 16.0599 14.7401 16.0777 14.5199 15.7254C14.3131 15.3909 14.5963 14.7575 14.5963 14.7575C14.5963 14.7575 14.4659 14.4632 14.5603 14.3606C14.5603 14.3606 14.6143 14.3115 14.7805 14.2981L14.9828 13.8878C14.9828 13.8878 14.7536 13.9012 14.6187 13.7362C14.4929 13.5801 14.4839 13.5042 14.5783 13.4641C14.6817 13.415 15.6345 13.2411 16.2862 13.2634C16.2862 13.2634 16.5154 13.2411 16.7086 13.6336C16.7041 13.6336 16.7985 13.7941 16.6367 13.8298ZM14.1783 15.4132C14.0929 15.6094 13.8727 15.819 13.5985 15.6897C13.3289 15.5603 12.8929 14.6817 12.8929 14.6817C12.8929 14.6817 12.7266 14.3561 12.6952 14.3606C12.6952 14.3606 12.6592 14.2981 12.6367 14.6549C12.6143 15.0117 12.6412 15.7075 12.4974 15.8146C12.3626 15.9261 12.1963 15.8815 12.1109 15.7521C12.0345 15.6272 12.003 15.3239 12.0435 14.7977C12.0929 14.2714 12.2187 13.7094 12.3761 13.5355C12.5334 13.3615 12.6592 13.4864 12.7086 13.5355C12.7086 13.5355 12.9199 13.7272 13.2659 14.2803L13.3289 14.3829C13.3289 14.3829 13.6435 14.9092 13.6794 14.9092C13.6794 14.9092 13.7064 14.9315 13.7289 14.9136C13.7603 14.9047 13.7468 14.7352 13.7468 14.7352C13.7468 14.7352 13.6794 14.1599 13.3918 13.192C13.3918 13.192 13.3468 13.0716 13.3783 12.9557C13.4098 12.8397 13.5221 12.8932 13.5221 12.8932C13.5221 12.8932 13.9671 13.1162 14.1873 13.8387C14.4075 14.5613 14.2592 15.2169 14.1783 15.4132ZM18.9828 14.9805C18.7805 15.3329 18.2053 16.0688 17.4412 15.8948C17.1895 16.5014 16.9783 17.1169 16.857 18.0312C16.857 18.0312 16.83 18.2096 16.6817 18.1472C16.5334 18.0936 16.2907 17.8528 16.2412 17.5138C16.1873 17.0678 16.3895 16.3185 16.794 15.4578C16.6772 15.266 16.5963 14.9939 16.6637 14.6014C16.6637 14.6014 16.7671 13.8789 17.4996 13.2277C17.4996 13.2277 17.5895 13.1519 17.639 13.1742C17.6929 13.1965 17.6704 13.4329 17.6255 13.5488C17.5805 13.6648 17.2525 14.2223 17.2525 14.2223C17.2525 14.2223 17.0502 14.6014 17.1041 14.9002C17.4862 14.316 18.3626 13.1341 18.9019 13.5042C19.0817 13.6336 19.1671 13.9146 19.1671 14.2179C19.1671 14.4855 19.1041 14.7664 18.9828 14.9805ZM18.8255 14.0528C18.8255 14.0528 18.794 13.8209 18.5648 14.0751C18.3671 14.2937 18.012 14.6995 17.7244 15.2481C18.0255 15.2124 18.3131 15.0519 18.403 14.9716C18.5468 14.8467 18.8794 14.5033 18.8255 14.0528ZM23.1895 13.9993H21.7918C21.7648 13.5265 21.7064 13.0672 21.6165 12.5944C21.6075 12.5453 21.5626 12.5096 21.5131 12.5096H21.1895C21.1626 12.5096 21.1356 12.523 21.1176 12.5453C21.0996 12.5676 21.0907 12.5944 21.0996 12.6256C21.1895 13.085 21.248 13.5355 21.2794 14.0038H19.9356C19.8727 14.0038 19.8232 14.0528 19.8232 14.1153V14.4052C19.8232 14.4676 19.8727 14.5167 19.9356 14.5167H21.3019C21.3019 14.588 21.3019 14.6505 21.3019 14.7129C21.3019 15.1277 21.2839 15.4711 21.2435 15.8592C21.239 15.8904 21.248 15.9171 21.2704 15.9394C21.2884 15.9617 21.3199 15.9751 21.3468 15.9751H21.648C21.7064 15.9751 21.7558 15.9305 21.7603 15.8725C21.8008 15.4845 21.8187 15.1366 21.8187 14.7129C21.8187 14.6549 21.8187 14.588 21.8187 14.5167H23.1985C23.2614 14.5167 23.3109 14.4676 23.3109 14.4052V14.1153C23.3019 14.0484 23.2525 13.9993 23.1895 13.9993Z" fill="#01147B"/>
<path d="M21.4232 11.8317C20.7131 10.0923 19.5041 8.60711 17.9401 7.54562C16.3356 6.4529 14.4569 5.87755 12.5019 5.87755C9.2704 5.87755 6.27714 7.46979 4.48838 10.1369C4.4704 10.1637 4.4659 10.2038 4.47489 10.235C4.48838 10.2707 4.51085 10.293 4.5468 10.3064L4.79849 10.3911C4.81197 10.3956 4.82995 10.4001 4.84343 10.4001C4.88838 10.4001 4.93332 10.3778 4.96029 10.3376C5.78276 9.14232 6.89287 8.14326 8.17377 7.45641C9.49512 6.74726 10.9962 6.36816 12.5064 6.36816C14.3356 6.36816 16.0974 6.90337 17.603 7.9158C19.0726 8.90147 20.2187 10.2796 20.9064 11.8986C20.9288 11.9477 20.9738 11.9789 21.0277 11.9789H21.3288C21.3648 11.9789 21.3962 11.9611 21.4142 11.9343C21.4367 11.8986 21.4367 11.863 21.4232 11.8317Z" fill="url(#paint0_radial_5323_1129)"/>
<defs>
<radialGradient id="paint0_radial_5323_1129" cx="0" cy="0" r="1" gradientUnits="userSpaceOnUse" gradientTransform="translate(21.1321 11.9663) scale(16.1818 16.0582)">
<stop stop-color="#01147B"/>
<stop offset="0.0254902" stop-color="#011098"/>
<stop offset="0.0643085" stop-color="#010ABD"/>
<stop offset="0.1032" stop-color="#0006DA"/>
<stop offset="0.1416" stop-color="#0003EE"/>
<stop offset="0.1794" stop-color="#0001FB"/>
<stop offset="0.2159" stop-color="#0000FF"/>
<stop offset="1" stop-color="#00FFFF" stop-opacity="0"/>
</radialGradient>
</defs>
</svg>
