<svg xmlns="http://www.w3.org/2000/svg" viewBox="0 0 277.76 277.76"><defs><style>.cls-1{fill:#ff9500;}</style></defs><title>edit</title><g id="Layer_2" data-name="Layer 2"><g id="Layer_1-2" data-name="Layer 1"><path class="cls-1" d="M61.6,277.76H216.16a61.42,61.42,0,0,0,61.6-61.6V172.48a5.6,5.6,0,1,0-11.2,0v43.68a50.19,50.19,0,0,1-50.4,50.4H61.6a50.19,50.19,0,0,1-50.4-50.4V61.6A50.19,50.19,0,0,1,61.6,11.2h43.68a5.29,5.29,0,0,0,5.6-5.6,5.29,5.29,0,0,0-5.6-5.6H61.6A61.42,61.42,0,0,0,0,61.6V216.16a61.42,61.42,0,0,0,61.6,61.6Z"/><path class="cls-1" d="M216.72,12.88,102.48,127.12c-.56.56-1.12,1.68-1.68,2.24l-15.68,56c-.56,2.8,1.12,6.16,3.92,6.72H92.4l56-15.68c1.12,0,1.68-.56,2.24-1.68L264.88,60.48c14-12.88,14.56-34.72,1.68-48.72S231.84-2.8,217.84,10.08a3.29,3.29,0,0,1-1.12,2.8ZM98.56,179.2l10.64-38.08,27.44,27.44ZM263.76,37A22.43,22.43,0,0,1,257,53.2L147.28,163,114.8,130.48,225.12,20.72a22.5,22.5,0,0,1,32.48.56A22,22,0,0,1,263.76,37Z"/></g></g></svg>