<?xml version="1.0" encoding="utf-8"?>
<!-- Generator: Adobe Illustrator 23.0.3, SVG Export Plug-In . SVG Version: 6.00 Build 0)  -->
<svg version="1.1" id="Layer_1" xmlns="http://www.w3.org/2000/svg" xmlns:xlink="http://www.w3.org/1999/xlink" x="0px" y="0px"
	 viewBox="0 0 122.9 65.1" style="enable-background:new 0 0 122.9 65.1;" xml:space="preserve">
<style type="text/css">
	.st0{fill:#FFFFFF;}
</style>
<g>
	<path class="st0" d="M0.9,30c2.9-3.5,6-6.7,9.1-9.6C24.4,7.3,41.5,0.4,59,0c17.5-0.3,35.5,5.9,51.7,19.3c3.9,3.2,7.6,6.8,11.2,10.7
		c1.2,1.3,1.2,3.2,0.2,4.5c-4.1,5.8-8.9,10.8-14.1,15C95.1,59.9,79.3,65,63.3,65.1c-15.9,0.1-32.1-4.9-45.8-14.6
		c-6.1-4.3-11.8-9.6-16.8-15.8C-0.3,33.2-0.2,31.3,0.9,30L0.9,30z M61.4,26.5c0.6,0,1.2,0.1,1.7,0.2c-0.5,0.5-0.7,1.2-0.7,1.9
		c0,1.6,1.3,2.8,2.8,2.8c0.8,0,1.5-0.3,2-0.8c0.2,0.6,0.3,1.2,0.3,1.9c0,3.3-2.7,6.1-6.1,6.1s-6.1-2.7-6.1-6.1
		C55.4,29.2,58.1,26.5,61.4,26.5L61.4,26.5z M61.4,10.8c6,0,11.4,2.4,15.4,6.4s6.4,9.4,6.4,15.3c0,6-2.4,11.4-6.4,15.3
		s-9.3,6.4-15.3,6.4c-6,0-11.4-2.4-15.3-6.4s-6.4-9.3-6.4-15.3c0-6,2.4-11.4,6.4-15.4S55.5,10.8,61.4,10.8L61.4,10.8z M71.9,22.1
		c-2.7-2.7-6.4-4.3-10.5-4.3s-7.8,1.6-10.5,4.3c-2.7,2.7-4.3,6.4-4.3,10.4S48.3,40.3,51,43c2.7,2.7,6.4,4.3,10.5,4.3
		s7.8-1.7,10.5-4.3c2.7-2.7,4.3-6.4,4.3-10.5C76.2,28.4,74.6,24.7,71.9,22.1L71.9,22.1z M14.9,25.6c-2.3,2.1-4.6,4.4-6.7,6.8
		c4.1,4.7,8.6,8.8,13.4,12.2C34.2,53.5,48.8,58,63.3,58c14.4-0.1,28.6-4.7,40.4-14c4-3.2,7.7-6.9,11-11.2c-2.8-2.9-5.6-5.5-8.5-7.9
		C91.3,12.5,75,6.8,59.2,7.1C43.3,7.4,27.9,13.8,14.9,25.6L14.9,25.6z"/>
</g>
</svg>
