<?xml version="1.0" encoding="utf-8"?>
<!-- Generator: Adobe Illustrator 23.0.3, SVG Export Plug-In . SVG Version: 6.00 Build 0)  -->
<svg version="1.1" id="Layer_1" xmlns="http://www.w3.org/2000/svg" xmlns:xlink="http://www.w3.org/1999/xlink" x="0px" y="0px"
	 viewBox="0 0 800 800" style="enable-background:new 0 0 800 800;" xml:space="preserve">
<style type="text/css">
	.st0{fill:#FF9500;}
</style>
<path d="M629.1,470.3l-46.2-119.4c-8.4-22.5-27.5-42.2-63.4-42.2H276.6c-35.3,0-54.1,19.4-63.4,42.2l-46.2,119.4
	c-18.1,2.5-50.6,23.8-50.6,64.4v151.9h45v48.8c0,59.7,84.7,59.4,84.7,0v-48.8h305v48.8c0,59.4,84.7,59.7,84.7,0v-48.8h45V534.7
	C679.7,494.1,647.5,472.2,629.1,470.3z M204.7,595c-21.2,0-39.1-18.1-39.1-40.3c0-21.9,17.5-40.3,39.1-40.3
	c21.2,0,39.1,18.1,39.1,40.3C243.8,576.9,226.6,595,204.7,595z M215,469.1l34.7-94.1c4.1-13.4,10.9-22.5,26.2-23.1h243.8
	c15.3,0,21.9,9.7,26.2,23.1l34.7,94.1H215z M591.6,595c-21.2,0-39.1-18.1-39.1-40.3c0-21.9,17.5-40.3,39.1-40.3s39.1,18.1,39.1,40.3
	C630.6,576.9,612.8,595,591.6,595z"/>
<polygon class="st0" points="398,18.1 21.4,207.8 21.4,780 51.4,780 51.4,225.9 398,52.2 744.8,226.6 744.8,780 774.2,780 
	774.2,207.8 "/>
</svg>
