<svg xmlns="http://www.w3.org/2000/svg" viewBox="0 0 122.88 79.7"><defs><style>.cls-1{fill:#fff;}</style></defs><title>hide-w-icon</title><g id="Layer_2" data-name="Layer 2"><g id="Layer_1-2" data-name="Layer 1"><path class="cls-1" d="M1,37.33a94.65,94.65,0,0,1,9.15-9.63c14.33-13,31.35-20,48.9-20.37A71.18,71.18,0,0,1,78.77,9.75l-5.91,5.9a63.77,63.77,0,0,0-13.71-1.23C43.34,14.74,27.93,21.08,14.89,33h0a86.42,86.42,0,0,0-6.7,6.82A74,74,0,0,0,21.64,52a74.29,74.29,0,0,0,9.29,5.59l-5.26,5.26a79.15,79.15,0,0,1-8.12-5A82.23,82.23,0,0,1,.77,42,3.54,3.54,0,0,1,1,37.33ZM96,0l5.89,5.89L28.12,79.7l-5.89-5.9L96,0Zm1.69,17.61a93.26,93.26,0,0,1,13,9A108.55,108.55,0,0,1,122,37.36a3.54,3.54,0,0,1,.23,4.5,73.24,73.24,0,0,1-14.07,15A71.86,71.86,0,0,1,63.35,72.38c-6.11,0-9.8-3.14-15.82-4.58l3.54-3.54a70.26,70.26,0,0,0,12.25,1,64.83,64.83,0,0,0,40.37-14,65.1,65.1,0,0,0,11-11.26,100.16,100.16,0,0,0-8.51-7.91A84.45,84.45,0,0,0,92.5,22.82l5.22-5.21Zm-36.28.53A21.68,21.68,0,0,1,69,19.5l-5.69,5.69A14.78,14.78,0,0,0,46.66,39.85a14.48,14.48,0,0,0,.12,1.88l-5.69,5.7a21.9,21.9,0,0,1-1.35-7.58,21.7,21.7,0,0,1,21.7-21.71ZM82.11,33.22a21.72,21.72,0,0,1-27.3,27.3l5.91-5.91.72,0A14.78,14.78,0,0,0,76.22,39.85c0-.24,0-.48,0-.72l5.91-5.91Z"/></g></g></svg>