<?xml version="1.0" encoding="utf-8"?>
<!-- Generator: Adobe Illustrator 25.4.0, SVG Export Plug-In . SVG Version: 6.00 Build 0)  -->
<svg version="1.1" id="Layer_1" xmlns:svgjs="http://svgjs.com/svgjs"
	 xmlns="http://www.w3.org/2000/svg" xmlns:xlink="http://www.w3.org/1999/xlink" x="0px" y="0px" viewBox="0 0 512 512"
	 style="enable-background:new 0 0 512 512;" xml:space="preserve">
<style type="text/css">
	.st0{fill:#070501;}
</style>
<g>
	<path class="st0" d="M53.3,469.3h405.3c5.9,0,10.7-4.8,10.7-10.7v-256c0-5.9-4.8-10.7-10.7-10.7h-53.3V96c0-5.9-4.8-10.7-10.7-10.7
		h-53.3V74.7c0-17.7-14.3-32-32-32H202.7c-17.7,0-32,14.3-32,32v10.7h-53.3c-5.9,0-10.7,4.8-10.7,10.7v96H53.3
		c-5.9,0-10.7,4.8-10.7,10.7v256C42.7,464.6,47.4,469.3,53.3,469.3z M405.3,213.3H448V448h-42.7V213.3z M288,448h-64v-74.7h64V448z
		 M192,74.7c0-5.9,4.8-10.7,10.7-10.7h106.7c5.9,0,10.7,4.8,10.7,10.7v106.7c0,5.9-4.8,10.7-10.7,10.7H202.7
		c-5.9,0-10.7-4.8-10.7-10.7V74.7z M128,106.7h42.7v74.7c0,17.7,14.3,32,32,32h106.7c17.7,0,32-14.3,32-32v-74.7H384V448h-74.7
		v-85.3c0-5.9-4.8-10.7-10.7-10.7h-85.3c-5.9,0-10.7,4.8-10.7,10.7V448H128V106.7z M64,213.3h42.7V448H64V213.3z"/>
	<path class="st0" d="M224,138.7h21.3V160c0,5.9,4.8,10.7,10.7,10.7c5.9,0,10.7-4.8,10.7-10.7v-21.3H288c5.9,0,10.7-4.8,10.7-10.7
		c0-5.9-4.8-10.7-10.7-10.7h-21.3V96c0-5.9-4.8-10.7-10.7-10.7c-5.9,0-10.7,4.8-10.7,10.7v21.3H224c-5.9,0-10.7,4.8-10.7,10.7
		C213.3,133.9,218.1,138.7,224,138.7z M181.3,266.7h21.3c5.9,0,10.7-4.8,10.7-10.7c0-5.9-4.8-10.7-10.7-10.7h-21.3
		c-5.9,0-10.7,4.8-10.7,10.7C170.7,261.9,175.4,266.7,181.3,266.7z M213.3,309.3c0-5.9-4.8-10.7-10.7-10.7h-21.3
		c-5.9,0-10.7,4.8-10.7,10.7s4.8,10.7,10.7,10.7h21.3C208.6,320,213.3,315.2,213.3,309.3z M245.3,266.7h21.3
		c5.9,0,10.7-4.8,10.7-10.7c0-5.9-4.8-10.7-10.7-10.7h-21.3c-5.9,0-10.7,4.8-10.7,10.7C234.7,261.9,239.4,266.7,245.3,266.7z
		 M245.3,320h21.3c5.9,0,10.7-4.8,10.7-10.7s-4.8-10.7-10.7-10.7h-21.3c-5.9,0-10.7,4.8-10.7,10.7S239.4,320,245.3,320z
		 M309.3,266.7h21.3c5.9,0,10.7-4.8,10.7-10.7c0-5.9-4.8-10.7-10.7-10.7h-21.3c-5.9,0-10.7,4.8-10.7,10.7
		C298.7,261.9,303.4,266.7,309.3,266.7z M309.3,320h21.3c5.9,0,10.7-4.8,10.7-10.7s-4.8-10.7-10.7-10.7h-21.3
		c-5.9,0-10.7,4.8-10.7,10.7S303.4,320,309.3,320z"/>
</g>
</svg>
