<svg xmlns="http://www.w3.org/2000/svg" viewBox="0 0 452.8 296.82"><defs><style>.cls-1{fill:#ff9500;}</style></defs><g id="Layer_2" data-name="Layer 2"><g id="Layer_1-2" data-name="Layer 1"><path class="cls-1" d="M387.55,39.8H25.38A25.4,25.4,0,0,0,0,65.16V271.47a25.4,25.4,0,0,0,25.38,25.35H387.55a25.39,25.39,0,0,0,25.38-25.35V65.16A25.4,25.4,0,0,0,387.55,39.8ZM170.46,187.52h0a3.6,3.6,0,0,1-3.6,3.6H133v33.77a3.6,3.6,0,0,1-3.59,3.6H91.07a3.6,3.6,0,0,1-3.59-3.6V191.12H53.68a3.6,3.6,0,0,1-3.6-3.6V149.14a3.6,3.6,0,0,1,3.6-3.59h33.8V111.77a3.6,3.6,0,0,1,3.6-3.59h38.37a3.59,3.59,0,0,1,3.59,3.59v33.78h33.82a3.6,3.6,0,0,1,3.6,3.59v38.38Zm188.81,41.42H214.38a3.6,3.6,0,0,1,0-7.19H359.27a3.6,3.6,0,1,1,0,7.19Zm0-57H214.38a3.6,3.6,0,0,1,0-7.19H359.27a3.6,3.6,0,1,1,0,7.19Zm0-57H214.38a3.6,3.6,0,0,1,0-7.19H359.27a3.6,3.6,0,1,1,0,7.19Z"/><path d="M427.42,0H65.21A25.4,25.4,0,0,0,39.83,25.36v7.25H387.57a32.6,32.6,0,0,1,32.58,32.55V257h7.27a25.39,25.39,0,0,0,25.38-25.35V25.36A25.4,25.4,0,0,0,427.42,0Z"/><path d="M125.85,149.14V115.37H94.67v33.77a3.6,3.6,0,0,1-3.6,3.6H57.27v31.19H91.08a3.59,3.59,0,0,1,3.59,3.59V221.3h31.18V187.52a3.6,3.6,0,0,1,3.6-3.59h33.82V152.74H129.45A3.6,3.6,0,0,1,125.85,149.14Z"/></g></g></svg>