<?xml version="1.0" encoding="utf-8"?>
<!-- Generator: Adobe Illustrator 23.0.3, SVG Export Plug-In . SVG Version: 6.00 Build 0)  -->
<svg version="1.1" id="Layer_1" xmlns="http://www.w3.org/2000/svg" xmlns:xlink="http://www.w3.org/1999/xlink" x="0px" y="0px"
	 viewBox="0 0 800 800" style="enable-background:new 0 0 800 800;" xml:space="preserve">
<style type="text/css">
	.st0{fill:#FF9500;}
</style>
<g id="SVGRepo_bgCarrier">
</g>
<g id="SVGRepo_tracerCarrier">
</g>
<g id="SVGRepo_iconCarrier">
	<g transform="translate(1 1)">
		<g>
			<g>
				<path d="M737.9,272.1h-40.3L422.1,28.2c-32-30.6-82.6-30.6-114.6,0l-102.6,93.3v-36h13.3c8,0,13.3-5.3,13.3-13.3V18.9
					c0-8-5.3-13.3-13.3-13.3H58.3c-8,0-13.3,5.3-13.3,13.3v53.3c0,8,6.7,13.3,13.3,13.3h13.3v153.2L1,300.1c-9.3,9.3-12,21.3-8,33.3
					C-3,344,9,352,21,352h50.6v373.1H58.3c-8,0-13.3,5.3-13.3,13.3v53.3c0,8,5.3,13.3,13.3,13.3h613c8,0,13.3-5.3,13.3-13.3v-53.3
					c0-4-1.3-6.7-4-9.3c-2.7-2.7-5.3-4-9.3-4H658v-26.7h80c29.3,0,53.3-24,53.3-53.3V432v-80v-26.7
					C791.2,296.1,767.3,272.1,737.9,272.1z M764.6,325.4v13.3H244.9v-13.3c0-14.7,12-26.7,26.7-26.7h419.8h46.6
					C752.6,298.7,764.6,310.7,764.6,325.4z M764.6,418.7H244.9v-53.3h519.7V418.7z M644.7,751.8H658v26.7H71.7v-26.7H85
					c8,0,13.3-5.3,13.3-13.3V338.7c0-8-5.3-13.3-13.3-13.3H21c-1.3,0-2.7,0-2.7-1.3s0-2.7,1.3-4l74.6-64c2.7-2.7,4-6.7,4-10.7V72.2
					c0-8-5.3-13.3-13.3-13.3H71.7V32.2h133.3v26.7h-13.3c-8,0-13.3,5.3-13.3,13.3v80c0,5.3,2.7,10.7,8,13.3
					c5.3,1.3,10.7,1.3,14.7-2.7L326.2,48.2c21.3-21.3,54.6-21.3,77.3,0l251.9,223.9H271.5c-29.3,0-53.3,24-53.3,53.3V352v80v213.2
					c0,29.3,24,53.3,53.3,53.3h359.8v40C631.3,746.5,636.7,751.8,644.7,751.8z M737.9,671.8h-93.3H271.5c-14.7,0-26.7-12-26.7-26.7
					V445.3h519.7v199.9C764.6,659.9,752.6,671.8,737.9,671.8z"/>
				<path d="M724.6,525.3H551.4c-8,0-13.3,5.3-13.3,13.3v93.3c0,8,5.3,13.3,13.3,13.3h173.2c8,0,13.3-5.3,13.3-13.3v-93.3
					C737.9,530.6,732.6,525.3,724.6,525.3z M711.3,618.5H564.7v-66.6h146.6V618.5z"/>
				<path d="M284.9,511.9h66.6c8,0,13.3-5.3,13.3-13.3c0-8-5.3-13.3-13.3-13.3h-66.6c-8,0-13.3,5.3-13.3,13.3
					C271.5,506.6,276.9,511.9,284.9,511.9z"/>
				<path d="M483.4,485.3h-86.6c-8,0-13.3,5.3-13.3,13.3c0,8,5.3,13.3,13.3,13.3h86.6c8,0,13.3-5.3,13.3-13.3
					C496.7,490.6,491.4,485.3,483.4,485.3z"/>
				<path d="M416.8,538.6H284.9c-8,0-13.3,5.3-13.3,13.3c0,8,5.3,13.3,13.3,13.3h131.9c6.7,0,13.3-5.3,13.3-13.3
					C430.1,543.9,424.8,538.6,416.8,538.6z"/>
				<path d="M483.4,538.6h-25.3c-8,0-13.3,5.3-13.3,13.3c0,8,5.3,13.3,13.3,13.3h25.3c8,0,13.3-5.3,13.3-13.3
					C496.7,543.9,491.4,538.6,483.4,538.6z"/>
			</g>
		</g>
	</g>
</g>
<g id="SVGRepo_iconCarrier_1_">
	<g transform="translate(1 1)">
		<g>
			<g>
				<path class="st0" d="M271.5,272.4c-29.3,0-53.3,24-53.3,53.3v319.8c0,29.3,24,53.3,53.3,53.3h336c11.7-2.8,23.8-4,36.4-3.5
					c11.9,0,23.5,1.2,34.8,3.5h59.3c29.3,0,53.3-24,53.3-53.3V325.7c0-29.3-24-53.3-53.3-53.3h-40.3l-0.6-0.5
					c-8,1.2-16.2,1.6-24.6,1.3c-5.8,0-11.6-0.3-17.3-0.9l0.1,0.1H271.5z M764.6,645.5c0,14.7-12,26.7-26.7,26.7H271.5
					c-14.7,0-26.7-12-26.7-26.7V445.6h519.7V645.5z M764.6,419H244.9v-53.3h519.7V419z M737.9,299.1c14.7,0,26.7,12,26.7,26.7V339
					H244.9v-13.3c0-14.7,12-26.7,26.7-26.7H737.9z"/>
				<path class="st0" d="M724.6,525.6H551.4c-8,0-13.3,5.3-13.3,13.3v93.3c0,8,5.3,13.3,13.3,13.3h173.2c8,0,13.3-5.3,13.3-13.3
					v-93.3C737.9,530.9,732.6,525.6,724.6,525.6z M711.3,618.9H564.7v-66.6h146.6V618.9z"/>
				<path class="st0" d="M284.9,512.3h66.6c8,0,13.3-5.3,13.3-13.3c0-8-5.3-13.3-13.3-13.3h-66.6c-8,0-13.3,5.3-13.3,13.3
					C271.5,506.9,276.9,512.3,284.9,512.3z"/>
				<path class="st0" d="M483.4,485.6h-86.6c-8,0-13.3,5.3-13.3,13.3c0,8,5.3,13.3,13.3,13.3h86.6c8,0,13.3-5.3,13.3-13.3
					C496.7,491,491.4,485.6,483.4,485.6z"/>
				<path class="st0" d="M416.8,538.9H284.9c-8,0-13.3,5.3-13.3,13.3c0,8,5.3,13.3,13.3,13.3h131.9c6.7,0,13.3-5.3,13.3-13.3
					C430.1,544.3,424.8,538.9,416.8,538.9z"/>
				<path class="st0" d="M483.4,538.9h-25.3c-8,0-13.3,5.3-13.3,13.3c0,8,5.3,13.3,13.3,13.3h25.3c8,0,13.3-5.3,13.3-13.3
					C496.7,544.3,491.4,538.9,483.4,538.9z"/>
			</g>
		</g>
	</g>
</g>
</svg>
