<svg xmlns="http://www.w3.org/2000/svg" viewBox="0 0 89.2 80.19"><defs><style>.cls-1{fill:#ff9500;}</style></defs><g id="Layer_2" data-name="Layer 2"><g id="Layer_1-2" data-name="Layer 1"><path d="M85.65,18.24c-3.49-2.13-8.26-5-8-12A1.33,1.33,0,0,0,76.85,5L67.11.15a1.33,1.33,0,0,0-1.48.16c-5.4,4.42-10.41,2.43-14.07,1s-5-1.73-6.09.56L42.82,7.22l.63,0c.51.05,1,.09,1.53.16L46.52,4.3a1.86,1.86,0,0,1,1.07-.93A1.82,1.82,0,0,1,49,3.46L84.65,21.08a1.85,1.85,0,0,1,.83,2.48L59.34,76.46a1.86,1.86,0,0,1-1.07.93,1.7,1.7,0,0,1-.59.1,1.83,1.83,0,0,1-.82-.19l-6.8-3.36v.76a3.49,3.49,0,0,1-.17,1.08L58.4,80a1.93,1.93,0,0,0,1.49.1,1.81,1.81,0,0,0,1.1-.94L88.92,22.63C89.75,20.94,88.74,20.13,85.65,18.24Z"/><path d="M48.2,5.19,46.92,7.78a3.69,3.69,0,0,1,3,2.73L77.5,24.14a.95.95,0,0,1-.42,1.8,1.07,1.07,0,0,1-.42-.1L50.06,12.69v2l25.8,12.75a.95.95,0,0,1-.42,1.8.92.92,0,0,1-.42-.1l-25-12.34v2L74.22,30.78a.95.95,0,0,1-.42,1.8.9.9,0,0,1-.42-.1L50.06,21v2L72.58,34.1a.95.95,0,0,1-.42,1.8.9.9,0,0,1-.42-.1L50.06,25.09v2L70.94,37.42a.95.95,0,0,1-.42,1.8,1,1,0,0,1-.42-.09l-20-9.91v6.69l12.23,6a.95.95,0,0,1-.42,1.8,1,1,0,0,1-.42-.09L50.06,38v3.72l5.36,2.65A.95.95,0,0,1,55,46.2a.9.9,0,0,1-.42-.1l-4.52-2.23V71.82h0l7.6,3.76,26.1-52.82Z"/><path class="cls-1" d="M28,50.49l-.3-.13-.46-.89-.42.27-.93-2.19.46-.45a2.77,2.77,0,0,0,.78-1.43l.11-.5.41-.16.07-.13a4.24,4.24,0,0,0,.6-1.53l-.42-.27.11-.62V40.27a2.34,2.34,0,0,0-2.1-2.33H22.5a2.36,2.36,0,0,0-2.06,2.33v2.17l.17.74-.57.26a3.89,3.89,0,0,0,.55,1.44l.07.13.43.17.09.53A2.49,2.49,0,0,0,21.87,47l.45.45-.89,2.12-.33-.19-.45.87-.3.14C17,51.91,14.82,53.51,14,55c-1.31,5.21-1.74,7.33-1.86,8.19h24c-.13-.86-.55-3-1.86-8.19C33.35,53.53,31.19,52,28,50.49Z"/><polygon class="cls-1" points="13.56 19.96 11.2 18.33 8.84 19.96 8.77 24.88 13.62 24.88 13.56 19.96"/><path class="cls-1" d="M43.28,9.45c-4.07-.37-9.64-.87-12.51-7.21a1.33,1.33,0,0,0-1.25-.79H18.64a1.33,1.33,0,0,0-1.25.79C14.51,8.6,9.13,9,5.21,9.36S0,10,0,12.56V75a1.93,1.93,0,0,0,2,1.89H46.21A1.93,1.93,0,0,0,48.16,75V11.93C48.16,10.06,46.89,9.77,43.28,9.45ZM20.25,5h7.66a1,1,0,0,1,0,1.9H20.25a1,1,0,0,1,0-1.9Zm25.24,9.29v59a1.85,1.85,0,0,1-1.85,1.85H3.88A1.85,1.85,0,0,1,2,73.3v-59a1.85,1.85,0,0,1,1.85-1.85H43.64a1.85,1.85,0,0,1,1.85,1.85Z"/><path class="cls-1" d="M3.93,73.25H43.59V14.34H3.93Zm15.49-3.79H10.84a1,1,0,0,1,0-1.9h8.58a.95.95,0,0,1,0,1.9Zm17.56,0H24a1,1,0,1,1,0-1.9H37a1,1,0,1,1,0,1.9Zm.9-5.08a1.23,1.23,0,0,1-1.12.72H11.4a1.23,1.23,0,0,1-1.12-.72c-.24-.53-.41-.91,1.86-9.91a1.57,1.57,0,0,1,.1-.28c1-1.9,3.4-3.71,7-5.38l.47-.89a1.15,1.15,0,0,1,.2-.29,4.41,4.41,0,0,1-.54-1.19,1.61,1.61,0,0,1-.52-.77c-.85-1.56-1-2.73-.34-3.48V40.27a4.22,4.22,0,0,1,4-4.23h3.38a4.23,4.23,0,0,1,4,4.23v2c.76,1.09-.09,2.75-.47,3.43a1.54,1.54,0,0,1-.56.79,4.45,4.45,0,0,1-.53,1.15,1.19,1.19,0,0,1,.23.31l.5,1c3.55,1.65,5.86,3.43,6.87,5.31a1.28,1.28,0,0,1,.11.27h0C38.29,63.49,38.12,63.87,37.88,64.4ZM18.83,18.79H39.92a1,1,0,1,1,0,1.9H18.83a.95.95,0,0,1,0-1.9Zm0,3.53H34.44a.95.95,0,0,1,0,1.9H18.83a.95.95,0,1,1,0-1.9ZM5.9,25.73v-.54a1,1,0,0,1,.57-.92,1,1,0,0,1,.33-.34.66.66,0,0,1,.09-.19l0-2.42a1,1,0,0,1-.59-.94v-.45a1,1,0,0,1,.46-.87l3.82-2.63a1.06,1.06,0,0,1,1.18,0l3.83,2.64a1,1,0,0,1,.45.89v.42a1.06,1.06,0,0,1-.6.94l0,2.42a1.14,1.14,0,0,1,.1.19,1,1,0,0,1,.32.34,1,1,0,0,1,.57.93v.54a1,1,0,0,1-1,1H6.94a1,1,0,0,1-1-1Z"/></g></g></svg>