<svg xmlns="http://www.w3.org/2000/svg" viewBox="0 0 128 128"><defs><style>.cls-1{fill:#ff9500;}</style></defs><g id="Layer_2" data-name="Layer 2"><g id="Layer_1-2" data-name="Layer 1"><path class="cls-1" d="M104.32,74a3.63,3.63,0,0,1-1.17-.85L95.8,65a6.5,6.5,0,0,0-9.18-.42,5.55,5.55,0,0,0-.42.42l-7.35,8.18a3.63,3.63,0,0,1-1.17.85l-10,4.46A6.49,6.49,0,0,0,64.4,87a5.44,5.44,0,0,0,.27.54l5.5,9.52a3.36,3.36,0,0,1,.45,1.37l1.14,10.94a6.49,6.49,0,0,0,7.17,5.73q.3,0,.6-.09l10.75-2.29a3.18,3.18,0,0,1,1.44,0L102.47,115a6.51,6.51,0,0,0,7.68-5.06,5.4,5.4,0,0,0,.09-.58l1.14-10.94a3.36,3.36,0,0,1,.45-1.37l5.5-9.52a6.5,6.5,0,0,0-2.43-8.86q-.27-.15-.54-.27ZM72.69,95.45l-5.43-9.38a3.18,3.18,0,0,1-.42-1.27l19.31,6.28ZM89.5,109.84l-10.6,2.27a3.5,3.5,0,0,1-1.33,0L89.5,95.7Zm0-23.38L81.19,75,88.43,67a3.38,3.38,0,0,1,1.07-.8Zm17.76,22.62a3.61,3.61,0,0,1-.4,1.28L94.93,93.93l13.45,4.37ZM94.93,88.23l8.31-11.45,9.91,4.4a3.65,3.65,0,0,1,1.09.77Z"/><path d="M40.68,31.85a.79.79,0,0,0-1.08-.28.83.83,0,0,0-.28.28l-4.66,7.93a.78.78,0,0,0,0,.82L39.33,48a.79.79,0,0,0,1.09.25,1,1,0,0,0,.25-.25l4.66-7.42a.78.78,0,0,0,0-.82Z"/><path d="M58.72,37.82,54.55,40.5a.77.77,0,0,0-.36.62l-.24,5a.79.79,0,0,0,.75.82.77.77,0,0,0,.47-.12l4.16-2.68a.81.81,0,0,0,.37-.63l.23-4.95a.78.78,0,0,0-.75-.82A.76.76,0,0,0,58.72,37.82Z"/><path d="M25.45,40.5l-4.17-2.68a.78.78,0,0,0-1.09.24.74.74,0,0,0-.12.46l.23,4.95a.81.81,0,0,0,.37.63l4.17,2.68a.78.78,0,0,0,1.08-.24.77.77,0,0,0,.13-.46l-.24-5A.77.77,0,0,0,25.45,40.5Z"/><path d="M114.5,0H13.5A13.52,13.52,0,0,0,0,13.5v58A13.52,13.52,0,0,0,13.5,85H50.19a1.5,1.5,0,0,0,1.48-1.23,40,40,0,0,1,73.55-13.46,1.5,1.5,0,0,0,2.78-.78v-56A13.52,13.52,0,0,0,114.5,0ZM61.58,58.69a4.73,4.73,0,0,1-4.64,3.81H23.06a4.73,4.73,0,0,1-4.64-3.81L18.28,58H61.72ZM68,29.5a4.48,4.48,0,0,1-.63-.06L62.3,55A1.43,1.43,0,0,0,62,55H18a1.36,1.36,0,0,0-.29,0L12.63,29.44a4.48,4.48,0,0,1-.63.06,4,4,0,1,1,4-4,4.45,4.45,0,0,1-.08.81l11.56,5.1a1.57,1.57,0,0,0,1.95-.57l8.06-12.1a4.48,4.48,0,1,1,5,0l8.06,12.1a1.57,1.57,0,0,0,2,.57l11.56-5.1a4,4,0,1,1,4.73,3.11A4.45,4.45,0,0,1,68,29.5ZM117.5,31a1.5,1.5,0,0,1-1.5,1.5H91A1.5,1.5,0,0,1,89.5,31V27A1.5,1.5,0,0,1,91,25.5h25a1.5,1.5,0,0,1,1.5,1.5Zm0-15a1.5,1.5,0,0,1-1.5,1.5H82A1.5,1.5,0,0,1,80.5,16V12A1.5,1.5,0,0,1,82,10.5h34a1.5,1.5,0,0,1,1.5,1.5Z"/><path class="cls-1" d="M91,54a37,37,0,1,0,37,37A37,37,0,0,0,91,54Zm29.72,27.44a9.26,9.26,0,0,1-.83,7.7l-5.46,9.45a.45.45,0,0,0-.07.18l-1.14,10.94a9.52,9.52,0,0,1-9.4,8.49,8.69,8.69,0,0,1-2-.24L91.1,115.68h-.19L80.16,118a8.76,8.76,0,0,1-2,.23,9.57,9.57,0,0,1-9.42-8.56L67.64,98.77a.44.44,0,0,0,0-.15l-5.52-9.55A9.49,9.49,0,0,1,65.6,76.12a8.11,8.11,0,0,1,.88-.45l10-4.43a.49.49,0,0,0,.18-.14L84,62.94a9.5,9.5,0,0,1,13.42-.63,8.73,8.73,0,0,1,.68.68l7.31,8.13a.48.48,0,0,0,.16.12l10,4.46A9.26,9.26,0,0,1,120.72,81.44Z"/></g></g></svg>