<svg xmlns="http://www.w3.org/2000/svg" viewBox="0 0 64 63.01"><defs><style>.cls-1{fill:#ff9500;}</style></defs><g id="Layer_2" data-name="Layer 2"><g id="Layer_1-2" data-name="Layer 1"><path d="M34,25c-.21-.32-.41-.65-.6-1H2.35A2.42,2.42,0,0,0,0,26.47V60.56A2.41,2.41,0,0,0,2.35,63H54.5a2.4,2.4,0,0,0,2.34-2.45V30.15A16.69,16.69,0,0,1,34,25M16.45,31.15a4.53,4.53,0,1,1-4.53,4.51,4.52,4.52,0,0,1,4.53-4.51M8.56,47.32a7.83,7.83,0,0,1,2.31-5.57A8,8,0,0,1,13.47,40a5.28,5.28,0,0,0,3,.92,5.22,5.22,0,0,0,3-.92,7.89,7.89,0,0,1,4.9,7.29v.88a.37.37,0,0,1-.38.37h-15a.37.37,0,0,1-.37-.37Zm41.72,8.33H6.78a.38.38,0,1,1,0-.75h43.5a.38.38,0,1,1,0,.75m0-8.38H33.34a.38.38,0,0,1-.38-.38.37.37,0,0,1,.38-.37H50.28a.37.37,0,0,1,.38.37.38.38,0,0,1-.38.38m.38-8.76a.37.37,0,0,1-.38.37H33.34a.37.37,0,0,1-.38-.37.38.38,0,0,1,.38-.38H50.28a.38.38,0,0,1,.38.38"/><path d="M31.49,18.12c0-.17,0-.34-.07-.52H8.75a2.41,2.41,0,0,0-2.34,2.47v3.18H33a16.12,16.12,0,0,1-1.53-5.13"/><path class="cls-1" d="M34.64,24.58a15.95,15.95,0,0,0,22,4.79,16.06,16.06,0,0,0,6.56-8.47A16.35,16.35,0,0,0,64,16a16,16,0,0,0-31.91,0A15,15,0,0,0,32.23,18a15.32,15.32,0,0,0,2.41,6.56M43.19,11.3a4.86,4.86,0,1,1,9.72,0v2.22h-.75V11.3a4.11,4.11,0,1,0-8.22,0v2.22h-.75Zm-1.65,4.1a1.13,1.13,0,0,1,1.13-1.13H53.43a1.13,1.13,0,0,1,1.13,1.13V23a1.14,1.14,0,0,1-1.13,1.13H42.67A1.14,1.14,0,0,1,41.54,23Z"/><path d="M57.59,29.65v27H60.9a2.4,2.4,0,0,0,2.34-2.46V22.9a16.6,16.6,0,0,1-5.65,6.75"/></g></g></svg>