<svg xmlns="http://www.w3.org/2000/svg" viewBox="0 0 29 22.34"><defs><style>.cls-1{fill:#ff9500;}</style></defs><g id="Layer_2" data-name="Layer 2"><g id="Layer_1-2" data-name="Layer 1"><path class="cls-1" d="M29,5.91a.51.51,0,0,0-.25-.29L17.5.07a.5.5,0,0,0-.67.23h0L9,16.07a.5.5,0,0,0,.23.67h0L20.5,22.29a.44.44,0,0,0,.22.05h.16a.48.48,0,0,0,.29-.25L28.94,6.32A.49.49,0,0,0,29,5.91Z"/><path d="M8.8,17.64a1.5,1.5,0,0,1-.68-2L13.94,3.8,12.22.3A.5.5,0,0,0,11.56,0l-.06,0L.28,5.62a.5.5,0,0,0-.23.67h0L7.82,22.06a.51.51,0,0,0,.29.25h.16a.42.42,0,0,0,.22,0l4.88-2.4Z"/></g></g></svg>