<svg xmlns="http://www.w3.org/2000/svg" version="1.1" xmlns:xlink="http://www.w3.org/1999/xlink" xmlns:svgjs="http://svgjs.com/svgjs" width="512" height="512" x="0" y="0" viewBox="0 0 64 64" style="enable-background:new 0 0 512 512" xml:space="preserve" class=""><g><path d="M62.999 57H1.003a1 1 0 1 1 0-2h61.996a1 1 0 1 1 0 2z" fill="#ff9500" data-original="#000000" class=""></path><path d="M62.999 57a1 1 0 0 1-1-1V24.988a1 1 0 1 1 2 0V56a1 1 0 0 1-1 1zM42.999 57a1 1 0 0 1-1-1V24.988a1 1 0 1 1 2 0V56a1 1 0 0 1-1 1zM21.001 57a1 1 0 0 1-1-1V24.988a1 1 0 1 1 2 0V56a1 1 0 0 1-1 1zM1.001 57a1 1 0 0 1-1-1V24.988a1 1 0 1 1 2 0V56a1 1 0 0 1-1 1z" fill="#ff9500" data-original="#000000" class=""></path><path d="M62.999 25.988H61a1 1 0 1 1 0-2h1.999a1 1 0 1 1 0 2zM3.001 25.988H1.002a1 1 0 1 1 0-2h1.999a1 1 0 1 1 0 2zM45 25.988h-4.001a1 1 0 1 1 0-2H45a1 1 0 1 1 0 2zM23.003 25.988h-4.001a1 1 0 1 1 0-2h4.001a1 1 0 1 1 0 2zM47.002 48.994a1 1 0 0 1-1-1V31.01a1 1 0 1 1 2 0v16.984a1 1 0 0 1-1 1z" fill="#ff9500" data-original="#000000" class=""></path><path d="M47.001 32.01a1 1 0 0 1-1-1c0-1.654 1.347-3 3.001-3a1 1 0 1 1 0 2c-.552 0-1.001.448-1.001 1a1 1 0 0 1-1 1zM51.002 52.994a4.971 4.971 0 0 1-3.536-1.463 4.964 4.964 0 0 1-1.464-3.537 1 1 0 1 1 2 0c0 .803.312 1.557.878 2.122a2.98 2.98 0 0 0 2.122.878 1 1 0 1 1 0 2zM59 48.994a1 1 0 0 1-1-1V31.01a1 1 0 1 1 2 0v16.984a1 1 0 0 1-1 1z" fill="#ff9500" data-original="#000000" class=""></path><path d="M59 32.01a1 1 0 0 1-1-1 1 1 0 0 0-1-1 1 1 0 1 1 0-2c1.654 0 3 1.346 3 3a1 1 0 0 1-1 1zM54.999 52.994a1 1 0 1 1 0-2 3.005 3.005 0 0 0 3.001-3 1 1 0 1 1 2 0c0 2.757-2.243 5-5.001 5z" fill="#ff9500" data-original="#000000" class=""></path><path d="M57 30.01h-7.998a1 1 0 1 1 0-2H57a1 1 0 1 1 0 2zM56.02 42.998H50.001a1.003 1.003 0 0 1-1-1l.001-8.99a1 1 0 0 1 1-1h5.997a1 1 0 0 1 1 1l.001 8.79a1 1 0 0 1-.98 1.2zm-5.019-2H55l-.001-6.99h-3.997z" fill="#ff9500" data-original="#000000" class=""></path><path d="M57 45.998a.999.999 0 0 1-.948-.684l-1-3a1 1 0 1 1 1.897-.633l1 3A1 1 0 0 1 57 45.998zM49.001 45.998a1 1 0 0 1-.948-1.317l1-3a1 1 0 1 1 1.897.633l-1 3c-.14.419-.53.684-.949.684z" fill="#ff9500" data-original="#000000" class=""></path><path d="M53 46.998c-2.433-.001-3.887-.334-4.579-1.048-.394-.407-.425-.823-.419-.983a1 1 0 0 1 1.913-.376c.204.109.956.406 3.085.407 2.13 0 2.882-.297 3.086-.406a.998.998 0 0 1 .883-.593l.032-.001a1 1 0 0 1 .998.969c.006.16-.025.577-.42.984-.692.714-2.147 1.047-4.579 1.047zM54.999 52.994h-3.997a1 1 0 1 1 0-2h3.997a1 1 0 1 1 0 2zM60 42.998h-1a1 1 0 1 1 0-2h1a1 1 0 1 1 0 2zM47.001 42.998h-1a1 1 0 1 1 0-2h1a1 1 0 1 1 0 2zM50.003 34.008a.998.998 0 0 1-.833-.445l-2.297-3.443a1 1 0 1 1 1.664-1.11l2.297 3.443a1 1 0 0 1-.831 1.555zM55.999 34.006a1.002 1.002 0 0 1-.831-1.555l2.297-3.441a1 1 0 0 1 1.664 1.11l-2.297 3.441a1 1 0 0 1-.833.445zM26.001 27.984a1 1 0 0 1-1-1V10a1 1 0 1 1 2 0v16.984a1 1 0 0 1-1 1z" fill="#ff9500" data-original="#000000" class=""></path><path d="M26 10.998a1 1 0 0 1-1-1A3.003 3.003 0 0 1 28.001 7a1 1 0 1 1 0 2A1 1 0 0 0 27 9.998a1 1 0 0 1-1 1zM30.001 31.984c-1.336 0-2.592-.52-3.536-1.464s-1.465-2.2-1.464-3.536a1 1 0 1 1 2 0c0 .802.312 1.556.878 2.122s1.32.878 2.122.878a1 1 0 1 1 0 2zM37.999 27.984a1 1 0 0 1-1-1V9.998a1 1 0 1 1 2 0v16.986a1 1 0 0 1-1 1z" fill="#ff9500" data-original="#000000" class=""></path><path d="M37.999 10.998a1 1 0 0 1-1-1 1 1 0 0 0-1-.998 1 1 0 1 1 0-2c1.654 0 3 1.345 3 2.998a1 1 0 0 1-1 1zM33.998 31.984a1 1 0 1 1 0-2 3.005 3.005 0 0 0 3.001-3 1 1 0 1 1 2 0c0 2.757-2.243 5-5.001 5z" fill="#ff9500" data-original="#000000" class=""></path><path d="M35.999 9h-7.998a1 1 0 1 1 0-2h7.998a1 1 0 1 1 0 2zM29 21.988a1.002 1.002 0 0 1-1-1l.001-8.99a1 1 0 0 1 1-1h5.997a1 1 0 0 1 1 1l.001 8.988a1 1 0 0 1-1 1zm1.001-8.99L30 19.988l3.999-.002-.001-6.988z" fill="#ff9500" data-original="#000000" class=""></path><path d="M35.999 24.986a.999.999 0 0 1-.948-.684l-1-3a1 1 0 1 1 1.897-.633l1 3a1 1 0 0 1-.949 1.317zM28 24.986a1 1 0 0 1-.948-1.317l1-2.998a1 1 0 0 1 1.897.633l-1 2.998a1 1 0 0 1-.949.684z" fill="#ff9500" data-original="#000000" class=""></path><path d="M31.999 25.986c-2.431 0-3.886-.333-4.578-1.047-.395-.407-.426-.824-.42-.984.018-.552.48-1.003 1.03-.968a1 1 0 0 1 .883.593c.204.109.955.406 3.085.406s2.882-.297 3.086-.406a.998.998 0 0 1 .883-.593c.532-.031 1.014.416 1.031.968.005.16-.026.577-.421.984-.692.714-2.147 1.047-4.579 1.047zM33.998 31.984h-3.997a1 1 0 1 1 0-2h3.997a1 1 0 1 1 0 2zM38.999 21.986h-1a1 1 0 1 1 0-2h1a1 1 0 1 1 0 2zM26 21.986h-1a1 1 0 1 1 0-2h1a1 1 0 1 1 0 2zM29.002 12.998a.998.998 0 0 1-.833-.445l-2.297-3.445a1 1 0 1 1 1.664-1.11l2.297 3.445a1 1 0 0 1-.831 1.555zM34.998 12.996a1.002 1.002 0 0 1-.831-1.555l2.297-3.443a1 1 0 0 1 1.664 1.11l-2.297 3.443a.998.998 0 0 1-.833.445zM5.004 48.994a1 1 0 0 1-1-1V31.01a1 1 0 1 1 2 0v16.984a1 1 0 0 1-1 1z" fill="#ff9500" data-original="#000000" class=""></path><path d="M5.003 32.01a1 1 0 0 1-1-1c0-1.654 1.347-3 3.001-3a1 1 0 1 1 0 2c-.552 0-1.001.448-1.001 1a1 1 0 0 1-1 1zM9.004 52.994a4.971 4.971 0 0 1-3.536-1.463 4.964 4.964 0 0 1-1.464-3.537 1 1 0 1 1 2 0c0 .803.312 1.557.878 2.122a2.98 2.98 0 0 0 2.122.878 1 1 0 1 1 0 2zM17.002 48.994a1 1 0 0 1-1-1V31.01a1 1 0 1 1 2 0v16.984a1 1 0 0 1-1 1z" fill="#ff9500" data-original="#000000" class=""></path><path d="M17.002 32.01a1 1 0 0 1-1-1 1 1 0 0 0-1-1 1 1 0 1 1 0-2c1.654 0 3 1.346 3 3a1 1 0 0 1-1 1zM13.001 52.994a1 1 0 1 1 0-2 3.005 3.005 0 0 0 3.001-3 1 1 0 1 1 2 0c0 2.757-2.243 5-5.001 5z" fill="#ff9500" data-original="#000000" class=""></path><path d="M15.002 30.01H7.004a1 1 0 1 1 0-2h7.998a1 1 0 1 1 0 2zM14.021 42.998H8.003a1.003 1.003 0 0 1-1-1l.001-8.99a1 1 0 0 1 1-1h5.997a1 1 0 0 1 1 1l.001 8.79a1 1 0 0 1-.981 1.2zm-5.018-2h3.999l-.001-6.99H9.004z" fill="#ff9500" data-original="#000000" class=""></path><path d="M15.002 45.998a.999.999 0 0 1-.948-.684l-1-3a1 1 0 1 1 1.897-.633l1 3a1 1 0 0 1-.949 1.317zM7.003 45.998a1 1 0 0 1-.948-1.317l1-3a1 1 0 1 1 1.897.633l-1 3c-.14.419-.53.684-.949.684z" fill="#ff9500" data-original="#000000" class=""></path><path d="M11.002 46.998c-2.433-.001-3.887-.334-4.579-1.048-.394-.407-.425-.823-.419-.983a1 1 0 0 1 1.913-.376c.204.109.956.406 3.085.407 2.13 0 2.882-.297 3.086-.406a.998.998 0 0 1 .883-.593l.032-.001a1 1 0 0 1 .998.969c.006.16-.025.577-.42.984-.692.714-2.147 1.047-4.579 1.047zM13.001 52.994H9.004a1 1 0 1 1 0-2h3.997a1 1 0 1 1 0 2zM18.002 42.998h-1a1 1 0 1 1 0-2h1a1 1 0 1 1 0 2zM5.003 42.998h-1a1 1 0 1 1 0-2h1a1 1 0 1 1 0 2zM8.005 34.008a.998.998 0 0 1-.833-.445L4.875 30.12a1 1 0 1 1 1.664-1.11l2.297 3.443a1 1 0 0 1-.831 1.555zM14.001 34.006a1.002 1.002 0 0 1-.831-1.555l2.297-3.441a1 1 0 0 1 1.664 1.11l-2.297 3.441a1 1 0 0 1-.833.445zM32 52.996a1 1 0 0 1-1-1V34.992a1 1 0 1 1 2 0v17.004a1 1 0 0 1-1 1z" fill="#ff9500" data-original="#000000" class=""></path><path d="M32 52.996a.999.999 0 0 1-.707-1.707l2-2a.999.999 0 1 1 1.414 1.414l-2 2a.997.997 0 0 1-.707.293z" fill="#ff9500" data-original="#000000" class=""></path><path d="M32 52.996a.997.997 0 0 1-.707-.293l-2-2a.999.999 0 1 1 1.414-1.414l2 2A.999.999 0 0 1 32 52.996z" fill="#ff9500" data-original="#000000" class=""></path></g></svg>