<?xml version="1.0" encoding="utf-8"?>
<!-- Generator: Adobe Illustrator 25.4.0, SVG Export Plug-In . SVG Version: 6.00 Build 0)  -->
<svg version="1.1" id="Layer_1" xmlns:svgjs="http://svgjs.com/svgjs"
	 xmlns="http://www.w3.org/2000/svg" xmlns:xlink="http://www.w3.org/1999/xlink" x="0px" y="0px" viewBox="0 0 512 512"
	 style="enable-background:new 0 0 512 512;" xml:space="preserve">
<g>
	<path d="M504,456H8c-4.4,0-8-3.6-8-8s3.6-8,8-8h496c4.4,0,8,3.6,8,8S508.4,456,504,456L504,456z"/>
	<path d="M504,456c-4.4,0-8-3.6-8-8V199.9c0-4.4,3.6-8,8-8s8,3.6,8,8V448C512,452.4,508.4,456,504,456z M344,456c-4.4,0-8-3.6-8-8
		V199.9c0-4.4,3.6-8,8-8s8,3.6,8,8V448C352,452.4,348.4,456,344,456z M168,456c-4.4,0-8-3.6-8-8V199.9c0-4.4,3.6-8,8-8s8,3.6,8,8
		V448C176,452.4,172.4,456,168,456z M8,456c-4.4,0-8-3.6-8-8V199.9c0-4.4,3.6-8,8-8s8,3.6,8,8c0,0,0,0,0,0V448
		C16,452.4,12.4,456,8,456z"/>
	<path d="M504,207.9h-16c-4.4,0-8-3.6-8-8s3.6-8,8-8h16c4.4,0,8,3.6,8,8S508.4,207.9,504,207.9z M24,207.9H8c-4.4,0-8-3.6-8-8
		s3.6-8,8-8h16c4.4,0,8,3.6,8,8S28.4,207.9,24,207.9z M360,207.9h-32c-4.4,0-8-3.6-8-8s3.6-8,8-8h32c4.4,0,8,3.6,8,8
		S364.4,207.9,360,207.9z M184,207.9h-32c-4.4,0-8-3.6-8-8s3.6-8,8-8h32c4.4,0,8,3.6,8,8S188.4,207.9,184,207.9z M376,392
		c-4.4,0-8-3.6-8-8V248.1c0-4.4,3.6-8,8-8s8,3.6,8,8V384C384,388.4,380.4,392,376,392z"/>
	<path d="M376,256.1c-4.4,0-8-3.6-8-8c0-13.2,10.8-24,24-24c4.4,0,8,3.6,8,8s-3.6,8-8,8c-4.4,0-8,3.6-8,8
		C384,252.5,380.4,256.1,376,256.1z M408,424c-10.6,0-20.8-4.2-28.3-11.7c-7.5-7.5-11.7-17.7-11.7-28.3c0-4.4,3.6-8,8-8s8,3.6,8,8
		c0,6.4,2.5,12.5,7,17c4.5,4.5,10.6,7,17,7c4.4,0,8,3.6,8,8S412.4,424,408,424z M472,392c-4.4,0-8-3.6-8-8V248.1c0-4.4,3.6-8,8-8
		s8,3.6,8,8V384C480,388.4,476.4,392,472,392z"/>
	<path d="M472,256.1c-4.4,0-8-3.6-8-8s-3.6-8-8-8s-8-3.6-8-8s3.6-8,8-8c13.2,0,24,10.8,24,24C480,252.5,476.4,256.1,472,256.1z
		 M440,424c-4.4,0-8-3.6-8-8s3.6-8,8-8c13.2,0,24-10.8,24-24c0-4.4,3.6-8,8-8s8,3.6,8,8C480,406,462.1,424,440,424z"/>
	<path d="M456,240.1h-64c-4.4,0-8-3.6-8-8s3.6-8,8-8h64c4.4,0,8,3.6,8,8S460.4,240.1,456,240.1z M448.2,344H400c-4.4,0-8-3.6-8-8
		l0-71.9c0-4.4,3.6-8,8-8h48c4.4,0,8,3.6,8,8l0,70.3c0.9,4.3-1.9,8.6-6.2,9.4C449.2,343.9,448.7,344,448.2,344L448.2,344z M408,328
		h32l0-55.9h-32L408,328z"/>
	<path d="M456,368c-3.4,0-6.5-2.2-7.6-5.5l-8-24c-1.5-4.2,0.7-8.7,4.9-10.2c4.2-1.5,8.7,0.7,10.2,4.9c0,0.1,0,0.1,0.1,0.2l8,24
		c1.4,4.2-0.9,8.7-5.1,10.1C457.7,367.8,456.9,368,456,368z M392,368c-4.4,0-8-3.6-8-8c0-0.9,0.1-1.7,0.4-2.5l8-24
		c1.3-4.2,5.8-6.5,10.1-5.2c4.2,1.3,6.5,5.8,5.2,10.1c0,0.1,0,0.1-0.1,0.2l-8,24C398.5,365.9,395.4,368,392,368L392,368z"/>
	<path d="M424,376c-19.5,0-31.1-2.7-36.6-8.4c-3.2-3.3-3.4-6.6-3.4-7.9c0.1-4.4,3.8-7.9,8.2-7.7c3.1,0.1,5.8,1.9,7.1,4.7
		c1.6,0.9,7.6,3.2,24.7,3.3c17,0,23.1-2.4,24.7-3.2c1.2-2.8,4-4.7,7.1-4.7l0.3,0c4.3,0,7.9,3.4,8,7.8c0,1.3-0.2,4.6-3.4,7.9
		C455.1,373.3,443.5,376,424,376L424,376z M440,424h-32c-4.4,0-8-3.6-8-8s3.6-8,8-8h32c4.4,0,8,3.6,8,8S444.4,424,440,424z M480,344
		h-8c-4.4,0-8-3.6-8-8s3.6-8,8-8h8c4.4,0,8,3.6,8,8S484.4,344,480,344z M376,344h-8c-4.4,0-8-3.6-8-8s3.6-8,8-8h8c4.4,0,8,3.6,8,8
		S380.4,344,376,344z M400,272.1c-2.7,0-5.2-1.3-6.7-3.6L375,241c-2.5-3.7-1.5-8.6,2.2-11.1s8.6-1.5,11.1,2.2l0,0l18.4,27.5
		c2.5,3.7,1.5,8.6-2.2,11.1C403.1,271.6,401.6,272.1,400,272.1z M448,272c-4.4,0-8-3.6-8-8.1c0-1.6,0.5-3.1,1.3-4.4l18.4-27.5
		c2.5-3.7,7.4-4.7,11.1-2.2s4.7,7.4,2.2,11.1l-18.4,27.5C453.2,270.7,450.7,272.1,448,272z M208,223.9c-4.4,0-8-3.6-8-8V80
		c0-4.4,3.6-8,8-8s8,3.6,8,8v135.9C216,220.3,212.4,223.9,208,223.9z"/>
	<path d="M208,88c-4.4,0-8-3.6-8-8c0-13.2,10.8-24,24-24c4.4,0,8,3.6,8,8s-3.6,8-8,8c-4.4,0-8,3.6-8,8C216,84.4,212.4,88,208,88z
		 M240,255.9c-10.7,0-20.7-4.2-28.3-11.7S200,226.6,200,215.9c0-4.4,3.6-8,8-8s8,3.6,8,8c0,6.4,2.5,12.4,7,17s10.6,7,17,7
		c4.4,0,8,3.6,8,8S244.4,255.9,240,255.9z M304,223.9c-4.4,0-8-3.6-8-8V80c0-4.4,3.6-8,8-8s8,3.6,8,8v135.9
		C312,220.3,308.4,223.9,304,223.9L304,223.9z"/>
	<path d="M304,88c-4.4,0-8-3.6-8-8c0-4.4-3.6-8-8-8c-4.4,0-8-3.6-8-8s3.6-8,8-8c13.2,0,24,10.8,24,24C312,84.4,308.4,88,304,88z
		 M272,255.9c-4.4,0-8-3.6-8-8s3.6-8,8-8c13.2,0,24-10.8,24-24c0-4.4,3.6-8,8-8s8,3.6,8,8C312,237.9,294,255.9,272,255.9z"/>
	<path d="M288,72h-64c-4.4,0-8-3.6-8-8s3.6-8,8-8h64c4.4,0,8,3.6,8,8S292.4,72,288,72z M232,175.9c-4.4,0-8-3.6-8-8l0-71.9
		c0-4.4,3.6-8,8-8h48c4.4,0,8,3.6,8,8l0,71.9c0,4.4-3.6,8-8,8L232,175.9z M240,104l0,55.9l32,0l0-55.9L240,104z"/>
	<path d="M288,199.9c-3.4,0-6.5-2.2-7.6-5.5l-8-24c-1.5-4.2,0.7-8.7,4.9-10.2c4.2-1.5,8.7,0.7,10.2,4.9c0,0.1,0,0.1,0.1,0.2l8,24
		c1.4,4.2-0.9,8.7-5.1,10.1C289.7,199.7,288.9,199.9,288,199.9L288,199.9z M224,199.9c-4.4,0-8-3.6-8-8c0-0.9,0.1-1.7,0.4-2.5l8-24
		c1.5-4.2,6-6.4,10.2-4.9c4.1,1.4,6.3,5.9,5,10l-8,24C230.5,197.7,227.4,199.9,224,199.9z"/>
	<path d="M256,207.9c-19.4,0-31.1-2.7-36.6-8.4c-3.2-3.3-3.4-6.6-3.4-7.9c0.1-4.4,3.8-8,8.2-7.7c3.1,0.1,5.8,1.9,7.1,4.7
		c1.6,0.9,7.6,3.2,24.7,3.2s23.1-2.4,24.7-3.2c1.2-2.8,4-4.7,7.1-4.7c4.3-0.2,8.1,3.3,8.2,7.7c0,1.3-0.2,4.6-3.4,7.9
		C287.1,205.2,275.4,207.9,256,207.9L256,207.9z M272,255.9h-32c-4.4,0-8-3.6-8-8s3.6-8,8-8h32c4.4,0,8,3.6,8,8
		S276.4,255.9,272,255.9z M312,175.9h-8c-4.4,0-8-3.6-8-8s3.6-8,8-8h8c4.4,0,8,3.6,8,8S316.4,175.9,312,175.9z M208,175.9h-8
		c-4.4,0-8-3.6-8-8s3.6-8,8-8h8c4.4,0,8,3.6,8,8S212.4,175.9,208,175.9z M232,104c-2.7,0-5.2-1.3-6.7-3.6L207,72.9
		c-2.5-3.7-1.5-8.6,2.2-11.1c3.7-2.5,8.6-1.5,11.1,2.2l18.4,27.6c2.5,3.7,1.5,8.6-2.2,11.1C235.1,103.5,233.6,104,232,104z M280,104
		c-4.4,0-8-3.6-8-8.1c0-1.6,0.5-3.1,1.3-4.4L291.7,64c2.5-3.7,7.4-4.7,11.1-2.2c3.7,2.5,4.7,7.4,2.2,11.1l-18.4,27.5
		C285.2,102.6,282.7,104,280,104z M40,392c-4.4,0-8-3.6-8-8V248.1c0-4.4,3.6-8,8-8s8,3.6,8,8V384C48,388.4,44.5,392,40,392z"/>
	<path d="M40,256.1c-4.4,0-8-3.6-8-8c0-13.2,10.8-24,24-24c4.4,0,8,3.6,8,8s-3.6,8-8,8c-4.4,0-8,3.6-8,8
		C48,252.5,44.4,256.1,40,256.1z M72,424c-10.6,0-20.8-4.2-28.3-11.7C36.2,404.8,32,394.6,32,384c0-4.4,3.6-8,8-8s8,3.6,8,8
		c0,6.4,2.5,12.5,7,17c4.5,4.5,10.6,7,17,7c4.4,0,8,3.6,8,8S76.5,424,72,424z M136,392c-4.4,0-8-3.6-8-8V248.1c0-4.4,3.6-8,8-8
		s8,3.6,8,8V384C144,388.4,140.4,392,136,392z"/>
	<path d="M136,256.1c-4.4,0-8-3.6-8-8s-3.6-8-8-8s-8-3.6-8-8s3.6-8,8-8c13.2,0,24,10.8,24,24C144,252.5,140.4,256.1,136,256.1z
		 M104,424c-4.4,0-8-3.6-8-8s3.6-8,8-8c13.2,0,24-10.8,24-24c0-4.4,3.6-8,8-8s8,3.6,8,8C144,406,126.1,424,104,424z"/>
	<path d="M120,240.1H56c-4.4,0-8-3.6-8-8s3.6-8,8-8h64c4.4,0,8,3.6,8,8S124.4,240.1,120,240.1z M112.2,344H64c-4.4,0-8-3.6-8-8
		l0-71.9c0-4.4,3.6-8,8-8h48c4.4,0,8,3.6,8,8l0,70.3c0.9,4.3-1.9,8.6-6.2,9.4C113.2,343.9,112.7,344,112.2,344L112.2,344z M72,328
		h32l0-55.9H72L72,328z"/>
	<path d="M120,368c-3.4,0-6.5-2.2-7.6-5.5l-8-24c-1.5-4.2,0.7-8.7,4.9-10.2c4.2-1.5,8.7,0.7,10.2,4.9c0,0.1,0,0.1,0.1,0.2l8,24
		c1.4,4.2-0.9,8.7-5.1,10.1C121.7,367.8,120.9,368,120,368L120,368z M56,368c-4.4,0-8-3.6-8-8c0-0.9,0.1-1.7,0.4-2.5l8-24
		c1.3-4.2,5.8-6.5,10.1-5.2s6.5,5.8,5.2,10.1c0,0.1,0,0.1-0.1,0.2l-8,24C62.5,365.9,59.4,368,56,368z"/>
	<path d="M88,376c-19.5,0-31.1-2.7-36.6-8.4c-3.2-3.3-3.4-6.6-3.4-7.9c0.1-4.4,3.8-7.9,8.2-7.7c3.1,0.1,5.8,1.9,7.1,4.7
		C65,357.6,71,360,88,360c17,0,23.1-2.4,24.7-3.2c1.2-2.8,4-4.7,7.1-4.7l0.3,0c4.3,0,7.9,3.4,8,7.8c0,1.3-0.2,4.6-3.4,7.9
		C119.1,373.3,107.5,376,88,376L88,376z M104,424H72c-4.4,0-8-3.6-8-8s3.6-8,8-8h32c4.4,0,8,3.6,8,8S108.4,424,104,424z M144,344h-8
		c-4.4,0-8-3.6-8-8s3.6-8,8-8h8c4.4,0,8,3.6,8,8S148.4,344,144,344z M40,344h-8c-4.4,0-8-3.6-8-8s3.6-8,8-8h8c4.4,0,8,3.6,8,8
		S44.4,344,40,344z M64,272.1c-2.7,0-5.2-1.3-6.7-3.6L39,241c-2.5-3.7-1.5-8.6,2.2-11.1c3.7-2.5,8.6-1.5,11.1,2.2l18.4,27.5
		c2.5,3.7,1.5,8.6-2.2,11.1C67.2,271.6,65.6,272.1,64,272.1z M112,272c-4.4,0-8-3.6-8-8.1c0-1.6,0.5-3.1,1.3-4.4l18.4-27.5
		c2.5-3.7,7.4-4.7,11.1-2.2s4.7,7.4,2.2,11.1l0,0l-18.4,27.5C117.2,270.7,114.7,272.1,112,272z M256,424c-4.4,0-8-3.6-8-8v-136
		c0-4.4,3.6-8,8-8s8,3.6,8,8v136C264,420.4,260.4,424,256,424L256,424z"/>
	<path d="M256,424c-4.4,0-8-3.6-8-8c0-2.1,0.8-4.2,2.4-5.7l16-16c3.1-3.1,8.2-3.1,11.3,0s3.1,8.2,0,11.3l0,0l-16,16
		C260.2,423.1,258.1,424,256,424z"/>
	<path d="M256,424c-2.1,0-4.2-0.8-5.7-2.3l-16-16c-3.1-3.1-3.1-8.2,0-11.3c3.1-3.1,8.2-3.1,11.3,0l0,0l16,16c3.1,3.1,3.1,8.2,0,11.3
		C260.2,423.1,258.1,424,256,424z"/>
</g>
</svg>
