<svg xmlns="http://www.w3.org/2000/svg" data-name="Layer 1" viewBox="0 0 50 62.5" x="0px" y="0px"><title>Partners</title><path d="M44.22,24.8,37.69,13.31a.77.77,0,0,0-1-.29l-3,1.71a.78.78,0,0,0-.29,1.06L34,17a2.09,2.09,0,0,1-1.45.35,9.31,9.31,0,0,1-1.4-.32c-2.2-.59-5.87-1.59-9.47,0a7,7,0,0,0-1.89,1.17c-.33,0-1-.12-1.69-.22a5.54,5.54,0,0,1-1.89-1.26l.42-.74a.78.78,0,0,0-.29-1.06l-3-1.71a.76.76,0,0,0-.59-.07.74.74,0,0,0-.47.36L5.77,25a.76.76,0,0,0-.07.59.74.74,0,0,0,.36.47l3,1.71a.75.75,0,0,0,.38.1.76.76,0,0,0,.21,0,.74.74,0,0,0,.47-.36l.71-1.24a22.85,22.85,0,0,0,1.91,2.21l-.16.23a2,2,0,0,0-.36,1.14,2,2,0,0,0,.83,1.62,1.89,1.89,0,0,0,1.14.37h.08a2,2,0,0,0,0,.6,2,2,0,0,0,.81,1.28,1.92,1.92,0,0,0,1.14.37,2,2,0,0,0,.6-.09,2,2,0,0,0,2.66,1.49,2,2,0,0,0,.78,1.15A1.92,1.92,0,0,0,21.4,37l.34,0a1.94,1.94,0,0,0,1.28-.8l0-.06h0a8.81,8.81,0,0,0,3.67,1A3.92,3.92,0,0,0,28,36.9a2.86,2.86,0,0,0,1.67-1.36h0l.33,0a2.75,2.75,0,0,0,1.57-.48,2.7,2.7,0,0,0,1.06-1.59,2.53,2.53,0,0,0,1.62-.83,3.38,3.38,0,0,0,.69-1.22,2.9,2.9,0,0,0,2-1.07,2.12,2.12,0,0,0,.29-1.63,2.16,2.16,0,0,0-.26-.65h0a6.85,6.85,0,0,0,2.36-1.84l.58,1a.79.79,0,0,0,.47.37.76.76,0,0,0,.21,0,.86.86,0,0,0,.38-.1l3-1.71a.79.79,0,0,0,.37-.47A.76.76,0,0,0,44.22,24.8ZM10.36,25l0,0h0l-1,1.69L6.75,25.28l6.32-11.09,2.61,1.49ZM15,30.38h0a1,1,0,0,1-1.35.22,1,1,0,0,1-.23-1.36l.36-.52.46-.64a1,1,0,0,1,1.37-.23,1,1,0,0,1,.31,1.24h0Zm2.16,2.07-.13.18a1,1,0,1,1-1.59-1.14L15.8,31h0l.82-1.15a0,0,0,0,1,0,0l1.08-1.52A1,1,0,0,1,19.08,28a.94.94,0,0,1,.4.64,1,1,0,0,1-.17.73l-.36.51Zm2.65,1.38-.24.33A1,1,0,1,1,18,33l1.79-2.52,0,0a1,1,0,0,1,1.73.45.91.91,0,0,1-.17.73l-.6.85Zm3.36.39-.63.87-.08.12-.25.34a1,1,0,0,1-1.67-1l.08-.13.95-1.33,0,0a1,1,0,0,1,1.35-.21,1,1,0,0,1,.23,1.37Zm12.9-4.4a2.14,2.14,0,0,1-1.45.65h0l-5.91-3.7a.5.5,0,0,0-.69.15.49.49,0,0,0,.16.69l5.76,3.62a2.28,2.28,0,0,1-.47.78,1.63,1.63,0,0,1-1.17.51l0,0L27.08,29.6a.5.5,0,0,0-.49.88l5,2.79a1.65,1.65,0,0,1-.66,1,1.83,1.83,0,0,1-1.47.24h-.06a.72.72,0,0,0-.1-.08l-4-2a.5.5,0,0,0-.45.89l3.83,1.93a1.92,1.92,0,0,1-1,.75,5.85,5.85,0,0,1-4-.71h0L24,34.8a2,2,0,0,0,.34-1.48,2,2,0,0,0-1.86-1.64,2.08,2.08,0,0,0,.06-.93,2,2,0,0,0-.8-1.28,2,2,0,0,0-1.24-.37,1.89,1.89,0,0,0,0-.58,2,2,0,0,0-3.57-.82l-.09.12a1.82,1.82,0,0,0-.64-.77,2,2,0,0,0-2.76.46l-.08.1h0a23.75,23.75,0,0,1-2-2.34h0l4.36-7.66h0A5.74,5.74,0,0,0,18,19l1,.14a5.86,5.86,0,0,0-1.08,2.28,2.22,2.22,0,0,0,.59,2.09,2.18,2.18,0,0,0,2,.6,3.37,3.37,0,0,0,1.94-1.17l1-1.33,1.41-.37a42,42,0,0,1,10.81,7l.06,0h0a.49.49,0,0,0,.1.09,1,1,0,0,1,.39.62A1.13,1.13,0,0,1,36.07,29.82Zm.13-2.49a42,42,0,0,0-11.07-7.09.66.66,0,0,0-.28,0,.71.71,0,0,0-.2,0l-1.55.41a.83.83,0,0,0-.42.28l-1,1.38a2.46,2.46,0,0,1-1.37.82,1.2,1.2,0,0,1-1.1-.33,1.26,1.26,0,0,1-.33-1.17,4.79,4.79,0,0,1,1.48-2.51,6.72,6.72,0,0,1,1.81-1.15c3.26-1.43,6.73-.49,8.8.07a9.67,9.67,0,0,0,1.57.35,3.07,3.07,0,0,0,2-.48l4.22,7.42A5.8,5.8,0,0,1,36.19,27.33Zm4.44-.74-.94-1.65a0,0,0,0,0,0,0l-4.41-7.75-.95-1.67L36.94,14l6.3,11.1Z"/><text x="0" y="65" fill="#000000" font-size="5px" font-weight="bold" font-family="'Helvetica Neue', Helvetica, Arial-Unicode, Arial, Sans-serif">Created by Sliman Faour</text><text x="0" y="70" fill="#000000" font-size="5px" font-weight="bold" font-family="'Helvetica Neue', Helvetica, Arial-Unicode, Arial, Sans-serif">from the Noun Project</text></svg>