<svg xmlns="http://www.w3.org/2000/svg" viewBox="0 0 93 74.53"><defs><style>.cls-1{fill:#ff9500;}</style></defs><g id="Layer_2" data-name="Layer 2"><g id="Layer_1-2" data-name="Layer 1"><path d="M88.17,18.55l-3.38-.9a6.54,6.54,0,0,0-6.32-5H66.27L19.75.22a6.52,6.52,0,0,0-8,4.6l-2.1,7.86h-2a6.52,6.52,0,0,0-6.5,6.51V44.58L.22,48a6.54,6.54,0,0,0,.91,5.35V63.9a6.53,6.53,0,0,0,6.51,6.51h51l14.56,3.9a6.53,6.53,0,0,0,7.94-4.49A6.52,6.52,0,0,0,85,63.9V55.62l7.8-29.1A6.51,6.51,0,0,0,88.17,18.55Z"/><path class="cls-1" d="M82.39,63.9a3.91,3.91,0,0,1-3.92,3.92H7.63A3.93,3.93,0,0,1,3.71,63.9V19.19a3.93,3.93,0,0,1,3.92-3.93H78.47a3.93,3.93,0,0,1,3.92,3.93Z"/><path d="M18.15,34.89H27.4a4,4,0,0,1,4,4v5.24a4,4,0,0,1-4,4H18.15a4,4,0,0,1-4-4V38.92A4,4,0,0,1,18.15,34.89Z"/><path d="M38,31.19a1.29,1.29,0,0,1,1.29-1.29H53.89a1.29,1.29,0,0,1,0,2.58H39.32A1.29,1.29,0,0,1,38,31.19Z"/><path d="M61.78,41.19H39.32a1.29,1.29,0,0,1,0-2.58H61.78a1.29,1.29,0,0,1,0,2.58Z"/><path d="M52,58.68A1.29,1.29,0,0,1,50.71,60H10.32a1.29,1.29,0,0,1-.07-2.58H50.71A1.29,1.29,0,0,1,52,58.68Z"/><path d="M60.36,58.68A1.29,1.29,0,0,1,59.07,60H55.42a1.29,1.29,0,1,1-.07-2.58h3.72a1.29,1.29,0,0,1,1.29,1.29Z"/><path d="M68.71,58.68A1.29,1.29,0,0,1,67.42,60H63.78a1.29,1.29,0,0,1-.08-2.58h3.72A1.29,1.29,0,0,1,68.71,58.68Z"/><path d="M77.07,58.68A1.29,1.29,0,0,1,75.78,60H72.13a1.29,1.29,0,0,1,0-2.58h3.65A1.29,1.29,0,0,1,77.07,58.68Z"/><path d="M9,21.17a1.29,1.29,0,0,1,1.29-1.29h8.75a1.3,1.3,0,0,1,.07,2.59H10.33A1.29,1.29,0,0,1,9,21.17Z"/><path d="M9,26.84a1.29,1.29,0,0,1,1.29-1.3h8.75a1.3,1.3,0,0,1,.07,2.59H10.33A1.29,1.29,0,0,1,9,26.84Z"/></g></g></svg>