<?xml version="1.0" encoding="utf-8"?>
<!-- Generator: Adobe Illustrator 25.4.0, SVG Export Plug-In . SVG Version: 6.00 Build 0)  -->
<svg version="1.1" id="Layer_1" xmlns="http://www.w3.org/2000/svg" xmlns:xlink="http://www.w3.org/1999/xlink" x="0px" y="0px"
	 viewBox="0 0 600 106.9" style="enable-background:new 0 0 600 106.9;" xml:space="preserve">
<style type="text/css">
	.st0{fill:#00C3F7;}
	.st1{fill:#011B33;}
</style>
<path class="st0" d="M85.4,10.2L5,10.2c-2.7,0-5,2.3-5,5.1l0,9.1c0,2.8,2.3,5.1,5,5.1l80.4,0c2.8,0,5-2.3,5.1-5.1l0-9
	C90.5,12.5,88.2,10.2,85.4,10.2L85.4,10.2z M85.4,60.7L5,60.7c-1.3,0-2.6,0.5-3.5,1.5c-1,1-1.5,2.2-1.5,3.6l0,9.1
	C0,77.7,2.3,80,5,80l80.4,0c2.8,0,5-2.2,5.1-5.1l0-9.1C90.4,62.9,88.2,60.7,85.4,60.7z M50.3,85.9L5,85.9c-1.3,0-2.6,0.5-3.5,1.5
	S0,89.6,0,91l0,9.1c0,2.8,2.3,5.1,5,5.1l45.2,0c2.8,0,5-2.3,5-5l0-9.1C55.3,88.1,53.1,85.8,50.3,85.9z M90.5,35.4L5,35.4
	c-1.3,0-2.6,0.5-3.5,1.5S0,39.1,0,40.5l0,9.1c0,2.8,2.3,5.1,5,5.1l85.4,0c2.8,0,5-2.3,5-5.1l0-9.1C95.5,37.7,93.2,35.5,90.5,35.4z"
	/>
<path class="st1" d="M184,30.6c-2.5-2.6-5.4-4.6-8.7-6c-3.3-1.4-6.8-2.1-10.4-2.1c-3.5-0.1-6.9,0.7-10.1,2.2c-2.1,1-4,2.4-5.6,4.1
	l0-1.6c0-0.8-0.3-1.6-0.8-2.2c-0.5-0.6-1.3-1-2.2-1l-11.1,0c-0.8,0-1.6,0.3-2.1,1c-0.6,0.6-0.9,1.4-0.8,2.2l0,74.8
	c0,0.8,0.3,1.6,0.8,2.2c0.6,0.6,1.3,0.9,2.1,0.9l11.4,0c0.8,0,1.5-0.3,2.1-0.9c0.6-0.5,1-1.3,0.9-2.2l0-25.6c1.6,1.8,3.7,3.1,6,3.9
	c3,1.1,6.1,1.7,9.3,1.7c3.6,0,7.2-0.7,10.5-2.1s6.3-3.4,8.8-6c2.6-2.7,4.6-5.9,6-9.4c1.6-3.9,2.3-8.1,2.2-12.3
	c0.1-4.2-0.7-8.4-2.2-12.4C188.6,36.5,186.6,33.3,184,30.6L184,30.6z M173.8,57.7c-0.6,1.6-1.5,3-2.7,4.3c-2.3,2.5-5.6,3.9-9,3.9
	c-1.7,0-3.4-0.3-5-1.1c-1.5-0.7-2.9-1.6-4.1-2.8c-1.2-1.2-2.1-2.7-2.7-4.3c-1.3-3.4-1.3-7.1,0-10.5c0.6-1.6,1.6-3,2.7-4.2
	c1.2-1.2,2.6-2.2,4.1-2.9c1.6-0.7,3.3-1.1,5-1.1c1.8,0,3.4,0.3,5.1,1.1c1.5,0.7,2.9,1.6,4,2.8c1.2,1.2,2,2.6,2.7,4.2
	C175.1,50.6,175,54.3,173.8,57.7z M253.4,24.1l-11.3,0c-0.8,0-1.6,0.3-2.1,0.9c-0.6,0.6-0.9,1.4-0.9,2.3l0,1.4
	c-1.4-1.7-3.2-3-5.1-3.9c-3.1-1.5-6.5-2.2-9.9-2.2c-7.3,0-14.2,2.9-19.4,8c-2.7,2.7-4.8,5.9-6.2,9.4c-1.6,3.9-2.4,8.1-2.3,12.4
	c-0.1,4.2,0.7,8.4,2.3,12.4c1.5,3.5,3.5,6.7,6.2,9.4c5.1,5.2,12.1,8.1,19.3,8.1c3.4,0.1,6.8-0.7,9.9-2.2c1.9-1,3.8-2.3,5.2-3.9
	l0,1.5c0,0.8,0.3,1.6,0.9,2.2c0.6,0.5,1.3,0.9,2.1,0.9l11.3,0c0.8,0,1.6-0.3,2.1-0.9c0.6-0.6,0.9-1.4,0.9-2.2l0-50.3
	c0-0.8-0.3-1.6-0.8-2.2C255,24.5,254.2,24.1,253.4,24.1L253.4,24.1z M238.1,57.7c-0.6,1.6-1.5,3-2.7,4.3c-1.2,1.2-2.5,2.2-4,2.9
	c-3.2,1.5-6.9,1.5-10.1,0c-1.5-0.7-2.9-1.7-4.1-2.9c-1.2-1.2-2.1-2.7-2.7-4.3c-1.2-3.4-1.2-7.1,0-10.5c0.6-1.6,1.5-2.9,2.7-4.2
	c1.2-1.2,2.5-2.2,4.1-2.9c3.2-1.5,6.9-1.5,10,0c1.5,0.7,2.9,1.6,4,2.8c1.1,1.2,2,2.6,2.7,4.2C239.4,50.6,239.4,54.3,238.1,57.7z
	 M366,50.9c-1.6-1.4-3.5-2.6-5.5-3.4c-2.1-0.9-4.4-1.5-6.6-2l-8.6-1.7c-2.2-0.4-3.8-1-4.6-1.7c-0.7-0.5-1.2-1.3-1.2-2.2
	c0-0.9,0.5-1.7,1.6-2.4c1.5-0.8,3.1-1.2,4.8-1.1c2.2,0,4.4,0.5,6.4,1.3c2,0.9,3.9,1.8,5.7,3c2.5,1.6,4.7,1.3,6.2-0.5l4.1-4.7
	c0.8-0.8,1.2-1.8,1.3-2.9c-0.1-1.2-0.7-2.2-1.6-3c-1.7-1.5-4.5-3.1-8.2-4.7c-3.7-1.6-8.4-2.4-13.9-2.4c-3.4-0.1-6.7,0.4-9.9,1.4
	c-2.7,0.9-5.3,2.2-7.6,3.9c-2.1,1.6-3.7,3.6-4.9,6c-1.1,2.3-1.7,4.8-1.7,7.3c0,4.7,1.4,8.5,4.2,11.3s6.5,4.7,11.1,5.6l9,2
	c1.9,0.3,3.9,0.9,5.7,1.8c1,0.4,1.6,1.4,1.6,2.5c0,1-0.5,1.9-1.6,2.7c-1.1,0.8-2.9,1.3-5.3,1.3c-2.4,0-4.9-0.5-7.1-1.6
	c-2.1-1-4-2.3-5.8-3.8c-0.8-0.6-1.6-1.1-2.6-1.5c-1-0.3-2.3,0-3.6,1.1l-4.9,3.7c-1.4,1-2.1,2.7-1.7,4.3c0.3,1.7,1.6,3.3,4.1,5.2
	c6.2,4.2,13.6,6.4,21.1,6.2c3.5,0,7-0.4,10.3-1.4c2.9-0.9,5.6-2.2,8-4c2.2-1.6,4-3.7,5.2-6.2c1.2-2.4,1.8-5,1.8-7.7
	c0.1-2.4-0.4-4.8-1.4-7C368.9,54,367.6,52.3,366,50.9L366,50.9z M415.4,64.6c-0.5-0.9-1.4-1.5-2.5-1.7c-1,0-2.1,0.3-2.9,0.9
	c-1.4,0.9-3,1.4-4.6,1.5c-0.5,0-1.1-0.1-1.6-0.2c-0.6-0.1-1.1-0.4-1.5-0.8c-0.5-0.5-0.9-1.1-1.2-1.7c-0.4-1-0.6-2-0.5-3l0-20.5
	l14.6,0c0.9,0,1.7-0.4,2.3-1c0.6-0.6,1-1.3,1-2.2l0-8.7c0-0.9-0.3-1.7-1-2.2c-0.6-0.6-1.4-0.9-2.2-0.9l-14.7,0l0-14
	c0-0.8-0.3-1.7-0.9-2.2c-0.6-0.5-1.3-0.8-2.1-0.9l-11.4,0c-0.8,0-1.6,0.3-2.2,0.9s-1,1.4-1,2.2l0,14l-6.5,0c-0.8,0-1.6,0.3-2.2,1
	c-0.5,0.6-0.8,1.4-0.8,2.2l0,8.7c0,0.8,0.3,1.6,0.8,2.2c0.5,0.7,1.3,1,2.2,1l6.5,0l0,24.4c-0.1,2.9,0.5,5.8,1.7,8.4
	c1.1,2.2,2.5,4.1,4.4,5.7c1.8,1.5,3.9,2.6,6.2,3.2c2.3,0.7,4.7,1.1,7.1,1.1c3.1,0,6.3-0.5,9.3-1.5c2.8-0.9,5.3-2.5,7.3-4.6
	c1.3-1.3,1.4-3.4,0.4-4.9L415.4,64.6z M477.2,24.1l-11.3,0c-0.8,0-1.5,0.3-2.1,0.9c-0.6,0.6-0.9,1.4-0.9,2.3v1.4
	c-1.4-1.7-3.1-3-5.1-3.9c-3.1-1.5-6.5-2.2-9.9-2.2c-7.3,0-14.2,2.9-19.4,8c-2.7,2.7-4.8,5.9-6.2,9.4c-1.6,3.9-2.4,8.1-2.3,12.3
	c-0.1,4.2,0.7,8.4,2.3,12.4c1.4,3.5,3.6,6.7,6.2,9.4c5.1,5.2,12,8.1,19.3,8.1c3.4,0.1,6.8-0.7,9.9-2.1c2-1,3.8-2.3,5.2-3.9l0,1.5
	c0,0.8,0.3,1.6,0.9,2.1c0.6,0.6,1.3,0.9,2.1,0.9l11.3,0c1.7,0,3-1.3,3-3l0-50.3c0-0.8-0.3-1.6-0.8-2.2
	C478.9,24.5,478.1,24.1,477.2,24.1L477.2,24.1z M462,57.7c-0.6,1.6-1.5,3-2.7,4.3c-1.2,1.2-2.5,2.2-4,2.9c-1.6,0.7-3.3,1.1-5.1,1.1
	c-1.8,0-3.4-0.4-5-1.1c-1.5-0.7-2.9-1.7-4.1-2.9c-1.2-1.2-2.1-2.7-2.6-4.3c-1.2-3.4-1.2-7.1,0-10.5c0.6-1.6,1.5-3,2.6-4.2
	c1.2-1.2,2.6-2.2,4.1-2.9c1.6-0.7,3.3-1.1,5-1.1c1.7,0,3.4,0.3,5.1,1.1c1.5,0.7,2.8,1.6,4,2.8c1.2,1.2,2.1,2.6,2.7,4.2
	C463.3,50.5,463.3,54.3,462,57.7z M539.2,63.8l-6.5-5c-1.2-1-2.4-1.3-3.4-0.9c-0.9,0.4-1.7,1-2.4,1.7c-1.4,1.7-3.1,3.2-4.9,4.5
	c-2,1.1-4.1,1.7-6.3,1.5c-2.6,0-5-0.7-7.1-2.2c-2.1-1.5-3.7-3.5-4.5-6c-0.6-1.7-0.9-3.4-0.9-5.1c0-1.8,0.3-3.5,0.9-5.3
	c0.6-1.6,1.4-3,2.6-4.2c1.2-1.2,2.5-2.2,4-2.8c1.6-0.7,3.3-1.1,5.1-1.1c2.2-0.1,4.4,0.5,6.3,1.6c1.9,1.2,3.5,2.7,4.9,4.5
	c0.6,0.7,1.4,1.3,2.3,1.7c1,0.4,2.2,0.1,3.4-0.9l6.5-4.9c0.8-0.5,1.4-1.3,1.7-2.2c0.4-1,0.3-2.1-0.3-3c-2.5-3.9-5.9-7.1-10-9.4
	c-4.3-2.4-9.4-3.7-15.1-3.7c-4,0-8,0.8-11.8,2.3c-3.6,1.5-6.8,3.6-9.5,6.3c-2.7,2.7-4.9,5.9-6.4,9.5c-3.1,7.5-3.1,15.9,0,23.4
	c1.5,3.5,3.6,6.8,6.4,9.4c5.7,5.6,13.3,8.6,21.3,8.6c5.7,0,10.8-1.3,15.1-3.7c4.1-2.3,7.6-5.5,10.1-9.5c0.5-0.9,0.6-2,0.3-2.9
	C540.6,65.2,540,64.4,539.2,63.8L539.2,63.8z M599.4,75.5l-17.9-26.2l15.3-20.2c0.7-0.9,1-2.2,0.6-3.3c-0.3-0.8-1-1.6-2.9-1.6
	l-12.1,0c-0.7,0-1.4,0.2-2,0.5c-0.8,0.4-1.4,1-1.8,1.7l-12.2,17.1l-2.9,0l0-40.4c0-0.8-0.3-1.6-0.9-2.2S561.3,0,560.5,0l-11.3,0
	c-0.8,0-1.6,0.3-2.2,0.9c-0.6,0.6-0.9,1.3-0.9,2.2l0,74.5c0,0.9,0.3,1.6,0.9,2.2s1.4,0.9,2.2,0.9l11.3,0c0.8,0,1.6-0.3,2.1-0.9
	c0.6-0.6,0.9-1.4,0.9-2.2l0-19.7l3.2,0L580,78.3c0.8,1.5,2.3,2.4,3.9,2.4l12.7,0c1.9,0,2.7-0.9,3.1-1.7
	C600.2,77.8,600.1,76.5,599.4,75.5L599.4,75.5z M317.6,24.1l-12.7,0c-1,0-1.9,0.3-2.6,1c-0.6,0.6-1,1.3-1.2,2.1L291.7,62l-2.3,0
	l-10-34.8c-0.2-0.7-0.5-1.4-1-2.1c-0.6-0.7-1.4-1.1-2.3-1.1l-12.9,0c-1.7,0-2.7,0.5-3.2,1.7c-0.3,1-0.3,2.1,0,3.1l16,49
	c0.3,0.7,0.6,1.5,1.2,2c0.6,0.6,1.5,0.9,2.4,0.9l6.8,0l-0.6,1.6l-1.5,4.5c-0.5,1.4-1.3,2.6-2.5,3.5c-1.1,0.8-2.4,1.3-3.8,1.2
	c-1.2,0-2.3-0.3-3.4-0.7c-1.1-0.5-2.1-1.1-3-1.8c-0.8-0.6-1.8-0.9-2.9-0.9l-0.1,0c-1.2,0.1-2.3,0.7-2.9,1.8l-4,5.9
	c-1.6,2.6-0.7,4.2,0.3,5.1c2.2,2,4.7,3.5,7.5,4.4c3.1,1.1,6.3,1.6,9.5,1.6c5.8,0,10.6-1.6,14.3-4.7c3.8-3.4,6.7-7.8,8.1-12.8
	L320,28.8c0.4-1.1,0.5-2.2,0.1-3.2C320,24.9,319.3,24.1,317.6,24.1L317.6,24.1z"/>
</svg>
