<?xml version="1.0" encoding="utf-8"?>
<!-- Generator: Adobe Illustrator 25.4.0, SVG Export Plug-In . SVG Version: 6.00 Build 0)  -->
<svg version="1.1" id="Layer_1" xmlns="http://www.w3.org/2000/svg" xmlns:xlink="http://www.w3.org/1999/xlink" x="0px" y="0px"
	 viewBox="0 0 122.6 122.9" style="enable-background:new 0 0 122.6 122.9;" xml:space="preserve">
<style type="text/css">
	.st0{fill-rule:evenodd;clip-rule:evenodd;fill:#FF9500;}
	.st1{fill-rule:evenodd;clip-rule:evenodd;}
	.st2{fill-rule:evenodd;clip-rule:evenodd;fill:#F7F7F7;}
	.st3{fill-rule:evenodd;clip-rule:evenodd;fill:#F7F6F5;}
</style>
<rect x="26.7" y="26.8" class="st0" width="25.2" height="25.1"/>
<path class="st1" d="M35.7,0H23.1c-3,0-6,0.6-8.8,1.8c-2.8,1.2-5.3,2.9-7.5,5l0,0c-2.1,2.1-3.8,4.7-5,7.5C0.6,17,0,20,0,23.1v15.6
	h10.2V23.1c0-1.7,0.4-3.3,1-4.9c0.6-1.6,1.6-3,2.8-4.2l0,0c2.4-2.4,5.7-3.8,9.1-3.8h12.6V0z"/>
<path class="st1" d="M99.5,0h-8.2v10.2h8.2c1.7,0,3.3,0.4,4.9,1c1.6,0.6,3,1.6,4.2,2.8l0.3,0.4l0,0c1,1.1,1.9,2.4,2.4,3.8
	c0.7,1.5,1,3.2,1,4.9v15.6h10.2V23.1c0-5.9-2.3-11.7-6.4-15.9l0,0l-0.4-0.4c-2.1-2.1-4.7-3.8-7.5-5C105.6,0.6,102.6,0,99.5,0z"/>
<path class="st1" d="M122.6,99.8V82.5h-10.2v17.3c0,1.7-0.3,3.3-1,4.9c-0.7,1.6-1.6,3-2.8,4.2c-2.4,2.4-5.7,3.8-9.1,3.8h-8.2v10.2
	h8.2c6.1,0,12-2.4,16.3-6.8c2.1-2.1,3.8-4.7,5-7.5C122,105.8,122.6,102.8,122.6,99.8L122.6,99.8z"/>
<path class="st1" d="M23.1,122.9h12.6v-10.2H23.1c-3.4,0-6.7-1.4-9.1-3.8l-0.3-0.2c-1.1-1.2-2-2.6-2.6-4.1c-0.6-1.5-0.9-3.1-0.9-4.7
	V82.5H0v17.3c0,2.9,0.6,5.8,1.7,8.6c1.1,2.7,2.7,5.3,4.8,7.4l0.3,0.3c2.1,2.1,4.7,3.8,7.5,5C17.1,122.3,20,122.9,23.1,122.9
	L23.1,122.9z"/>
<rect x="89.6" y="89.8" class="st1" width="6.4" height="6.3"/>
<polygon class="st1" points="77.2,89.8 83.7,89.8 83.7,95.8 70.8,95.8 70.8,83.5 77,83.5 77,77.2 83.3,77.2 83.3,64.8 89.8,64.8 
	89.8,70.9 95.9,70.9 95.9,77.2 89.8,77.2 89.8,83.5 77.2,83.5 77.2,89.8 "/>
<polygon class="st1" points="58.1,77.1 64.4,77.1 64.4,70.8 58.4,70.8 58.4,64.5 64.4,64.5 64.4,58.1 58.2,58.1 58.2,64.5 
	51.8,64.5 51.8,58.1 58.1,58.1 58.1,39.3 64.6,39.3 64.6,58.1 70.8,58.1 70.8,64.4 76.9,64.4 76.9,58.1 83.3,58.1 83.3,64.4 
	77.2,64.4 77.2,70.8 70.8,70.8 70.8,83.2 64.6,83.2 64.6,95.8 58.1,95.8 "/>
<rect x="89.5" y="58.1" class="st1" width="6.4" height="6.3"/>
<rect x="39.2" y="58.1" class="st1" width="6.4" height="6.3"/>
<rect x="26.7" y="58.1" class="st1" width="6.4" height="6.3"/>
<rect x="58.1" y="26.8" class="st1" width="6.4" height="6.3"/>
<rect x="26.6" y="70.9" class="st0" width="25.2" height="25.1"/>
<rect x="32.7" y="77" class="st2" width="13" height="12.9"/>
<polygon class="st0" points="70.7,26.8 95.9,26.8 95.9,51.9 70.7,51.9 70.7,26.8 "/>
<polygon class="st3" points="76.8,32.9 89.8,32.9 89.8,45.8 76.8,45.8 76.8,32.9 "/>
<polygon class="st2" points="32.8,32.9 45.8,32.9 45.8,45.8 32.8,45.8 32.8,32.9 "/>
</svg>
