<?xml version="1.0" encoding="utf-8"?>
<!-- Generator: Adobe Illustrator 25.4.0, SVG Export Plug-In . SVG Version: 6.00 Build 0)  -->
<svg version="1.1" id="Layer_1" xmlns="http://www.w3.org/2000/svg" xmlns:xlink="http://www.w3.org/1999/xlink" x="0px" y="0px"
	 viewBox="0 0 122.6 122.9" style="enable-background:new 0 0 122.6 122.9;" xml:space="preserve">
<style type="text/css">
	.st0{fill:#FF9500;}
</style>
<path d="M23.4,0h13v11.1h-13c-3.2,0-6.3,1.3-8.6,3.6l0,0c-2.3,2.3-3.6,5.4-3.6,8.6v16H0V23.4c0-6.2,2.5-12.1,6.9-16.5l0,0
	C11.2,2.5,17.2,0,23.4,0z"/>
<path class="st0" d="M3.2,54.9h116.1c1.8,0,3.2,1.5,3.2,3.3v6.5c0,1.8-1.4,3.3-3.2,3.3H3.2C1.4,68,0,66.5,0,64.7v-6.5
	C0,56.4,1.5,54.9,3.2,54.9z"/>
<path d="M90.6,0h8.7c6.2,0,12.1,2.5,16.5,6.9l0,0c4.4,4.4,6.9,10.3,6.9,16.5v15.9h-11.1V23.4c0-3.2-1.3-6.3-3.6-8.6l0,0
	c-2.3-2.3-5.4-3.6-8.6-3.6h-8.7V0z"/>
<path d="M122.6,81.8v17.7c0,12.9-10.5,23.3-23.4,23.4h-8.6v-11.1h8.7c6.7,0,12.2-5.5,12.2-12.2V81.8H122.6z"/>
<path d="M36.3,122.8h-13c-6.2,0-12.1-2.5-16.5-6.8l-0.3-0.3C2.4,111.3,0,105.5,0,99.5V81.8h11.1v17.7c0,3.1,1.2,6.1,3.4,8.4l0.2,0.2
	c2.3,2.3,5.4,3.6,8.6,3.6h13L36.3,122.8L36.3,122.8z"/>
</svg>
