<?xml version="1.0" encoding="utf-8"?>
<!-- Generator: Adobe Illustrator 25.4.0, SVG Export Plug-In . SVG Version: 6.00 Build 0)  -->
<svg version="1.1" id="Layer_1" xmlns="http://www.w3.org/2000/svg" xmlns:xlink="http://www.w3.org/1999/xlink" x="0px" y="0px"
	 viewBox="0 0 735.1 1147.7" style="enable-background:new 0 0 735.1 1147.7;" xml:space="preserve">
<style type="text/css">
	.st0{clip-path:url(#SVGID_00000014608783029614936530000016495192605071134391_);}
	.st1{clip-path:url(#SVGID_00000070107823745710423780000007618303991281101983_);}
	.st2{clip-path:url(#SVGID_00000129165996958024815010000014670411140156766361_);}
	.st3{clip-path:url(#SVGID_00000052095748293019000240000003929521141349061015_);}
	.st4{clip-path:url(#SVGID_00000150813873835173903840000015032043862611357610_);}
	.st5{clip-path:url(#SVGID_00000147903346529851973270000010724329118561618584_);}
	.st6{clip-path:url(#SVGID_00000029754835029476996780000014928613489112253593_);}
	.st7{clip-path:url(#SVGID_00000086684747610799257140000005888405129216265100_);}
	.st8{clip-path:url(#SVGID_00000006698730317791075920000010130729300263166118_);}
	.st9{clip-path:url(#SVGID_00000155862858742144500210000004644465732431570582_);}
	.st10{clip-path:url(#SVGID_00000098179717429591055550000015197080685420147075_);}
	.st11{clip-path:url(#SVGID_00000004544136749494309710000009491944471896012676_);}
	.st12{clip-path:url(#SVGID_00000042705494486805515790000000419829212357098896_);}
	.st13{clip-path:url(#SVGID_00000113328467845975299650000014581487787376442032_);}
	.st14{clip-path:url(#SVGID_00000066474925154263786290000018144024453808485297_);}
	.st15{clip-path:url(#SVGID_00000146477722005671346580000016745723380682863257_);}
	.st16{clip-path:url(#SVGID_00000142867116328952611670000014689580924616203404_);}
	.st17{fill:#F78D1E;}
	.st18{clip-path:url(#SVGID_00000113343109655432861880000010082961049926721977_);}
	.st19{clip-path:url(#SVGID_00000142881120352412427490000014374791202428486299_);}
	.st20{clip-path:url(#SVGID_00000181780383281073958950000000062114395458422164_);}
	.st21{clip-path:url(#SVGID_00000021107289176446321010000011970900592099566527_);}
	.st22{clip-path:url(#SVGID_00000052075345793523356450000004407750751810035851_);}
	.st23{clip-path:url(#SVGID_00000056414069549166535040000003983909007090682555_);}
	.st24{clip-path:url(#SVGID_00000073701449736960981900000008109235086329729968_);}
	.st25{clip-path:url(#SVGID_00000147900914621267524590000010354779460402374298_);}
	.st26{clip-path:url(#SVGID_00000101081511417260888150000004985710959007128704_);}
	.st27{clip-path:url(#SVGID_00000047781971558484922230000005079696927374228919_);}
	.st28{clip-path:url(#SVGID_00000034780200571676353780000017980771392511280022_);}
	.st29{clip-path:url(#SVGID_00000034768585764870812760000004980262145889911169_);}
	.st30{clip-path:url(#SVGID_00000160903041517235364950000001077855980451865271_);}
	.st31{clip-path:url(#SVGID_00000083803973045740479370000001246273924794952092_);}
	.st32{fill:none;}
	.st33{fill:#F78D20;}
	.st34{font-family:'Arial-BoldMT';}
	.st35{font-size:30px;}
	.st36{fill:#EEEBE8;stroke:#080707;stroke-width:2;stroke-miterlimit:10;}
	.st37{fill:#070605;}
	.st38{font-family:'Arial-Black';}
	.st39{font-size:18px;}
	.st40{font-size:21px;}
	.st41{font-family:'MotivaSans-Regular';}
</style>
<g>
	<defs>
		<rect id="SVGID_1_" x="1.2" width="720" height="1147.7"/>
	</defs>
	<clipPath id="SVGID_00000083071359636632567210000006232667991352549546_">
		<use xlink:href="#SVGID_1_"  style="overflow:visible;"/>
	</clipPath>
	<g style="clip-path:url(#SVGID_00000083071359636632567210000006232667991352549546_);">
		
			<image style="overflow:visible;enable-background:new    ;" width="3000" height="4782" xlink:href="46CC45F917103D44.png"  transform="matrix(0.24 0 0 0.24 1.22 0)">
		</image>
	</g>
</g>
<g>
	<defs>
		<path id="SVGID_00000130647861959120092110000003377531009646103438_" d="M-1.1,458.4c0,0,238.9-212,726.4-212.6l10.2-276.5
			L-55.5-61.4L-1.1,458.4z"/>
	</defs>
	<clipPath id="SVGID_00000090980791207502195210000012382132888866909334_">
		<use xlink:href="#SVGID_00000130647861959120092110000003377531009646103438_"  style="overflow:visible;"/>
	</clipPath>
	<g style="clip-path:url(#SVGID_00000090980791207502195210000012382132888866909334_);">
		<g>
			<defs>
				<rect id="SVGID_00000166659758583806686380000001962770961568333484_" x="1.9" width="720" height="1147.7"/>
			</defs>
			<clipPath id="SVGID_00000081627251769994986980000015208795128553775526_">
				<use xlink:href="#SVGID_00000166659758583806686380000001962770961568333484_"  style="overflow:visible;"/>
			</clipPath>
			<g style="clip-path:url(#SVGID_00000081627251769994986980000015208795128553775526_);">
				
					<image style="overflow:visible;enable-background:new    ;" width="3000" height="4782" xlink:href="46CC45F917103D45.png"  transform="matrix(0.24 0 0 0.24 1.94 0)">
				</image>
			</g>
		</g>
	</g>
</g>
<g>
	<defs>
		<path id="SVGID_00000092442744534394994510000005989664242848589974_" d="M-2,427.7c0,0,238.9-212.1,726.3-212.6l10.1-276.5
			L-56.4-92.1L-2,427.7z"/>
	</defs>
	<clipPath id="SVGID_00000118383764261909472330000017118722919851129740_">
		<use xlink:href="#SVGID_00000092442744534394994510000005989664242848589974_"  style="overflow:visible;"/>
	</clipPath>
	<g style="clip-path:url(#SVGID_00000118383764261909472330000017118722919851129740_);">
		<g>
			<defs>
				<rect id="SVGID_00000089544585527317583730000012179558452711705502_" x="1.2" width="720" height="1147.7"/>
			</defs>
			<clipPath id="SVGID_00000155123477285178938360000007071667769733280911_">
				<use xlink:href="#SVGID_00000089544585527317583730000012179558452711705502_"  style="overflow:visible;"/>
			</clipPath>
			<g style="clip-path:url(#SVGID_00000155123477285178938360000007071667769733280911_);">
				
					<image style="overflow:visible;enable-background:new    ;" width="3000" height="4782" xlink:href="46CC45F917103D43.png"  transform="matrix(0.24 0 0 0.24 1.22 0)">
				</image>
			</g>
		</g>
	</g>
</g>
<g>
	<defs>
		<path id="SVGID_00000177444645904671538660000015406595823479988665_" d="M-4.5,397.2c0,0,240-210.9,727.7-209l11.5-276.5
			l-791-34.6L-4.5,397.2z"/>
	</defs>
	<clipPath id="SVGID_00000140714097884856386660000013047744919383065238_">
		<use xlink:href="#SVGID_00000177444645904671538660000015406595823479988665_"  style="overflow:visible;"/>
	</clipPath>
	<g style="clip-path:url(#SVGID_00000140714097884856386660000013047744919383065238_);">
		<g>
			<defs>
				<rect id="SVGID_00000139293717438134326960000009048321716104108188_" x="1.2" width="720" height="1147.7"/>
			</defs>
			<clipPath id="SVGID_00000051385491663709346020000013149482310268113052_">
				<use xlink:href="#SVGID_00000139293717438134326960000009048321716104108188_"  style="overflow:visible;"/>
			</clipPath>
			<g style="clip-path:url(#SVGID_00000051385491663709346020000013149482310268113052_);">
				
					<image style="overflow:visible;enable-background:new    ;" width="3000" height="4782" xlink:href="46CC45F917103D4C.png"  transform="matrix(0.24 0 0 0.24 1.22 0)">
				</image>
			</g>
		</g>
	</g>
</g>
<g>
	<defs>
		<rect id="SVGID_00000172419992494862134830000017450230011036389796_" x="-12.5" y="1071.4" width="789.4" height="120.2"/>
	</defs>
	<clipPath id="SVGID_00000020384918884475580600000006034000484400816791_">
		<use xlink:href="#SVGID_00000172419992494862134830000017450230011036389796_"  style="overflow:visible;"/>
	</clipPath>
	<g style="clip-path:url(#SVGID_00000020384918884475580600000006034000484400816791_);">
		<g>
			<defs>
				<rect id="SVGID_00000022543724636520817400000000751031394493604748_" x="1.2" width="720" height="1147.7"/>
			</defs>
			<clipPath id="SVGID_00000091714235943744156790000006574056605417478787_">
				<use xlink:href="#SVGID_00000022543724636520817400000000751031394493604748_"  style="overflow:visible;"/>
			</clipPath>
			<g style="clip-path:url(#SVGID_00000091714235943744156790000006574056605417478787_);">
				
					<image style="overflow:visible;enable-background:new    ;" width="3000" height="4782" xlink:href="46CC45F917103D4F.png"  transform="matrix(0.24 0 0 0.24 1.22 0)">
				</image>
			</g>
		</g>
	</g>
</g>
<g>
	<defs>
		<rect id="SVGID_00000047747354362447558950000005949936334690998922_" x="-12.5" y="1080.7" width="789.4" height="120.2"/>
	</defs>
	<clipPath id="SVGID_00000150787588229302797060000006164488066130981798_">
		<use xlink:href="#SVGID_00000047747354362447558950000005949936334690998922_"  style="overflow:visible;"/>
	</clipPath>
	<g style="clip-path:url(#SVGID_00000150787588229302797060000006164488066130981798_);">
		<g>
			<defs>
				<rect id="SVGID_00000037684130342208322940000003777571975306557360_" x="1.2" width="720" height="1147.7"/>
			</defs>
			<clipPath id="SVGID_00000158027275544134279990000016633919618946020747_">
				<use xlink:href="#SVGID_00000037684130342208322940000003777571975306557360_"  style="overflow:visible;"/>
			</clipPath>
			<g style="clip-path:url(#SVGID_00000158027275544134279990000016633919618946020747_);">
				
					<image style="overflow:visible;enable-background:new    ;" width="3000" height="4782" xlink:href="46CC45F917103D4D.png"  transform="matrix(0.24 0 0 0.24 1.22 0)">
				</image>
			</g>
		</g>
	</g>
</g>
<g>
	<defs>
		<path id="SVGID_00000159469304915763447030000001236788057948499868_" d="M-2.1,345.4c0,0,229.3-202.5,725-204.2l1.7-13.7
			C724.5,127.4,269.7,112.6-2.1,345.4z"/>
	</defs>
	<clipPath id="SVGID_00000114040718223949632200000014911095809865723821_">
		<use xlink:href="#SVGID_00000159469304915763447030000001236788057948499868_"  style="overflow:visible;"/>
	</clipPath>
	<g style="clip-path:url(#SVGID_00000114040718223949632200000014911095809865723821_);">
		<g>
			<defs>
				<rect id="SVGID_00000098216903041187862680000015560160077445805465_" x="1.2" width="720" height="1147.7"/>
			</defs>
			<clipPath id="SVGID_00000119814153903253551650000011341890408931319461_">
				<use xlink:href="#SVGID_00000098216903041187862680000015560160077445805465_"  style="overflow:visible;"/>
			</clipPath>
			<g style="clip-path:url(#SVGID_00000119814153903253551650000011341890408931319461_);">
				
					<image style="overflow:visible;enable-background:new    ;" width="3000" height="4782" xlink:href="46CC45F917103D42.png"  transform="matrix(0.24 0 0 0.24 1.22 0)">
				</image>
			</g>
		</g>
	</g>
</g>
<g>
	<defs>
		<ellipse id="SVGID_00000129913661488927469770000006240123904209516722_" cx="369.6" cy="473.6" rx="124.3" ry="146.7"/>
	</defs>
	<clipPath id="SVGID_00000178902669171238210300000010813482389712541851_">
		<use xlink:href="#SVGID_00000129913661488927469770000006240123904209516722_"  style="overflow:visible;"/>
	</clipPath>
	<g style="clip-path:url(#SVGID_00000178902669171238210300000010813482389712541851_);">
		<g>
			<defs>
				<rect id="SVGID_00000028300342070690104430000003483577824395774627_" x="1.2" width="720" height="1147.7"/>
			</defs>
			<clipPath id="SVGID_00000075878915509003298940000007840209246020750976_">
				<use xlink:href="#SVGID_00000028300342070690104430000003483577824395774627_"  style="overflow:visible;"/>
			</clipPath>
			<g style="clip-path:url(#SVGID_00000075878915509003298940000007840209246020750976_);">
				<g transform="translate(1.22) scale(0.24 0.24)">
					
						<image style="overflow:visible;enable-background:new    ;" width="3000" height="4782" id="image" xlink:href="46CC45F917103D46.png"  transform="matrix(0.24 0 0 0.24 1.22 0)">
					</image>
				</g>
			</g>
		</g>
	</g>
</g>
<g>
	<defs>
		<path id="SVGID_00000056415748617772898050000010892454573449969817_" d="M369.6,326.9v4.5c32.9,0,62.7,15.7,84.5,41.4
			s35.4,61.4,35.4,100.8s-13.6,75.1-35.4,100.8c-21.8,25.7-51.6,41.4-84.5,41.4s-62.7-15.7-84.5-41.4s-35.4-61.4-35.3-100.9
			s13.6-75.1,35.3-100.8s51.6-41.4,84.5-41.4v-9c-35.8,0-68.1,17.2-91.3,44.6s-37.5,65.1-37.5,106.6s14.3,79.2,37.5,106.6
			c23.2,27.4,55.5,44.6,91.3,44.6s68.1-17.2,91.3-44.6c23.2-27.4,37.5-65,37.5-106.6S484.2,394.4,461,367s-55.5-44.6-91.3-44.6
			L369.6,326.9z"/>
	</defs>
	<clipPath id="SVGID_00000007399695938788233780000004230948197982219937_">
		<use xlink:href="#SVGID_00000056415748617772898050000010892454573449969817_"  style="overflow:visible;"/>
	</clipPath>
	<g style="clip-path:url(#SVGID_00000007399695938788233780000004230948197982219937_);">
		<g>
			<defs>
				<rect id="SVGID_00000047780093397732617390000008663437301992410257_" x="1.2" width="720" height="1147.7"/>
			</defs>
			<clipPath id="SVGID_00000133515570143970548670000010868204684380988325_">
				<use xlink:href="#SVGID_00000047780093397732617390000008663437301992410257_"  style="overflow:visible;"/>
			</clipPath>
			<g style="clip-path:url(#SVGID_00000133515570143970548670000010868204684380988325_);">
				
					<image style="overflow:visible;enable-background:new    ;" width="3000" height="4782" xlink:href="46CC45F917103D47.png"  transform="matrix(0.24 0 0 0.24 1.22 0)">
				</image>
			</g>
		</g>
	</g>
</g>
<path class="st17" d="M246.7,1107.7l2.4,8.2c0.5,1.8,1,3.4,1.4,5.1h0.1c0.4-1.6,1-3.3,1.6-5.1l3-8.2h2.8l2.8,8
	c0.7,1.9,1.2,3.6,1.6,5.2h0.1c0.4-1.8,0.8-3.5,1.4-5.2l2.6-8h3.3l-5.9,16h-3l-2.8-7.7c-0.6-1.7-1.2-3.5-1.6-5.3h-0.1
	c-0.4,1.8-1,3.6-1.7,5.3l-3,7.6h-3l-5.5-16L246.7,1107.7z M275,1107.7l2.4,8.2c0.5,1.8,1,3.4,1.4,5.1h0.1c0.4-1.6,1-3.3,1.6-5.1
	l3-8.2h2.8l2.8,8c0.7,1.9,1.2,3.6,1.6,5.2h0.1c0.4-1.8,0.8-3.5,1.4-5.2l2.6-8h3.3l-5.9,16h-3l-2.8-7.7c-0.6-1.7-1.2-3.5-1.6-5.3
	h-0.1c-0.4,1.8-1,3.6-1.7,5.3l-3,7.6h-3l-5.5-16L275,1107.7z M303.2,1107.7l2.4,8.2c0.5,1.8,1,3.4,1.4,5.1h0.1
	c0.4-1.6,1-3.3,1.6-5.1l3-8.2h2.8l2.8,8c0.7,1.9,1.2,3.6,1.6,5.2h0.1c0.4-1.8,0.8-3.5,1.4-5.2l2.6-8h3.3l-5.9,16h-3l-2.8-7.7
	c-0.6-1.7-1.2-3.5-1.6-5.3h-0.1c-0.4,1.8-1,3.6-1.7,5.3l-3,7.6h-3l-5.5-16L303.2,1107.7z M327.5,1122c0-1.2,0.9-2.1,2.1-2.1
	c0.1,0,0.1,0,0.2,0c1.2-0.1,2.2,0.7,2.3,1.9s-0.7,2.2-1.9,2.3c-0.1,0-0.3,0-0.4,0c-1.1,0.1-2.2-0.7-2.3-1.9
	C327.5,1122.1,327.5,1122,327.5,1122z M340.1,1103.1v4.6h4.8v2.2h-4.8v8.6c0,2,0.6,3.1,2.5,3.1c0.6,0,1.3-0.1,1.9-0.2l0.1,2.2
	c-1,0.3-2,0.4-3,0.4c-1.3,0.1-2.6-0.4-3.6-1.2c-0.9-0.9-1.3-2.3-1.3-4.2v-8.7H334v-2.2h2.8v-3.8L340.1,1103.1z M358.7,1123.7l-0.3-2
	h-0.1c-1.4,1.6-3.5,2.5-5.6,2.4c-3.7,0-5.6-2.3-5.6-4.6c0-3.9,3.9-6,11-6v-0.3c0-1.3-0.4-3.7-4.2-3.7c-1.7,0-3.3,0.4-4.8,1.2
	l-0.8-1.9c1.9-1,3.9-1.5,6-1.4c5.6,0,7,3.3,7,6.6v6c0,1.3,0.1,2.6,0.3,3.8L358.7,1123.7z M358.2,1115.5c-3.6-0.1-7.8,0.5-7.8,3.6
	c0,1.9,1.4,2.8,3.1,2.8c1.9,0.1,3.6-1,4.4-2.7c0.1-0.3,0.2-0.6,0.2-0.9L358.2,1115.5z M382.1,1119.3c0,1.7,0,3.1,0.1,4.4h-2.9
	l-0.2-2.6h-0.1c-1.4,1.9-3.6,3.1-6,3c-2.9,0-6.3-1.4-6.3-7v-9.4h3.3v8.9c0,3,1.1,5.1,4.1,5.1c1.8,0,3.6-1,4.4-2.7
	c0.2-0.5,0.3-1,0.3-1.5v-9.8h3.3L382.1,1119.3z M386.5,1122c0-1.2,0.9-2.1,2.1-2.1c0.1,0,0.1,0,0.2,0c1.2-0.1,2.2,0.7,2.3,1.9
	c0.1,1.2-0.7,2.2-1.9,2.3c-0.1,0-0.3,0-0.4,0c-1.2,0.1-2.2-0.8-2.3-1.9C386.5,1122.1,386.5,1122,386.5,1122L386.5,1122z M397,1116.2
	c0.1,3.9,3,5.6,6.3,5.6c1.7,0.1,3.4-0.2,5.1-0.8l0.6,2.1c-2,0.7-4,1-6.1,1c-5.6,0-9-3.2-9-8.1c0-4.8,3.2-8.6,8.6-8.6
	c6,0,7.6,4.6,7.6,7.5c0,0.5,0,0.9-0.1,1.4L397,1116.2z M406.8,1114.1c0-1.9-0.9-4.7-4.6-4.7c-2.7,0-4.9,2.1-5.1,4.7H406.8z
	 M429.9,1100.2v19.4c0,1.4,0,3,0.1,4.1h-3l-0.1-2.8h-0.1c-1.4,2.1-3.7,3.3-6.2,3.2c-4.4,0-7.8-3.3-7.8-8.2c0-5.3,3.7-8.6,8.2-8.6
	c2.8,0,4.7,1.2,5.5,2.5h0.1v-9.6L429.9,1100.2z M426.6,1114.2c0-0.4,0-0.8-0.1-1.2c-0.6-2.1-2.6-3.5-4.8-3.4c-3.4,0-5.5,2.7-5.5,6.2
	c0,3.2,1.8,5.9,5.4,5.9c2.2,0.1,4.2-1.3,4.9-3.5c0.1-0.4,0.2-0.8,0.1-1.3V1114.2z M450.7,1119.3c0,1.7,0,3.1,0.1,4.4h-3l-0.2-2.6
	h-0.1c-1.4,2-3.6,3.1-6,3c-2.9,0-6.3-1.4-6.3-7v-9.4h3.3v8.9c0,3,1.1,5.1,4.1,5.1c1.8,0,3.6-1,4.4-2.7c0.2-0.5,0.3-1,0.3-1.5v-9.8
	h3.3L450.7,1119.3z M455.1,1122c0-1.2,0.9-2.1,2.1-2.1c0.1,0,0.1,0,0.2,0c1.2-0.1,2.2,0.7,2.3,1.9c0.1,1.2-0.7,2.2-1.9,2.3
	c-0.1,0-0.3,0-0.4,0c-1.1,0.1-2.1-0.8-2.2-1.9C455.1,1122.1,455.1,1122,455.1,1122L455.1,1122z M463.7,1112c0-1.7,0-3-0.1-4.3h3
	l0.2,2.7h0.1c1.4-2,3.6-3.1,6-3c2.5,0,6.5,1.3,6.5,6.8v9.6H476v-9.2c0-2.6-1.1-4.7-4.2-4.7c-2,0-3.8,1.2-4.5,3
	c-0.2,0.4-0.2,0.9-0.2,1.4v9.6h-3.3V1112z M500.5,1107.7c-0.1,1.2-0.1,2.4-0.1,4.4v9.3c0,3.7-0.8,5.9-2.6,7.3
	c-1.9,1.4-4.3,2-6.6,1.9c-2.1,0.1-4.2-0.4-6.1-1.3l0.8-2.2c1.7,0.9,3.5,1.3,5.4,1.3c3.4,0,5.9-1.6,5.9-5.6v-1.8H497
	c-1.4,1.8-3.6,2.8-5.8,2.7c-4.2,0.1-7.7-3.2-7.8-7.4c0-0.1,0-0.3,0-0.4c-0.2-4.5,3.3-8.3,7.8-8.5c0.2,0,0.3,0,0.5,0
	c3.2,0,4.9,1.5,5.7,2.8h0.1l0.1-2.4L500.5,1107.7z M497,1114c0-0.5,0-0.9-0.2-1.3c-0.7-1.9-2.6-3.2-4.6-3.1c-3.2,0-5.4,2.3-5.4,6.1
	c0,3.2,1.8,5.8,5.4,5.8c2,0.1,3.8-1.1,4.6-3c0.2-0.5,0.3-1,0.3-1.6L497,1114z"/>
<g>
	<defs>
		<path id="SVGID_00000104674844029910705660000005170420275371513988_" d="M246.7,1107.7l2.4,8.2c0.5,1.8,1,3.4,1.4,5.1h0.1
			c0.4-1.6,1-3.3,1.6-5.1l3-8.2h2.8l2.8,8c0.7,1.9,1.2,3.6,1.6,5.2h0.1c0.4-1.8,0.8-3.5,1.4-5.2l2.6-8h3.3l-5.9,16h-3l-2.8-7.7
			c-0.6-1.7-1.2-3.5-1.6-5.3h-0.1c-0.4,1.8-1,3.6-1.7,5.3l-3,7.6h-3l-5.5-16L246.7,1107.7z M275,1107.7l2.4,8.2
			c0.5,1.8,1,3.4,1.4,5.1h0.1c0.4-1.6,1-3.3,1.6-5.1l3-8.2h2.8l2.8,8c0.7,1.9,1.2,3.6,1.6,5.2h0.1c0.4-1.8,0.8-3.5,1.4-5.2l2.6-8
			h3.3l-5.9,16h-3l-2.8-7.7c-0.6-1.7-1.2-3.5-1.6-5.3h-0.1c-0.4,1.8-1,3.6-1.7,5.3l-3,7.6h-3l-5.5-16L275,1107.7z M303.2,1107.7
			l2.4,8.2c0.5,1.8,1,3.4,1.4,5.1h0.1c0.4-1.6,1-3.3,1.6-5.1l3-8.2h2.8l2.8,8c0.7,1.9,1.2,3.6,1.6,5.2h0.1c0.4-1.8,0.8-3.5,1.4-5.2
			l2.6-8h3.3l-5.9,16h-3l-2.8-7.7c-0.6-1.7-1.2-3.5-1.6-5.3h-0.1c-0.4,1.8-1,3.6-1.7,5.3l-3,7.6h-3l-5.5-16L303.2,1107.7z
			 M327.5,1122c0-1.2,0.9-2.1,2.1-2.1c0.1,0,0.1,0,0.2,0c1.2-0.1,2.2,0.7,2.3,1.9s-0.7,2.2-1.9,2.3c-0.1,0-0.3,0-0.4,0
			c-1.1,0.1-2.2-0.7-2.3-1.9C327.5,1122.1,327.5,1122,327.5,1122z M340.1,1103.1v4.6h4.8v2.2h-4.8v8.6c0,2,0.6,3.1,2.5,3.1
			c0.6,0,1.3-0.1,1.9-0.2l0.1,2.2c-1,0.3-2,0.4-3,0.4c-1.3,0.1-2.6-0.4-3.6-1.2c-0.9-0.9-1.3-2.3-1.3-4.2v-8.7H334v-2.2h2.8v-3.8
			L340.1,1103.1z M358.7,1123.7l-0.3-2h-0.1c-1.4,1.6-3.5,2.5-5.6,2.4c-3.7,0-5.6-2.3-5.6-4.6c0-3.9,3.9-6,11-6v-0.3
			c0-1.3-0.4-3.7-4.2-3.7c-1.7,0-3.3,0.4-4.8,1.2l-0.8-1.9c1.9-1,3.9-1.5,6-1.4c5.6,0,7,3.3,7,6.6v6c0,1.3,0.1,2.6,0.3,3.8
			L358.7,1123.7z M358.2,1115.5c-3.6-0.1-7.8,0.5-7.8,3.6c0,1.9,1.4,2.8,3.1,2.8c1.9,0.1,3.6-1,4.4-2.7c0.1-0.3,0.2-0.6,0.2-0.9
			L358.2,1115.5z M382.1,1119.3c0,1.7,0,3.1,0.1,4.4h-2.9l-0.2-2.6h-0.1c-1.4,1.9-3.6,3.1-6,3c-2.9,0-6.3-1.4-6.3-7v-9.4h3.3v8.9
			c0,3,1.1,5.1,4.1,5.1c1.8,0,3.6-1,4.4-2.7c0.2-0.5,0.3-1,0.3-1.5v-9.8h3.3L382.1,1119.3z M386.5,1122c0-1.2,0.9-2.1,2.1-2.1
			c0.1,0,0.1,0,0.2,0c1.2-0.1,2.2,0.7,2.3,1.9c0.1,1.2-0.7,2.2-1.9,2.3c-0.1,0-0.3,0-0.4,0c-1.2,0.1-2.2-0.8-2.3-1.9
			C386.5,1122.1,386.5,1122,386.5,1122L386.5,1122z M397,1116.2c0.1,3.9,3,5.6,6.3,5.6c1.7,0.1,3.4-0.2,5.1-0.8l0.6,2.1
			c-2,0.7-4,1-6.1,1c-5.6,0-9-3.2-9-8.1c0-4.8,3.2-8.6,8.6-8.6c6,0,7.6,4.6,7.6,7.5c0,0.5,0,0.9-0.1,1.4L397,1116.2z M406.8,1114.1
			c0-1.9-0.9-4.7-4.6-4.7c-2.7,0-4.9,2.1-5.1,4.7H406.8z M429.9,1100.2v19.4c0,1.4,0,3,0.1,4.1h-3l-0.1-2.8h-0.1
			c-1.4,2.1-3.7,3.3-6.2,3.2c-4.4,0-7.8-3.3-7.8-8.2c0-5.3,3.7-8.6,8.2-8.6c2.8,0,4.7,1.2,5.5,2.5h0.1v-9.6L429.9,1100.2z
			 M426.6,1114.2c0-0.4,0-0.8-0.1-1.2c-0.6-2.1-2.6-3.5-4.8-3.4c-3.4,0-5.5,2.7-5.5,6.2c0,3.2,1.8,5.9,5.4,5.9
			c2.2,0.1,4.2-1.3,4.9-3.5c0.1-0.4,0.2-0.8,0.1-1.3V1114.2z M450.7,1119.3c0,1.7,0,3.1,0.1,4.4h-3l-0.2-2.6h-0.1
			c-1.4,2-3.6,3.1-6,3c-2.9,0-6.3-1.4-6.3-7v-9.4h3.3v8.9c0,3,1.1,5.1,4.1,5.1c1.8,0,3.6-1,4.4-2.7c0.2-0.5,0.3-1,0.3-1.5v-9.8h3.3
			L450.7,1119.3z M455.1,1122c0-1.2,0.9-2.1,2.1-2.1c0.1,0,0.1,0,0.2,0c1.2-0.1,2.2,0.7,2.3,1.9c0.1,1.2-0.7,2.2-1.9,2.3
			c-0.1,0-0.3,0-0.4,0c-1.1,0.1-2.1-0.8-2.2-1.9C455.1,1122.1,455.1,1122,455.1,1122L455.1,1122z M463.7,1112c0-1.7,0-3-0.1-4.3h3
			l0.2,2.7h0.1c1.4-2,3.6-3.1,6-3c2.5,0,6.5,1.3,6.5,6.8v9.6H476v-9.2c0-2.6-1.1-4.7-4.2-4.7c-2,0-3.8,1.2-4.5,3
			c-0.2,0.4-0.2,0.9-0.2,1.4v9.6h-3.3V1112z M500.5,1107.7c-0.1,1.2-0.1,2.4-0.1,4.4v9.3c0,3.7-0.8,5.9-2.6,7.3
			c-1.9,1.4-4.3,2-6.6,1.9c-2.1,0.1-4.2-0.4-6.1-1.3l0.8-2.2c1.7,0.9,3.5,1.3,5.4,1.3c3.4,0,5.9-1.6,5.9-5.6v-1.8H497
			c-1.4,1.8-3.6,2.8-5.8,2.7c-4.2,0.1-7.7-3.2-7.8-7.4c0-0.1,0-0.3,0-0.4c-0.2-4.5,3.3-8.3,7.8-8.5c0.2,0,0.3,0,0.5,0
			c3.2,0,4.9,1.5,5.7,2.8h0.1l0.1-2.4L500.5,1107.7z M497,1114c0-0.5,0-0.9-0.2-1.3c-0.7-1.9-2.6-3.2-4.6-3.1
			c-3.2,0-5.4,2.3-5.4,6.1c0,3.2,1.8,5.8,5.4,5.8c2,0.1,3.8-1.1,4.6-3c0.2-0.5,0.3-1,0.3-1.6L497,1114z"/>
	</defs>
	<clipPath id="SVGID_00000165956031142839285700000012329391758627855506_">
		<use xlink:href="#SVGID_00000104674844029910705660000005170420275371513988_"  style="overflow:visible;"/>
	</clipPath>
	<g style="clip-path:url(#SVGID_00000165956031142839285700000012329391758627855506_);">
		<rect x="1.2" class="st17" width="720" height="1147.7"/>
		<g>
			<defs>
				<rect id="SVGID_00000000936935967198082630000012077043894509013429_" x="1.2" width="720" height="1147.7"/>
			</defs>
			<clipPath id="SVGID_00000034801005634707475540000009757663669023761811_">
				<use xlink:href="#SVGID_00000000936935967198082630000012077043894509013429_"  style="overflow:visible;"/>
			</clipPath>
			<g style="clip-path:url(#SVGID_00000034801005634707475540000009757663669023761811_);">
				<g transform="translate(1.22 0) scale(0.24 0.24)">
					
						<image style="overflow:visible;enable-background:new    ;" width="3000" height="4782" id="image_00000162330520519817361480000010571732498211650734_" xlink:href="3B861D005558DB23.png"  transform="matrix(0.24 0 0 0.24 1.22 0)">
					</image>
				</g>
			</g>
		</g>
	</g>
</g>
<g>
	<defs>
		<path id="SVGID_00000041262029640234094080000008397770116821663421_" d="M169.2,47.1v-15h-4.1v5.1h-2.5v-7.6h16.2v7.6h-2.5v-5.1
			h-4.1v15h2.6v2.5h-8.2v-2.5H169.2z M182.2,47.1v-15h-2.3v-2.5h7.6v2.5h-2.4v5.7h8.7v-5.7h-2.4v-2.5h7.6v2.5h-2.3v15h2.3v2.5h-7.6
			v-2.5h2.4v-6.8h-8.7v6.8h2.4v2.5h-7.6v-2.5H182.2z M201.5,39.6c-0.1-2.7,1-5.3,2.9-7.3c1.9-2,4.6-3,7.4-2.9c2.8-0.1,5.5,1,7.5,2.9
			c1.9,2,3,4.6,2.9,7.3c0.1,2.8-1,5.5-2.9,7.4c-2,2-4.7,3-7.5,2.9c-1.9,0-3.7-0.5-5.4-1.4c-1.6-0.9-2.9-2.2-3.7-3.9
			C201.9,43.1,201.5,41.4,201.5,39.6z M204.8,39.6c-0.1,2,0.6,4,1.9,5.5c1.3,1.5,3.1,2.3,5.1,2.2c2,0,3.8-0.8,5.1-2.3
			c1.3-1.5,2-3.4,2-5.4c0.1-2-0.7-3.9-2-5.4c-1.3-1.4-3.2-2.3-5.1-2.2c-1.9-0.1-3.7,0.7-5,2.2C205.4,35.7,204.7,37.6,204.8,39.6
			L204.8,39.6z M226.8,47.2v-15h-2.4v-2.5h6.8l5.3,13.7l5.3-13.7h6.9v2.5h-2.4v15h2.4v2.5h-7.6v-2.5h2.4v-15l-6.9,17.7H236
			l-6.8-17.7v15h2.2v2.5h-7.1v-2.5H226.8z M263.2,42.6H256l-1.6,4.6h2.4v2.5h-7.8v-2.5h2.4l5.5-15.2h-2.4v-2.3h10.2v2.3h-2.5
			l5.6,15.2h2.2v2.5h-7.8v-2.5h2.5L263.2,42.6z M262.5,40.3l-2.7-8.4h-0.3l-2.8,8.4H262.5z M270.9,49.7v-7.3h2.5v1.8
			c1.2,2.2,2.8,3.3,4.7,3.3c0.9,0,1.8-0.3,2.5-0.9c0.7-0.6,1-1.5,1-2.4c0.1-0.8-0.2-1.5-0.8-2c-1-0.6-2-1-3.1-1.2
			c-1.4-0.3-2.7-0.8-4-1.4c-0.8-0.4-1.6-1-2.1-1.8c-0.5-0.8-0.8-1.8-0.8-2.8c-0.1-1.5,0.6-3,1.7-4c1.2-1,2.7-1.6,4.2-1.5
			c1.6,0,3.2,0.6,4.5,1.6v-1.4h2.4v6h-2.4v-1.4c-0.9-1.5-2.5-2.4-4.2-2.3c-0.9-0.1-1.8,0.2-2.5,0.8c-0.6,0.4-0.9,1.1-0.9,1.8
			c0,0.5,0.1,1,0.5,1.4c0.3,0.4,0.7,0.7,1.1,0.9c0.9,0.3,1.8,0.6,2.7,0.8c1.3,0.3,2.6,0.7,3.8,1.3c0.9,0.5,1.6,1.2,2.1,2
			c0.6,1,0.9,2.1,0.9,3.2c0,1.6-0.6,3.1-1.8,4.2c-1.2,1.1-2.8,1.7-4.5,1.7c-1.8,0-3.6-0.7-4.9-2v1.7L270.9,49.7z M306.8,42.7h-7.2
			l-1.5,4.5h2.5v2.5h-7.9v-2.5h2.4l5.5-15.3H298v-2.3h10.2v2.3h-2.5l5.6,15.2h2.2v2.5h-7.8v-2.5h2.5L306.8,42.7z M306,40.3l-2.7-8.4
			h-0.3l-2.8,8.4H306z M316.5,47.1v-15h-2.7v-2.5h7.7c1.7,0,3.3,0.1,4.9,0.3c1.2,0.2,2.4,0.8,3.4,1.5c1.1,0.8,2,1.9,2.6,3.2
			c0.7,1.4,1,3,1,4.6c0,1.8-0.3,3.5-0.9,5.2c-0.5,1.3-1.3,2.4-2.5,3.3c-1.1,0.7-2.3,1.3-3.6,1.5c-1.8,0.3-3.5,0.5-5.3,0.4h-7.3v-2.5
			L316.5,47.1z M319.5,47.1h1.6c1.4,0,2.8-0.1,4.2-0.3c0.9-0.2,1.8-0.6,2.6-1.1c0.8-0.6,1.4-1.5,1.7-2.4c0.5-1.2,0.7-2.5,0.7-3.8
			c0-1.5-0.3-3.1-1.1-4.4c-0.6-1.1-1.6-1.9-2.8-2.4c-1.7-0.4-3.4-0.6-5.2-0.6h-1.7V47.1z M338.2,47.1v-15h-2.6v-2.5h16.6v6h-2.5
			v-3.5h-8.5v6h7.4v2.5h-7.4v6.5h8.5v-3.6h2.5v6.1h-16.6v-2.5L338.2,47.1z M360.7,49.8l-5.1-17.7h-2.4v-2.5h7.6v2.5h-2.4l3.8,13.1
			l3.6-13.1h-2.4v-2.5h9.2v2.5h-2.3l3.6,13.1l3.7-13.1h-2.4v-2.5h7.4v2.5h-2.4l-5,17.7h-2.8L368,34l-4.5,15.8L360.7,49.8z
			 M388.5,32.2v10c0,1.1,0,2.2,0.2,3.2c0.2,0.6,0.6,1.2,1.2,1.5c0.7,0.4,1.6,0.7,2.4,0.6c0.9,0.1,1.9-0.1,2.7-0.5
			c0.6-0.3,1-0.8,1.3-1.4c0.2-1.1,0.3-2.1,0.3-3.2V32.2h-2.3v-2.5h7.8v2.5h-2.5v10.4c0,1,0,2-0.2,3.1c-0.2,0.7-0.5,1.4-1,2
			c-0.6,0.7-1.4,1.3-2.2,1.7c-1.1,0.4-2.3,0.7-3.5,0.6c-1.3,0-2.6-0.2-3.8-0.6c-0.9-0.3-1.7-0.8-2.3-1.6c-0.5-0.6-0.8-1.3-1-2.1
			c-0.2-1.1-0.3-2.3-0.2-3.4V32.2H383v-2.5h7.9v2.5H388.5z M405.6,47.2v-15h-2.4v-2.5h6.8l5.3,13.7l5.3-13.7h6.9v2.5h-2.4v15h2.4
			v2.5h-7.5v-2.5h2.4v-15l-6.9,17.7H415l-6.8-17.7v15h2.2v2.5h-7.1v-2.5H405.6z M431.4,47.2v-15h-2.2v-2.5h7.3v2.5h-2.2v15h2.2v2.5
			h-7.3v-2.5H431.4z"/>
	</defs>
	<clipPath id="SVGID_00000102523106535719262750000007389820165995053476_">
		<use xlink:href="#SVGID_00000041262029640234094080000008397770116821663421_"  style="overflow:visible;"/>
	</clipPath>
	<g style="clip-path:url(#SVGID_00000102523106535719262750000007389820165995053476_);">
		<g>
			<defs>
				<rect id="SVGID_00000157997629788451033840000004487869361358301849_" x="1.2" width="720" height="1147.7"/>
			</defs>
			<clipPath id="SVGID_00000124153160601912416690000003948272196618398619_">
				<use xlink:href="#SVGID_00000157997629788451033840000004487869361358301849_"  style="overflow:visible;"/>
			</clipPath>
			<g style="clip-path:url(#SVGID_00000124153160601912416690000003948272196618398619_);">
				<g transform="translate(1.22 0) scale(0.24 0.24)">
					
						<image style="overflow:visible;enable-background:new    ;" width="3000" height="4782" id="image_00000106840363043304635360000009315852984253843865_" xlink:href="3B861D005558DB21.png"  transform="matrix(0.24 0 0 0.24 1.22 0)">
					</image>
				</g>
			</g>
		</g>
	</g>
</g>
<g>
	<defs>
		<path id="SVGID_00000178189617556608705090000011136469257030751621_" d="M171.1,59.3v16.3c-0.1,1.8,0.1,3.5,0.4,5.2
			c0.3,1.1,1,2,2,2.5c1.2,0.7,2.6,1.1,4,1c1.5,0.1,3.1-0.2,4.4-0.9c1-0.5,1.7-1.3,2.1-2.4c0.4-1.7,0.6-3.5,0.5-5.3V59.3h-3.8v-4.1
			h12.8v4.1h-4.1v17c0,1.7-0.1,3.3-0.3,5c-0.3,1.2-0.8,2.3-1.6,3.3c-1,1.2-2.2,2.1-3.6,2.7c-1.8,0.7-3.8,1.1-5.7,1
			c-2.1,0.1-4.2-0.3-6.2-1c-1.4-0.5-2.7-1.4-3.7-2.5c-0.8-1-1.4-2.2-1.6-3.4c-0.3-1.9-0.5-3.7-0.4-5.6V59.3h-4v-4.1H175v4.1
			L171.1,59.3z M198.9,83.8V59.3h-4.7v-4.1h11.1l14.3,25.3V59.3h-4.6v-4.1h13.4v4.1h-4.8v28.8h-5.1l-15.7-27.8v23.4h4.7v4.1h-13.4
			v-4.1H198.9z M233.6,83.8V59.3h-3.5v-4.1h12v4.1h-3.6v24.4h3.5v4.1h-12v-4.1L233.6,83.8z M258.5,88.2l-11-28.9h-4v-4.1h12.9v4.1
			h-3.8l8.3,21.9l8.1-21.9h-3.8v-4.1h12.5v4.1h-4L263,88.2H258.5z M283.1,83.8V59.3h-4.2v-4.1H306v9.8h-4v-5.7H288V69h12.1v4.1H288
			v10.7h13.9v-5.9h4v10h-27.1v-4.1L283.1,83.8z M312.6,83.8V59.3h-4.5v-4.1h13.2c2.2-0.1,4.4,0.2,6.6,0.7c1.6,0.4,3,1.4,4,2.7
			c1.1,1.5,1.7,3.3,1.6,5.2c0,4.3-2.2,7-6.7,8.1l5.8,11.9h4v4.1h-7.1l-7.4-15.2h-4.6v11.2h4.2v4.1h-13.6v-4.1L312.6,83.8z
			 M317.6,68.5h3.9c1.4,0,2.8-0.1,4.1-0.4c0.9-0.2,1.6-0.8,2.2-1.5c0.6-0.9,0.9-1.9,0.8-3c0-1-0.3-1.9-0.9-2.7
			c-0.5-0.7-1.3-1.2-2.1-1.4c-1.3-0.2-2.5-0.3-3.8-0.3h-4.2L317.6,68.5z M338.2,87.8V76h4.1v2.9c2,3.5,4.5,5.3,7.7,5.3
			c1.5,0,3-0.5,4.1-1.5c1.1-1,1.7-2.4,1.7-3.9c0.1-1.3-0.4-2.5-1.4-3.3c-1.6-1-3.3-1.6-5.1-2c-2.2-0.5-4.4-1.3-6.5-2.2
			c-1.4-0.7-2.5-1.7-3.4-3c-0.9-1.4-1.3-3-1.2-4.6c-0.1-2.5,0.9-4.9,2.7-6.5c1.9-1.7,4.3-2.5,6.9-2.4c2.6,0,5.2,0.9,7.3,2.5v-2.2h4
			V65h-4v-2.3c-1.5-2.4-4.1-3.8-6.9-3.8c-1.5-0.1-2.9,0.3-4.1,1.2c-0.9,0.7-1.4,1.8-1.5,2.9c0,0.8,0.2,1.6,0.7,2.3
			c0.5,0.7,1.1,1.2,1.9,1.5c1.4,0.5,2.9,1,4.4,1.3c2.1,0.5,4.2,1.2,6.3,2.1c1.4,0.7,2.6,1.9,3.4,3.2c1,1.6,1.4,3.4,1.4,5.2
			c0.1,2.6-1,5.1-2.9,6.9c-2,1.8-4.6,2.8-7.3,2.7c-3,0-5.8-1.2-8-3.2v2.7H338.2z M367.1,83.8V59.3h-3.5v-4.1h11.9v4.1H372v24.4h3.5
			v4.1h-11.9v-4.1L367.1,83.8z M388.4,83.8V59.3h-6.7v8.3h-4V55.2h26.4v12.4h-4v-8.3h-6.7v24.4h4.2v4.1h-13.4v-4.1L388.4,83.8z
			 M417.8,83.8V73l-9.7-13.7h-4v-4.1h13.4v4.1h-4.1l7.2,10.1l6.6-10.1h-4.1v-4.1h13v4.1h-4.3l-9,13.7v10.8h4.5v4.1h-13.8v-4.1H417.8
			z"/>
	</defs>
	<clipPath id="SVGID_00000107573369395043405080000011429933049908205197_">
		<use xlink:href="#SVGID_00000178189617556608705090000011136469257030751621_"  style="overflow:visible;"/>
	</clipPath>
	<g style="clip-path:url(#SVGID_00000107573369395043405080000011429933049908205197_);">
		<g>
			<defs>
				<rect id="SVGID_00000122711125577997548790000008213705641746837695_" x="1.2" width="720" height="1147.7"/>
			</defs>
			<clipPath id="SVGID_00000098198565560337810820000015488157200833736363_">
				<use xlink:href="#SVGID_00000122711125577997548790000008213705641746837695_"  style="overflow:visible;"/>
			</clipPath>
			<g style="clip-path:url(#SVGID_00000098198565560337810820000015488157200833736363_);">
				<g transform="translate(1.22 0) scale(0.24 0.24)">
					
						<image style="overflow:visible;enable-background:new    ;" width="3000" height="4782" id="image_00000075146318657660539870000002638072443705299631_" xlink:href="3B861D005558DB27.png"  transform="matrix(0.24 0 0 0.24 1.22 0)">
					</image>
				</g>
			</g>
		</g>
	</g>
</g>
<g>
	<defs>
		<path id="SVGID_00000169519690393108045220000006386470287287857836_" d="M163,104.1c-0.1-2.7,0.9-5.3,2.8-7.2
			c1.9-1.9,4.6-3,7.3-2.9c2.8-0.1,5.4,1,7.4,2.9c1.9,1.9,2.9,4.5,2.9,7.2c0.1,2.7-0.9,5.4-2.9,7.3c-2,1.9-4.6,3-7.4,2.9
			c-1.8,0-3.7-0.5-5.3-1.4c-1.6-0.9-2.8-2.2-3.6-3.8C163.4,107.6,163,105.8,163,104.1z M166.2,104.1c-0.1,2,0.6,3.9,1.9,5.4
			c1.2,1.5,3.1,2.3,5,2.2c1.9,0,3.8-0.8,5-2.2c1.3-1.5,2-3.4,2-5.4c0-2-0.7-3.9-2-5.3c-1.3-1.4-3.1-2.2-5-2.2
			c-1.9-0.1-3.7,0.7-4.9,2.1C166.9,100.2,166.2,102.1,166.2,104.1L166.2,104.1z M187.8,111.6V96.8h-2.5v-2.5h8v2.5h-2.5v14.8h2.3
			v2.5h-7.7v-2.5H187.8z M190.8,103.6l6.3-6.8h-2.2v-2.5h7.7v2.5h-2.1l-6.1,6.8l6.2,8h2.1v2.5h-8v-2.5h2.1L190.8,103.6z M203.2,104
			c-0.1-2.7,0.9-5.3,2.8-7.2c1.9-1.9,4.6-3,7.3-2.9c2.8-0.1,5.4,0.9,7.4,2.9c1.9,1.9,2.9,4.5,2.9,7.2c0.1,2.7-1,5.4-2.9,7.3
			c-2,1.9-4.6,3-7.4,2.9c-1.8,0-3.7-0.5-5.3-1.4c-1.6-0.9-2.8-2.2-3.6-3.8C203.6,107.6,203.2,105.8,203.2,104L203.2,104z M206.4,104
			c-0.1,2,0.6,3.9,1.9,5.4c1.2,1.5,3.1,2.3,5,2.2c1.9,0,3.8-0.8,5-2.2c1.3-1.5,2-3.4,2-5.4c0-2-0.7-3.9-2-5.3
			c-1.3-1.4-3.1-2.2-5-2.2c-1.9-0.1-3.7,0.7-4.9,2.1C207.1,100.2,206.4,102.1,206.4,104L206.4,104z M225.2,114v-3.4h3.5v3
			c0,0.8,0,1.6-0.2,2.4c-0.2,0.6-0.5,1.1-1,1.4c-0.7,0.4-1.4,0.6-2.2,0.6v-1.5c1-0.1,1.8-1,1.7-2c0,0,0-0.1,0-0.1c0-0.1,0-0.2,0-0.3
			L225.2,114z M239.1,111.6V96.8h-2.5v-2.5h8v2.5h-2.5v14.8h2.3v2.5h-7.7v-2.5H239.1z M242.1,103.6l6.3-6.8h-2.3v-2.5h7.7v2.5h-2.1
			l-6.1,6.8l6.2,8h2.1v2.5h-8v-2.5h2.1L242.1,103.6z M261.6,114.2l-5-17.4h-2.4v-2.5h7.5v2.5h-2.4l3.7,12.9l3.6-12.9h-2.3v-2.5h9
			v2.5h-2.3l3.6,12.9l3.6-12.9H276v-2.5h7.2v2.5h-2.3l-4.9,17.4h-2.8l-4.4-15.6l-4.4,15.6L261.6,114.2z M295.8,107.1h-7.1l-1.5,4.5
			h2.4v2.5h-7.8v-2.5h2.4l5.4-15h-2.4v-2.2h10.1v2.2h-2.5l5.5,15h2.2v2.5h-7.7v-2.5h2.5L295.8,107.1z M295.1,104.8l-2.6-8.2h-0.3
			l-2.7,8.2L295.1,104.8z M305.4,111.6V96.8h-2.7v-2.5h8c1.3,0,2.7,0.1,4,0.4c1,0.3,1.8,0.8,2.4,1.7c0.7,0.9,1,2,1,3.1
			c0,2.6-1.4,4.2-4.1,4.9l3.4,7.2h2.4v2.5h-4.3l-4.5-9.2h-2.8v6.7h2.5v2.5h-8.2v-2.5H305.4z M308.4,102.4h2.3c0.8,0,1.7,0,2.5-0.2
			c0.5-0.1,1-0.5,1.3-0.9c0.4-0.5,0.5-1.2,0.5-1.8c0-0.6-0.2-1.2-0.5-1.7c-0.3-0.4-0.8-0.7-1.3-0.8c-0.8-0.1-1.5-0.2-2.3-0.2h-2.5
			L308.4,102.4z M333.6,107.1h-7.1l-1.5,4.5h2.4v2.5h-7.8v-2.5h2.4l5.4-15H325v-2.2H335v2.2h-2.5l5.5,15h2.2v2.5h-7.7v-2.5h2.5
			L333.6,107.1z M332.9,104.8l-2.6-8.2H330l-2.7,8.2H332.9z M348.4,114v-7.2h2.5v1.7c1.2,2.2,2.7,3.2,4.6,3.2c0.9,0,1.8-0.3,2.5-0.9
			c0.7-0.6,1-1.5,1-2.3c0.1-0.8-0.2-1.5-0.8-2c-1-0.6-2-1-3.1-1.2c-1.3-0.3-2.7-0.8-3.9-1.3c-0.8-0.4-1.5-1-2-1.8
			c-0.5-0.8-0.8-1.8-0.8-2.8c-0.1-1.5,0.5-3,1.6-4c1.1-1,2.6-1.5,4.1-1.5c1.6,0,3.1,0.6,4.4,1.6v-1.3h2.4v6h-2.4v-1.4
			c-0.9-1.5-2.5-2.3-4.2-2.3c-0.9-0.1-1.8,0.2-2.5,0.7c-0.5,0.4-0.9,1.1-0.9,1.8c0,0.5,0.1,1,0.4,1.4c0.3,0.4,0.7,0.7,1.1,0.9
			c0.9,0.3,1.8,0.6,2.7,0.8c1.3,0.3,2.6,0.7,3.8,1.3c0.8,0.5,1.5,1.2,2,2c0.6,1,0.9,2,0.9,3.2c0,1.6-0.6,3.1-1.8,4.2
			c-1.2,1.1-2.8,1.7-4.4,1.6c-1.8,0-3.5-0.7-4.8-1.9v1.6L348.4,114z M369.5,111.6V96.8h-4.1v5H363v-7.5h16v7.5h-2.5v-5h-4v14.8h2.6
			v2.5h-8v-2.5H369.5z M392.3,107.1h-7.1l-1.5,4.5h2.4v2.5h-7.8v-2.5h2.4l5.4-15h-2.4v-2.2h10.1v2.2h-2.5l5.5,15h2.2v2.5h-7.7v-2.5
			h2.5L392.3,107.1z M391.6,104.8l-2.6-8.2h-0.3l-2.7,8.2H391.6z M405.1,111.6V96.8h-4.1v5h-2.4v-7.5h16v7.5h-2.4v-5h-4v14.8h2.6
			v2.5h-8.1v-2.5H405.1z M418.2,111.6V96.8h-2.5v-2.5h16.4v5.9h-2.4v-3.5h-8.4v5.8h7.3v2.5h-7.3v6.5h8.4V108h2.4v6h-16.4v-2.4H418.2
			z M435.5,114v-3.5h3.5v3.5L435.5,114z"/>
	</defs>
	<clipPath id="SVGID_00000148655024032989443510000003501549660190476957_">
		<use xlink:href="#SVGID_00000169519690393108045220000006386470287287857836_"  style="overflow:visible;"/>
	</clipPath>
	<g style="clip-path:url(#SVGID_00000148655024032989443510000003501549660190476957_);">
		<g>
			<defs>
				<rect id="SVGID_00000172437076796157793830000017816958889000589971_" x="1.2" width="720" height="1147.7"/>
			</defs>
			<clipPath id="SVGID_00000042724879704615632050000000350539198937378476_">
				<use xlink:href="#SVGID_00000172437076796157793830000017816958889000589971_"  style="overflow:visible;"/>
			</clipPath>
			<g style="clip-path:url(#SVGID_00000042724879704615632050000000350539198937378476_);">
				<g transform="translate(1.22 0) scale(0.24 0.24)">
					
						<image style="overflow:visible;enable-background:new    ;" width="3000" height="4782" id="image_00000016779306522457932640000009321233165788210596_" xlink:href="3B861D005558DB22.png"  transform="matrix(0.24 0 0 0.24 1.22 0)">
					</image>
				</g>
			</g>
		</g>
	</g>
</g>
<g>
	<defs>
		<path id="SVGID_00000106117319553122358780000009245967182227576455_" d="M165,135.6v-4.4h1.5v1.1c0.5,1.2,1.6,1.9,2.8,2
			c0.6,0,1.1-0.2,1.5-0.5c0.4-0.4,0.6-0.9,0.6-1.4c0-0.5-0.1-0.9-0.5-1.2c-0.6-0.4-1.2-0.6-1.9-0.8c-0.8-0.2-1.6-0.5-2.4-0.8
			c-0.5-0.2-0.9-0.6-1.2-1.1c-0.3-0.5-0.5-1.1-0.5-1.7c0-0.9,0.3-1.8,1-2.4c0.7-0.6,1.6-0.9,2.5-0.9c1,0,1.9,0.3,2.7,0.9v-0.8h1.5
			v3.7h-1.5v-0.8c-0.5-0.9-1.5-1.4-2.6-1.4c-0.5,0-1.1,0.1-1.5,0.4c-0.3,0.3-0.5,0.7-0.5,1.1c0,0.3,0.1,0.6,0.3,0.8
			c0.2,0.2,0.4,0.4,0.7,0.5c0.5,0.2,1.1,0.4,1.6,0.5c0.8,0.2,1.6,0.4,2.3,0.8c0.5,0.3,0.9,0.7,1.2,1.2c0.4,0.6,0.5,1.3,0.5,1.9
			c0,1-0.4,1.9-1.1,2.6c-0.7,0.7-1.7,1-2.7,1c-1.1,0-2.2-0.4-3-1.2v1L165,135.6z M182.4,127.2v3.2h-1.5c0-0.5-0.3-1-0.7-1.4
			c-0.4-0.3-0.9-0.5-1.5-0.5c-0.7,0-1.4,0.3-1.8,0.8c-0.5,0.6-0.7,1.3-0.7,2c0,0.7,0.2,1.5,0.6,2.1c0.4,0.6,1.2,1,1.9,0.9
			c1.1,0,2.1-0.6,2.5-1.6l1.4,0.6c-0.6,1.6-2.2,2.6-3.9,2.5c-1.2,0.1-2.4-0.4-3.1-1.4c-0.7-0.9-1.1-1.9-1.1-3.1
			c0-1.2,0.4-2.3,1.2-3.1c0.8-0.8,1.8-1.2,2.9-1.2c0.9,0,1.7,0.3,2.4,0.8v-0.6L182.4,127.2z M184.9,134.1v-5.4h-1.3v-1.5h2.9v6.9
			h1.3v1.4h-4.2v-1.4L184.9,134.1z M184.7,124.4c0-0.3,0.1-0.5,0.3-0.7c0.4-0.4,1-0.4,1.4,0c0,0,0,0,0,0c0.4,0.4,0.4,1,0,1.4
			c-0.4,0.4-1,0.4-1.4,0C184.8,124.9,184.7,124.6,184.7,124.4L184.7,124.4z M197.7,131.8h-7.1c0.1,0.7,0.4,1.4,0.9,1.9
			c0.5,0.5,1.3,0.8,2,0.7c1.1,0,2.1-0.5,2.7-1.4l1.5,0.6c-0.4,0.7-1.1,1.3-1.9,1.6c-0.7,0.4-1.5,0.5-2.4,0.5c-1.2,0-2.4-0.4-3.3-1.2
			c-0.9-0.8-1.4-2-1.4-3.2c0-1.2,0.5-2.4,1.3-3.2c0.8-0.8,1.9-1.3,3.1-1.2c1.1,0,2.2,0.4,3.1,1.2
			C197.3,129.1,197.8,130.5,197.7,131.8L197.7,131.8z M196,130.6c-0.1-0.6-0.4-1.2-0.9-1.6c-0.5-0.5-1.1-0.7-1.8-0.7
			c-0.6,0-1.2,0.2-1.7,0.6c-0.5,0.4-0.8,1-0.9,1.7H196z M202,127.2v1c0.8-0.7,1.8-1.1,2.9-1.1c0.5,0,0.9,0.1,1.3,0.4
			c0.3,0.2,0.6,0.6,0.7,0.9c0.1,0.5,0.2,1.1,0.2,1.6v4.1h1.4v1.5h-3v-5.5c0.1-0.4,0-0.9-0.3-1.2c-0.2-0.2-0.4-0.3-0.7-0.3
			c-0.9,0.1-1.8,0.5-2.5,1.1v4.5h1.5v1.4h-4.6v-1.4h1.5v-5.4h-1.5v-1.5L202,127.2z M217.1,127.2v3.2h-1.5c0-0.5-0.3-1-0.7-1.4
			c-0.4-0.3-0.9-0.5-1.5-0.5c-0.7,0-1.4,0.3-1.8,0.8c-0.5,0.6-0.7,1.3-0.7,2c0,0.7,0.2,1.5,0.7,2.1c0.4,0.6,1.2,1,1.9,0.9
			c1.1,0,2.1-0.6,2.5-1.6l1.4,0.6c-0.6,1.6-2.2,2.7-3.9,2.6c-1.2,0.1-2.4-0.4-3.1-1.4c-0.7-0.9-1.2-2-1.1-3.1c0-1.2,0.4-2.3,1.3-3.1
			c0.8-0.8,1.8-1.2,2.9-1.2c0.9,0,1.7,0.3,2.4,0.8v-0.6L217.1,127.2z M227.3,131.8h-7c0.1,0.7,0.4,1.4,0.9,1.9
			c0.5,0.5,1.3,0.8,2,0.7c1.1,0,2.1-0.5,2.7-1.4l1.4,0.6c-0.5,0.7-1.1,1.3-1.9,1.6c-0.7,0.4-1.5,0.5-2.4,0.5c-1.2,0-2.4-0.4-3.3-1.2
			c-0.9-0.8-1.4-2-1.3-3.2c0-1.2,0.4-2.4,1.3-3.2c0.8-0.8,1.9-1.2,3-1.2c1.1,0,2.2,0.4,3.1,1.2C226.8,129.2,227.4,130.5,227.3,131.8
			L227.3,131.8z M225.6,130.6c-0.1-0.6-0.5-1.2-0.9-1.6c-0.5-0.5-1.1-0.7-1.8-0.7c-0.6,0-1.2,0.2-1.7,0.6c-0.5,0.4-0.8,1-0.9,1.7
			H225.6z M236.4,123.3h1.4v16.3h-1.4V123.3z M249.6,134.1v-9h-2.5v3.1h-1.5v-4.6h9.8v4.6h-1.5v-3.1h-2.5v9h1.6v1.5h-4.9v-1.5H249.6
			z M264.2,131.8h-7c0.1,0.7,0.4,1.4,0.9,1.9c0.5,0.5,1.3,0.8,2,0.7c1.1,0,2.1-0.5,2.7-1.4l1.5,0.6c-0.4,0.7-1.1,1.3-1.9,1.6
			c-0.7,0.4-1.5,0.5-2.4,0.5c-1.2,0-2.4-0.4-3.3-1.2c-0.9-0.8-1.4-2-1.4-3.2c0-1.2,0.5-2.4,1.3-3.2c0.8-0.8,1.9-1.3,3-1.2
			c1.1,0,2.2,0.4,3.1,1.2C263.8,129.2,264.3,130.5,264.2,131.8L264.2,131.8z M262.5,130.6c-0.1-0.6-0.5-1.2-0.9-1.6
			c-0.5-0.5-1.1-0.7-1.8-0.7c-0.6,0-1.2,0.2-1.7,0.6c-0.5,0.4-0.8,1-0.9,1.7H262.5z M273.5,127.2v3.2H272c0-0.5-0.3-1-0.7-1.4
			c-1-0.8-2.4-0.6-3.3,0.3c-0.5,0.6-0.7,1.3-0.7,2c0,0.7,0.2,1.5,0.7,2.1c0.4,0.6,1.2,1,1.9,0.9c1.1,0,2.1-0.6,2.5-1.6l1.4,0.6
			c-0.6,1.6-2.2,2.6-3.9,2.5c-1.2,0.1-2.4-0.4-3.1-1.4c-0.8-0.9-1.2-1.9-1.2-3.1c0-1.2,0.4-2.3,1.2-3.1c0.8-0.8,1.8-1.2,2.9-1.2
			c0.9,0,1.7,0.3,2.4,0.8v-0.6H273.5z M276,134.1V125h-1.5v-1.4h3.2v4.6c0.8-0.7,1.8-1.1,2.8-1.2c0.5,0,1,0.1,1.4,0.3
			c0.3,0.2,0.6,0.5,0.7,0.9c0.1,0.5,0.2,1.1,0.2,1.7v4.2h1.4v1.4h-3.1v-5.1c0-0.4,0-0.9-0.1-1.3c0-0.2-0.2-0.4-0.3-0.5
			c-0.2-0.1-0.4-0.2-0.6-0.2c-0.9,0.1-1.8,0.5-2.4,1.1v4.6h1.5v1.4h-4.6v-1.4H276z M287.9,127.2v1c0.8-0.7,1.8-1.1,2.9-1.1
			c0.5,0,1,0.1,1.4,0.4c0.3,0.2,0.6,0.6,0.7,0.9c0.1,0.5,0.2,1.1,0.2,1.6v4.1h1.4v1.5h-3.1v-5.5c0.1-0.4,0-0.9-0.3-1.2
			c-0.2-0.2-0.4-0.3-0.7-0.3c-0.9,0.1-1.8,0.5-2.5,1.1v4.5h1.4v1.4h-4.6v-1.4h1.5v-5.4h-1.5v-1.5H287.9z M295.1,131.4
			c0-1.2,0.4-2.3,1.3-3.2c0.8-0.8,2-1.3,3.1-1.2c1.2,0,2.3,0.4,3.1,1.2c0.9,0.8,1.3,2,1.3,3.2c0,1.2-0.4,2.4-1.3,3.2
			c-1.8,1.7-4.5,1.7-6.2,0C295.5,133.8,295.1,132.6,295.1,131.4L295.1,131.4z M296.9,131.4c0,0.7,0.3,1.5,0.8,2
			c0.5,0.5,1.2,0.8,1.9,0.8c0.7,0,1.4-0.3,1.9-0.8c0.5-0.5,0.8-1.3,0.8-2c0-0.7-0.3-1.5-0.8-2c-0.5-0.5-1.2-0.8-1.9-0.8
			c-0.7,0-1.4,0.3-1.9,0.8C297.1,130,296.9,130.7,296.9,131.4L296.9,131.4z M306.5,134.1V125H305v-1.4h3.1v10.6h1.3v1.4H305v-1.4
			H306.5z M310.5,131.4c0-1.2,0.4-2.3,1.3-3.2c0.8-0.8,2-1.3,3.1-1.2c1.2,0,2.3,0.4,3.1,1.2c0.9,0.8,1.3,2,1.3,3.2
			c0,1.2-0.4,2.3-1.3,3.2c-0.8,0.8-2,1.3-3.1,1.2c-2.4,0.1-4.3-1.8-4.4-4.2C310.5,131.5,310.5,131.5,310.5,131.4L310.5,131.4z
			 M312.2,131.4c0,0.7,0.3,1.5,0.8,2c1,1,2.7,1.1,3.7,0.1c0,0,0,0,0.1-0.1c0.5-0.5,0.8-1.3,0.8-2c0-0.7-0.3-1.5-0.8-2
			c-0.5-0.5-1.2-0.8-1.9-0.8c-0.7,0-1.4,0.3-1.9,0.8C312.5,130,312.2,130.7,312.2,131.4L312.2,131.4z M330.8,127.2v1.5h-1.5v6.2
			c0,0.6,0,1.3-0.1,1.9c-0.1,0.5-0.3,0.9-0.6,1.2c-0.4,0.5-0.9,0.8-1.5,1.1c-0.7,0.3-1.5,0.4-2.2,0.4c-1.2,0-2.4-0.4-3.3-1.1
			l1.1-1.2c0.7,0.5,1.5,0.8,2.4,0.9c0.5,0,0.9-0.1,1.3-0.3c0.4-0.1,0.7-0.4,0.9-0.7c0.2-0.2,0.3-0.5,0.4-0.7
			c0.1-0.4,0.1-0.8,0.1-1.2v-0.8c-1.4,1.7-3.9,1.9-5.6,0.5c-0.1-0.1-0.2-0.2-0.4-0.3c-0.7-0.8-1.2-1.9-1.1-3c0-1.2,0.4-2.4,1.2-3.2
			c1.5-1.6,4.1-1.6,5.7-0.1c0.1,0.1,0.1,0.1,0.2,0.2v-1.2L330.8,127.2z M322.3,131.5c0,0.8,0.2,1.5,0.7,2.1c0.5,0.5,1.2,0.8,1.9,0.8
			c0.7,0,1.4-0.3,1.9-0.8c0.5-0.6,0.8-1.3,0.8-2.1c0-0.8-0.3-1.5-0.8-2.1c-1-1-2.7-1.1-3.7,0c0,0,0,0,0,0
			C322.6,130,322.3,130.7,322.3,131.5L322.3,131.5z M334.8,135.5l-2.8-6.8h-1.4v-1.5h4.1v1.5h-1l1.8,4.6l1.8-4.6h-1.1v-1.5h4.1v1.5
			h-1.3l-4.1,10.7h-2.8v-1.4h1.6L334.8,135.5z M348.9,123.3h1.4v16.3h-1.4V123.3z M360.5,134.1v-9h-1.4v-1.5h4.1l3.2,8.3l3.2-8.3
			h4.2v1.5h-1.5v9h1.5v1.5h-4.5v-1.5h1.4v-9l-4.2,10.6h-0.4l-4.1-10.7v9h1.3v1.5h-4.3v-1.5L360.5,134.1z M383.7,131.8h-7
			c0.1,0.7,0.4,1.4,0.9,1.9c0.5,0.5,1.3,0.8,2,0.7c1.1,0,2.1-0.5,2.7-1.4l1.5,0.6c-0.4,0.7-1.1,1.3-1.8,1.6
			c-0.7,0.4-1.5,0.5-2.4,0.5c-1.2,0-2.4-0.4-3.3-1.2c-0.9-0.8-1.4-2-1.4-3.2c0-1.2,0.4-2.4,1.3-3.2c0.8-0.8,1.9-1.3,3-1.3
			c1.1,0,2.2,0.4,3.1,1.2C383.3,129.2,383.8,130.5,383.7,131.8L383.7,131.8z M382,130.6c-0.1-0.6-0.5-1.2-0.9-1.6
			c-0.5-0.5-1.1-0.7-1.8-0.7c-0.6,0-1.2,0.2-1.7,0.6c-0.5,0.4-0.8,1-0.9,1.7H382z M395.4,134.1v1.4h-3.1v-1.2
			c-0.7,0.9-1.8,1.4-3,1.4c-1.1,0-2.1-0.4-2.9-1.2c-0.9-0.8-1.3-2-1.2-3.2c-0.1-1.2,0.4-2.4,1.3-3.3c0.8-0.8,1.8-1.2,2.9-1.2
			c1.1,0,2.2,0.5,3,1.4V125h-1.6v-1.4h3.2v10.6H395.4z M386.9,131.4c-0.1,0.8,0.2,1.6,0.8,2.2c0.5,0.5,1.2,0.8,1.9,0.8
			c0.7,0,1.4-0.3,1.9-0.8c0.6-0.6,0.9-1.4,0.8-2.2c0.1-0.8-0.3-1.6-0.8-2.1c-0.5-0.5-1.2-0.7-1.9-0.7c-0.7,0-1.4,0.3-1.9,0.8
			C387.2,130,386.9,130.7,386.9,131.4L386.9,131.4z M397.3,134.1v-5.4H396v-1.5h3v6.9h1.3v1.4H396v-1.4H397.3z M397.1,124.4
			c0-0.6,0.4-1,1-1c0.3,0,0.5,0.1,0.7,0.3c0.4,0.4,0.4,1,0,1.4c-0.2,0.2-0.4,0.3-0.7,0.3c-0.3,0-0.5-0.1-0.7-0.3
			C397.2,124.9,397.1,124.6,397.1,124.4L397.1,124.4z M409.2,127.2v3.2h-1.5c0-0.5-0.3-1-0.7-1.4c-0.4-0.3-0.9-0.5-1.5-0.5
			c-0.7,0-1.4,0.3-1.8,0.8c-0.5,0.6-0.7,1.3-0.7,2c0,0.7,0.2,1.5,0.6,2.1c0.4,0.6,1.2,1,1.9,0.9c1.1,0,2.1-0.6,2.5-1.6l1.4,0.6
			c-0.6,1.6-2.2,2.7-4,2.6c-1.2,0.1-2.4-0.4-3.1-1.4c-0.8-0.9-1.2-2-1.1-3.1c0-1.2,0.4-2.3,1.3-3.1c0.8-0.8,1.8-1.2,2.9-1.2
			c0.9,0,1.7,0.3,2.4,0.8v-0.6H409.2z M411.7,134.1v-5.4h-1.2v-1.5h2.9v6.9h1.3v1.4h-4.2v-1.4H411.7z M411.5,124.4
			c0-0.3,0.1-0.5,0.3-0.7c0.4-0.4,1-0.4,1.4,0c0,0,0,0,0,0c0.4,0.4,0.4,1,0,1.4c-0.4,0.4-1,0.4-1.4,0
			C411.6,124.9,411.5,124.7,411.5,124.4L411.5,124.4z M418.6,127.2v1c0.8-0.7,1.8-1.1,2.9-1.1c0.5,0,0.9,0.1,1.3,0.4
			c0.3,0.2,0.6,0.6,0.7,0.9c0.1,0.5,0.2,1.1,0.2,1.6v4.1h1.4v1.4h-3v-5.5c0.1-0.4-0.1-0.9-0.3-1.2c-0.2-0.2-0.4-0.3-0.7-0.3
			c-0.9,0.1-1.8,0.5-2.5,1.1v4.5h1.4v1.4h-4.6v-1.4h1.5v-5.4h-1.5v-1.5H418.6z M434.7,131.8h-7c0.1,0.7,0.4,1.4,0.9,1.9
			c0.5,0.5,1.2,0.7,2,0.7c1.1,0,2.1-0.5,2.7-1.4l1.5,0.6c-0.4,0.7-1.1,1.3-1.8,1.6c-0.7,0.4-1.6,0.5-2.4,0.5c-1.2,0-2.4-0.4-3.3-1.2
			c-0.9-0.8-1.4-2-1.4-3.2c0-1.2,0.4-2.4,1.3-3.2c0.8-0.8,1.9-1.3,3.1-1.3c1.1,0,2.2,0.4,3.1,1.2
			C434.3,129.2,434.8,130.5,434.7,131.8L434.7,131.8z M433,130.6c-0.1-0.6-0.4-1.2-0.9-1.6c-0.5-0.5-1.1-0.7-1.8-0.7
			c-0.6,0-1.2,0.2-1.7,0.6c-0.5,0.4-0.8,1-0.9,1.7H433z"/>
	</defs>
	<clipPath id="SVGID_00000143602436369209942350000018151675384979744426_">
		<use xlink:href="#SVGID_00000106117319553122358780000009245967182227576455_"  style="overflow:visible;"/>
	</clipPath>
	<g style="clip-path:url(#SVGID_00000143602436369209942350000018151675384979744426_);">
		<g>
			<defs>
				<rect id="SVGID_00000132769953179999982220000016582912055244421275_" x="1.2" width="720" height="1147.7"/>
			</defs>
			<clipPath id="SVGID_00000103971912282501947840000015642957888067949455_">
				<use xlink:href="#SVGID_00000132769953179999982220000016582912055244421275_"  style="overflow:visible;"/>
			</clipPath>
			<g style="clip-path:url(#SVGID_00000103971912282501947840000015642957888067949455_);">
				
					<image style="overflow:visible;enable-background:new    ;" width="3000" height="4782" xlink:href="3B861D005558DB3D.png"  transform="matrix(0.24 0 0 0.24 1.22 0)">
				</image>
			</g>
		</g>
	</g>
</g>
<g>
	<defs>
		<path id="SVGID_00000000904208368232642300000015440772461135799690_" d="M-499.2,886.8v-13.9h-2.5v-2.3h7.2
			c1.5,0,3.1,0.1,4.6,0.3c1.1,0.2,2.2,0.7,3.1,1.4c1,0.8,1.9,1.8,2.4,3c0.6,1.3,0.9,2.8,0.9,4.3c0,1.6-0.3,3.3-0.9,4.8
			c-0.5,1.2-1.3,2.2-2.3,3c-1,0.7-2.1,1.2-3.4,1.4c-1.6,0.3-3.3,0.4-5,0.4h-6.7v-2.3L-499.2,886.8z M-496.4,886.8h1.5
			c1.3,0,2.6-0.1,3.9-0.3c0.9-0.2,1.7-0.5,2.4-1c0.7-0.6,1.3-1.4,1.6-2.2c0.4-1.1,0.6-2.3,0.6-3.5c0.1-1.4-0.3-2.9-1-4.1
			c-0.6-1-1.5-1.8-2.6-2.2c-1.6-0.4-3.2-0.6-4.8-0.5h-1.6V886.8z M-467.4,883.3h-10.9c0.1,1.1,0.6,2.1,1.4,2.9
			c0.8,0.8,1.9,1.2,3,1.1c1.7,0.1,3.3-0.8,4.2-2.1l2.2,1c-0.7,1.1-1.7,2-2.8,2.5c-1.1,0.5-2.4,0.8-3.7,0.8c-1.9,0-3.7-0.6-5.1-1.8
			c-1.4-1.3-2.2-3.1-2.1-5c-0.1-1.8,0.7-3.6,2-4.9c1.3-1.2,2.9-1.9,4.7-1.9c1.8,0,3.4,0.7,4.7,1.9
			C-468.1,879.2-467.3,881.2-467.4,883.3L-467.4,883.3z M-470,881.5c-0.2-1-0.7-1.8-1.4-2.5c-0.8-0.7-1.8-1.1-2.8-1.1
			c-1,0-1.9,0.3-2.6,1c-0.7,0.7-1.2,1.6-1.4,2.6H-470z M-463.9,892.7v-14.2h-2.2v-2.3h4.7v2c1.1-1.4,2.8-2.2,4.6-2.2
			c1.7,0,3.3,0.7,4.5,1.9c1.2,1.3,1.9,3.1,1.8,4.9c0.1,1.9-0.6,3.7-1.9,5c-2.4,2.4-6.4,2.4-8.8,0c-0.1-0.1-0.1-0.1-0.2-0.2v5.2h2.5
			v2.2h-7.4v-2.2L-463.9,892.7z M-461.4,882.9c0,0.7,0.2,1.4,0.4,2c0.3,0.7,0.8,1.2,1.4,1.6c0.7,0.4,1.5,0.7,2.3,0.7
			c1.1,0,2.2-0.4,3-1.2c0.8-0.9,1.3-2.1,1.2-3.3c0.1-1.2-0.4-2.4-1.2-3.2c-0.7-0.7-1.8-1.2-2.8-1.2c-1.1,0-2.2,0.4-3,1.3
			C-461,880.4-461.4,881.6-461.4,882.9z M-435.1,886.9v2.3h-4.4v-1.6c-1.1,1.1-2.6,1.8-4.1,1.8c-1.1,0-2.2-0.4-3.1-1.2
			c-0.9-0.7-1.3-1.8-1.3-2.9c0-1.2,0.5-2.3,1.4-3c0.9-0.8,2.1-1.2,3.3-1.2c1.3,0,2.5,0.4,3.5,1.1v-1.3c0-0.5,0-1-0.2-1.5
			c-0.2-0.4-0.5-0.8-0.9-1c-0.5-0.3-1.2-0.5-1.8-0.4c-1.1-0.1-2.2,0.5-2.8,1.6l-2.4-0.6c1.1-2,2.9-3,5.6-3c0.9,0,1.7,0.1,2.5,0.4
			c0.6,0.2,1.2,0.5,1.6,1c0.3,0.4,0.6,0.9,0.7,1.3c0.1,0.8,0.2,1.5,0.2,2.3v6L-435.1,886.9z M-439.8,884.3c-0.9-0.8-2.1-1.3-3.3-1.3
			c-0.6,0-1.3,0.2-1.8,0.6c-0.5,0.4-0.7,1-0.7,1.6c0,0.6,0.2,1.1,0.6,1.5c0.5,0.4,1.1,0.7,1.7,0.6c1.3,0,2.6-0.6,3.5-1.5V884.3z
			 M-431.6,886.9v-8.4h-2.6v-2.3h4.6v2.9c0.3-0.7,0.7-1.4,1.2-1.9c0.4-0.5,1-0.8,1.6-1c0.8-0.2,1.5-0.3,2.3-0.2h0.7v2.6h-0.5
			c-1,0-2,0.1-2.9,0.4c-0.6,0.3-1.2,0.8-1.4,1.4c-0.4,1.2-0.5,2.4-0.5,3.7v2.8h2.8v2.3h-8v-2.3L-431.6,886.9z M-422.1,878.5v-2.3
			h1.7v-2l2.5-2.3v4.3h2.4v2.3h-2.4v6.3c0,0.6,0,1.3,0.2,1.9c0.1,0.2,0.4,0.4,0.8,0.4c0.5,0,0.9-0.1,1.4-0.3v2.3
			c-0.6,0.2-1.3,0.3-2,0.3c-0.7,0-1.3-0.1-1.9-0.5c-0.4-0.3-0.8-0.8-0.9-1.3c-0.2-0.9-0.2-1.8-0.2-2.7v-6.4L-422.1,878.5z
			 M-411.7,886.9v-8.4h-2.1v-2.3h4.7v1.6c1.2-1.1,2.8-1.8,4.5-1.8c1.3-0.1,2.6,0.7,3.1,2c1.3-1.2,3-1.9,4.7-2c0.7,0,1.5,0.2,2.1,0.6
			c0.5,0.3,0.9,0.8,1.1,1.4c0.2,0.8,0.3,1.7,0.3,2.5v6.4h2.3v2.3h-4.8V881c0-0.5,0-1.1-0.1-1.6c-0.1-0.3-0.3-0.6-0.5-0.8
			c-0.3-0.2-0.6-0.3-1-0.3c-1.4,0.1-2.7,0.7-3.7,1.7v6.9h2.2v2.3h-4.8v-8.5c0-0.6-0.1-1.3-0.4-1.8c-0.3-0.4-0.8-0.6-1.2-0.6
			c-1.4,0.2-2.7,0.8-3.7,1.7v6.9h2.3v2.3h-7.1v-2.3L-411.7,886.9z M-376.3,883.3h-10.9c0.1,1.1,0.6,2.1,1.4,2.9
			c0.8,0.8,1.9,1.2,3,1.1c1.7,0.1,3.3-0.8,4.2-2.1l2.2,1c-0.7,1.1-1.7,2-2.9,2.5c-1.1,0.5-2.4,0.8-3.7,0.8c-1.9,0-3.7-0.6-5.1-1.8
			c-1.4-1.3-2.2-3.1-2.1-5c-0.1-1.9,0.7-3.6,2.1-4.9c1.3-1.2,2.9-1.9,4.7-1.9c1.8,0,3.4,0.7,4.7,1.9
			C-377,879.2-376.2,881.2-376.3,883.3L-376.3,883.3z M-379,881.5c-0.2-1-0.7-1.8-1.4-2.5c-0.8-0.7-1.8-1.1-2.8-1.1
			c-1,0-1.9,0.3-2.6,1c-0.7,0.7-1.2,1.6-1.3,2.6L-379,881.5z M-369.8,876.2v1.6c1.3-1,2.8-1.7,4.5-1.8c0.7,0,1.5,0.2,2.1,0.6
			c0.5,0.3,0.9,0.9,1.1,1.5c0.2,0.8,0.3,1.7,0.3,2.5v6.3h2.2v2.3h-4.7v-8.5c0.1-0.7-0.1-1.4-0.4-1.9c-0.3-0.3-0.7-0.4-1.1-0.4
			c-1.4,0.1-2.8,0.7-3.8,1.6v6.9h2.2v2.3h-7v-2.3h2.3v-8.4h-2.3v-2.3L-369.8,876.2z M-358.8,878.5v-2.3h1.7v-2l2.5-2.3v4.3h2.4v2.3
			h-2.4v6.3c0,0.6,0,1.3,0.2,1.9c0.1,0.2,0.4,0.4,0.8,0.4c0.5,0,0.9-0.1,1.4-0.3v2.3c-0.6,0.2-1.3,0.4-2,0.3c-0.7,0-1.3-0.1-1.9-0.5
			c-0.5-0.3-0.8-0.8-0.9-1.3c-0.2-0.9-0.2-1.8-0.2-2.7v-6.4L-358.8,878.5z M-349,879.5v-3.3h3.3v3.3L-349,879.5z M-349,889.1v-3.3
			h3.3v3.3H-349z M-309.1,887.2v-11.3h-2v-1.9h5.8c1.2,0,2.5,0.1,3.7,0.2c0.9,0.2,1.7,0.6,2.4,1.2c0.9,0.6,1.6,1.4,2,2.4
			c0.5,1.1,0.8,2.3,0.7,3.5c0,1.3-0.2,2.6-0.7,3.9c-0.4,1-1,1.8-1.9,2.5c-0.8,0.6-1.7,1-2.7,1.1c-1.3,0.2-2.7,0.3-4,0.3h-5.5v-1.9
			L-309.1,887.2z M-306.8,887.2h1.2c1.1,0,2.1-0.1,3.2-0.2c0.7-0.1,1.4-0.4,2-0.8c0.6-0.5,1-1.1,1.3-1.8c0.3-0.9,0.5-1.9,0.5-2.9
			c0-1.2-0.2-2.3-0.8-3.3c-0.5-0.8-1.2-1.5-2.1-1.8c-1.3-0.3-2.6-0.5-3.9-0.4h-1.3L-306.8,887.2z M-292.6,887.2v-11.3h-2v-1.9h12.5
			v4.5h-1.9v-2.7h-6.4v4.6h5.6v1.9h-5.6v4.9h6.4v-2.8h1.9v4.6h-12.6v-1.9L-292.6,887.2z M-279,887.2v-11.3h-1.9v-1.9h5.4
			c1.2,0,2.4,0.1,3.6,0.3c0.8,0.2,1.5,0.8,2,1.5c0.5,0.8,0.8,1.8,0.8,2.8c0,0.8-0.2,1.6-0.5,2.3c-0.3,0.6-0.7,1.1-1.3,1.5
			c-0.5,0.3-1.1,0.5-1.7,0.7c-1,0.1-2,0.2-2.9,0.2h-1v3.9h2v1.9h-6.1v-1.9L-279,887.2z M-276.7,881.5h1.3c1.1,0.1,2.1-0.1,3.1-0.6
			c0.6-0.6,1-1.4,0.9-2.2c0-0.6-0.1-1.2-0.5-1.7c-0.3-0.4-0.7-0.7-1.1-0.9c-0.7-0.1-1.5-0.2-2.2-0.2h-1.4L-276.7,881.5z
			 M-259.8,883.8h-5.5l-1.1,3.4h1.8v1.9h-5.9v-1.9h1.8l4.1-11.5h-1.8v-1.7h7.7v1.7h-1.9l4.2,11.5h1.7v1.9h-5.9v-1.9h1.9
			L-259.8,883.8z M-260.3,882.1l-2-6.3h-0.2l-2.1,6.3H-260.3z M-252.4,887.2v-11.3h-2.1v-1.9h6.1c1,0,2,0.1,3,0.3
			c0.7,0.2,1.4,0.6,1.9,1.3c0.5,0.7,0.8,1.5,0.7,2.4c0.1,1.9-1.3,3.5-3.1,3.8l2.7,5.5h1.8v1.9h-3.3l-3.4-7h-2.1v5.2h1.9v1.9h-6.3
			v-1.9L-252.4,887.2z M-250.1,880.2h1.8c0.6,0,1.3,0,1.9-0.2c0.4-0.1,0.8-0.3,1-0.7c0.3-0.4,0.4-0.9,0.4-1.4c0-0.4-0.1-0.9-0.4-1.2
			c-0.2-0.3-0.6-0.6-1-0.7c-0.6-0.1-1.2-0.1-1.8-0.1h-1.9L-250.1,880.2z M-236.1,887.2v-11.3h-3.1v3.8h-1.9v-5.7h12.2v5.7h-1.9v-3.8
			h-3.1v11.3h2v1.9h-6.2v-1.9H-236.1z M-226.3,887.2v-11.3h-1.8v-1.9h5.2l4,10.3l4-10.3h5.2v1.9h-1.8v11.3h1.8v1.9h-5.7v-1.9h1.8
			v-11.3l-5.2,13.3h-0.5l-5.1-13.3v11.3h1.7v1.9h-5.3v-1.9H-226.3z M-206.7,887.2v-11.3h-2v-1.9h12.5v4.5h-1.9v-2.7h-6.4v4.6h5.6
			v1.9h-5.6v4.9h6.4v-2.8h1.9v4.6h-12.5v-1.9L-206.7,887.2z M-193.1,887.2v-11.3h-2.1v-1.9h5.1l6.6,11.7v-9.8h-2.2v-1.9h6.2v1.9
			h-2.2v13.3h-2.3l-7.2-12.8v10.8h2.1v1.9h-6.1v-1.9L-193.1,887.2z M-174.2,887.2v-11.3h-3.1v3.8h-1.9v-5.7h12.2v5.7h-1.9v-3.8h-3.1
			v11.3h2v1.9h-6.2v-1.9H-174.2z"/>
	</defs>
	<clipPath id="SVGID_00000083798929891821159450000010445249288663567038_">
		<use xlink:href="#SVGID_00000000904208368232642300000015440772461135799690_"  style="overflow:visible;"/>
	</clipPath>
	<g style="clip-path:url(#SVGID_00000083798929891821159450000010445249288663567038_);">
		<g>
			<defs>
				<rect id="SVGID_00000145029136698244139220000008300853267113631142_" x="-542.5" y="99.9" width="720" height="1147.7"/>
			</defs>
			<clipPath id="SVGID_00000006688088946859643960000013452846827236799625_">
				<use xlink:href="#SVGID_00000145029136698244139220000008300853267113631142_"  style="overflow:visible;"/>
			</clipPath>
			<g style="clip-path:url(#SVGID_00000006688088946859643960000013452846827236799625_);">
				
					<image style="overflow:visible;enable-background:new    ;" width="3000" height="4782" xlink:href="3B861D005558DB3E.png"  transform="matrix(0.24 0 0 0.24 -542.4908 99.9077)">
				</image>
			</g>
		</g>
	</g>
</g>
<g>
	<defs>
		<path id="SVGID_00000057114455487686176620000005903292886754025390_" d="M41.8,933.6v-6.8h2.3v1.6c1.1,2,2.6,3,4.4,3
			c0.9,0,1.7-0.3,2.3-0.8c0.6-0.5,1-1.4,1-2.2c0.1-0.7-0.2-1.4-0.8-1.9c-0.9-0.6-1.9-0.9-2.9-1.2c-1.3-0.3-2.5-0.7-3.7-1.3
			c-0.8-0.4-1.4-1-1.9-1.7c-0.5-0.8-0.7-1.7-0.7-2.6c-0.1-1.4,0.5-2.8,1.6-3.7c1.1-0.9,2.5-1.4,3.9-1.4c1.5,0,3,0.5,4.1,1.4v-1.2
			h2.3v5.6h-2.3v-1.3c-0.8-1.4-2.3-2.2-3.9-2.2c-0.8-0.1-1.7,0.2-2.3,0.7c-0.9,0.7-1.1,2.1-0.4,3c0.3,0.4,0.6,0.6,1,0.8
			c0.8,0.3,1.7,0.6,2.5,0.8c1.2,0.3,2.5,0.7,3.6,1.2c0.8,0.4,1.5,1.1,1.9,1.8c0.5,0.9,0.8,1.9,0.8,3c0,1.5-0.6,2.9-1.7,3.9
			c-1.1,1-2.6,1.6-4.2,1.5c-1.7,0-3.3-0.7-4.6-1.8v1.5H41.8z M58.2,931.3v-8.4h-2v-2.3h4.5v10.7h2v2.3h-6.5v-2.3H58.2z M57.9,916.3
			c0-0.4,0.2-0.8,0.4-1.1c0.6-0.6,1.6-0.6,2.2,0c0.3,0.3,0.4,0.7,0.4,1.1c0,0.4-0.2,0.8-0.5,1.1c-0.3,0.3-0.7,0.5-1.1,0.5
			c-0.4,0-0.8-0.2-1.1-0.5C58,917.1,57.9,916.6,57.9,916.3L57.9,916.3z M80.1,920.6v2.3h-2.3v9.6c0,1,0,1.9-0.2,2.9
			c-0.2,0.7-0.5,1.4-1,1.9c-0.6,0.7-1.4,1.3-2.3,1.7c-1.1,0.5-2.3,0.7-3.4,0.7c-1.8,0-3.6-0.6-5.1-1.7l1.7-1.8
			c1,0.8,2.3,1.3,3.7,1.3c0.7,0,1.4-0.1,2-0.4c0.5-0.2,1-0.6,1.4-1c0.3-0.3,0.5-0.7,0.6-1.1c0.1-0.6,0.2-1.2,0.1-1.8v-1.2
			c-0.5,0.6-1.2,1.1-1.9,1.4c-0.9,0.5-1.8,0.7-2.8,0.7c-1.7,0.1-3.4-0.6-4.5-1.9c-1.2-1.3-1.8-3-1.8-4.7c-0.1-1.9,0.6-3.7,1.9-5
			c2.4-2.4,6.3-2.5,8.7-0.1c0.1,0.1,0.2,0.2,0.3,0.3v-1.9H80.1z M67,927.2c0,1.2,0.4,2.3,1.2,3.2c0.7,0.8,1.8,1.3,2.9,1.2
			c1.1,0,2.2-0.4,3-1.2c0.8-0.8,1.3-2,1.2-3.2c0.1-1.2-0.4-2.4-1.2-3.2c-0.8-0.8-1.8-1.2-2.9-1.2c-1.1,0-2.1,0.4-2.9,1.2
			C67.4,924.8,66.9,926,67,927.2L67,927.2z M86,920.6v1.6c1.3-1,2.8-1.6,4.5-1.7c0.7,0,1.5,0.2,2.1,0.6c0.5,0.3,0.9,0.9,1.1,1.5
			c0.2,0.8,0.3,1.7,0.2,2.5v6.3h2.2v2.3h-4.7v-8.5c0.1-0.7-0.1-1.4-0.4-1.9c-0.3-0.3-0.7-0.5-1.1-0.4c-1.4,0.1-2.8,0.7-3.8,1.6v6.9
			h2.2v2.3h-7v-2.3h2.2v-8.4h-2.3v-2.3H86z M110.3,931.3v2.3h-4.4V932c-1.1,1.1-2.6,1.8-4.1,1.8c-1.1,0-2.2-0.4-3.1-1.2
			c-1.6-1.5-1.7-4-0.2-5.7c0.1-0.1,0.2-0.2,0.3-0.3c0.9-0.8,2.1-1.2,3.3-1.2c1.3,0,2.5,0.4,3.5,1.1v-1.3c0-0.5,0-1-0.2-1.5
			c-0.2-0.4-0.5-0.8-0.9-1c-0.5-0.3-1.2-0.5-1.8-0.4c-1.1-0.1-2.2,0.5-2.8,1.5l-2.4-0.6c1.1-2,2.9-3,5.6-3c0.9,0,1.7,0.1,2.5,0.4
			c0.6,0.2,1.1,0.5,1.6,1c0.3,0.4,0.6,0.9,0.7,1.3c0.2,0.8,0.2,1.5,0.2,2.3v6L110.3,931.3z M105.6,928.7c-0.9-0.8-2.1-1.3-3.3-1.3
			c-0.6,0-1.3,0.2-1.8,0.6c-0.5,0.4-0.7,1-0.7,1.6c0,0.6,0.2,1.1,0.6,1.5c0.5,0.4,1.1,0.7,1.7,0.6c1.3,0,2.6-0.6,3.5-1.5
			L105.6,928.7z M111.5,922.9v-2.3h1.7v-2l2.5-2.3v4.3h2.4v2.3h-2.4v6.3c0,0.6,0,1.3,0.2,1.9c0.1,0.2,0.4,0.3,0.8,0.3
			c0.5,0,0.9-0.1,1.4-0.3v2.3c-0.6,0.2-1.3,0.3-1.9,0.3c-0.7,0-1.3-0.1-1.9-0.5c-0.5-0.3-0.8-0.8-0.9-1.3c-0.2-0.9-0.2-1.8-0.2-2.7
			v-6.4L111.5,922.9z M134,931.3v2.3h-4.8v-1.5c-1.2,1-2.7,1.6-4.3,1.7c-0.8,0-1.5-0.2-2.1-0.6c-0.5-0.3-0.9-0.9-1.1-1.5
			c-0.2-0.9-0.3-1.9-0.3-2.9v-6h-1.8v-2.3h4.4v7.9c0,0.6,0,1.3,0.1,1.9c0,0.3,0.2,0.6,0.5,0.8c0.3,0.2,0.6,0.3,1,0.3
			c1.4-0.1,2.8-0.7,3.8-1.7v-7H127v-2.3h4.8v10.7L134,931.3z M137.5,931.3v-8.4h-2.6v-2.3h4.6v3c0.3-0.7,0.7-1.4,1.2-1.9
			c0.4-0.5,1-0.8,1.6-1c0.8-0.2,1.5-0.3,2.3-0.2h0.7v2.6h-0.5c-1,0-2,0.1-2.9,0.4c-0.6,0.3-1.2,0.8-1.4,1.4
			c-0.4,1.2-0.5,2.4-0.5,3.7v2.8h2.8v2.2h-8v-2.3L137.5,931.3z M159,927.7h-10.9c0.1,1.1,0.6,2.1,1.4,2.9c0.8,0.8,1.9,1.2,3,1.1
			c1.7,0.1,3.3-0.8,4.2-2.1l2.2,1c-0.7,1.1-1.7,2-2.9,2.5c-1.1,0.5-2.4,0.8-3.7,0.8c-1.9,0-3.7-0.6-5.1-1.8c-1.4-1.3-2.2-3.1-2.1-5
			c-0.1-1.8,0.7-3.6,2-4.9c1.3-1.2,2.9-1.9,4.7-1.9c1.8,0,3.4,0.7,4.7,1.9C158.3,923.6,159.1,925.6,159,927.7L159,927.7z
			 M156.5,925.9c-0.2-1-0.7-1.8-1.4-2.5c-0.8-0.7-1.8-1.1-2.8-1.1c-1,0-1.9,0.3-2.6,1c-0.7,0.7-1.2,1.6-1.3,2.6H156.5z M162.5,923.9
			v-3.3h3.3v3.3L162.5,923.9z M162.5,933.5v-3.3h3.3v3.3L162.5,933.5z"/>
	</defs>
	<clipPath id="SVGID_00000044859572894668112880000013188663645985745300_">
		<use xlink:href="#SVGID_00000057114455487686176620000005903292886754025390_"  style="overflow:visible;"/>
	</clipPath>
	<g style="clip-path:url(#SVGID_00000044859572894668112880000013188663645985745300_);">
		<g>
			<defs>
				<rect id="SVGID_00000062914221199133439090000014682237272229998747_" x="1.2" width="720" height="1147.7"/>
			</defs>
			<clipPath id="SVGID_00000103986894611247128400000006129607319535027898_">
				<use xlink:href="#SVGID_00000062914221199133439090000014682237272229998747_"  style="overflow:visible;"/>
			</clipPath>
			<g style="clip-path:url(#SVGID_00000103986894611247128400000006129607319535027898_);">
				
					<image style="overflow:visible;enable-background:new    ;" width="3000" height="4782" xlink:href="3B861D005558DB3F.png"  transform="matrix(0.24 0 0 0.24 1.22 0)">
				</image>
			</g>
		</g>
	</g>
</g>
<path class="st32" d="M483.3,624.7v-13.9h-2.4v-2.3h15.5v5.6H494v-3.3h-7.9v5.5h6.9v2.4h-6.9v6.1h7.9v-3.4h2.3v5.7h-15.5v-2.3
	L483.3,624.7z M500.3,624.8v-8.4h-2.1v-2.3h4.7v1.6c1.2-1.1,2.8-1.8,4.5-1.8c1.4-0.1,2.6,0.7,3,2c1.3-1.2,3-1.9,4.7-2
	c0.7,0,1.4,0.2,2.1,0.5c0.5,0.3,0.9,0.8,1.1,1.4c0.2,0.8,0.3,1.7,0.3,2.5v6.4h2.3v2.3H516v-8.2c0-0.5,0-1.1-0.1-1.6
	c-0.1-0.3-0.2-0.6-0.5-0.8c-0.3-0.2-0.6-0.3-1-0.3c-1.4,0.1-2.7,0.7-3.7,1.7v6.9h2.2v2.3h-4.8v-8.5c0-0.6-0.1-1.3-0.4-1.8
	c-0.3-0.4-0.8-0.6-1.2-0.6c-1.4,0.2-2.7,0.8-3.7,1.7v6.9h2.3v2.3H498v-2.3L500.3,624.8z M535.1,624.8v2.3h-4.5v-1.6
	c-1.1,1.1-2.6,1.8-4.1,1.8c-1.1,0-2.2-0.4-3.1-1.2c-1.6-1.4-1.8-3.9-0.3-5.5c0.1-0.1,0.3-0.3,0.4-0.4c0.9-0.8,2.1-1.2,3.3-1.2
	c1.3,0,2.5,0.4,3.5,1.1v-1.3c0-0.5,0-1-0.2-1.5c-0.2-0.4-0.5-0.8-0.9-1c-0.5-0.3-1.2-0.4-1.8-0.4c-1.1-0.1-2.2,0.5-2.8,1.5l-2.4-0.6
	c1.1-2,2.9-3,5.6-3c0.9,0,1.7,0.1,2.5,0.4c0.6,0.2,1.2,0.5,1.6,1c0.3,0.4,0.6,0.8,0.7,1.3c0.1,0.8,0.2,1.5,0.2,2.3v6L535.1,624.8z
	 M530.4,622.2c-0.9-0.8-2.1-1.2-3.3-1.3c-0.6,0-1.3,0.2-1.8,0.6c-0.5,0.4-0.7,1-0.7,1.6c0,0.6,0.2,1.1,0.6,1.5
	c0.5,0.4,1.1,0.6,1.7,0.6c1.3,0,2.6-0.6,3.5-1.5V622.2z M538.4,624.8v-8.4h-2v-2.3h4.5v10.7h2v2.3h-6.5v-2.3H538.4z M538,609.7
	c0-0.4,0.2-0.8,0.4-1.1c0.3-0.3,0.7-0.5,1.1-0.5c0.4,0,0.8,0.2,1.1,0.4c0.6,0.6,0.6,1.6,0,2.2c-0.6,0.6-1.6,0.6-2.2,0
	C538.2,610.5,538,610.1,538,609.7L538,609.7z M546.3,624.8v-14.1H544v-2.3h4.8v16.3h2v2.3H544v-2.3H546.3z M553.8,617.4v-3.3h3.3
	v3.3H553.8z M553.8,627v-3.3h3.3v3.3H553.8z M674.7,624.8v-8.4h-1.9v-2.2h1.9v-1.9c-0.1-1.2,0.2-2.4,1-3.3c0.6-0.6,1.5-0.9,2.4-0.9
	c1.7-0.2,3.2,1.1,3.4,2.8c0,0.1,0,0.1,0,0.2l-2.2,0.3c-0.1-0.8-0.4-1.2-1-1.2c-0.3,0-0.6,0.1-0.8,0.4c-0.2,0.5-0.3,1.1-0.2,1.7v1.9
	h2.2v2.2h-2.2v8.4h2.5v2.3h-6.9v-2.3L674.7,624.8z M683.2,624.8v-8.4h-2v-2.3h4.5v10.7h2v2.3h-6.5v-2.3H683.2z M682.9,609.7
	c0-0.4,0.2-0.8,0.4-1.1c0.3-0.3,0.7-0.5,1.1-0.5c0.4,0,0.8,0.2,1.1,0.4c0.6,0.6,0.6,1.6,0,2.2c0,0,0,0,0,0c-0.3,0.3-0.7,0.5-1.1,0.5
	c-0.4,0-0.8-0.2-1.1-0.5C683,610.5,682.9,610.1,682.9,609.7L682.9,609.7z M691.5,624.8v-8.4h-2.6v-2.3h4.6v2.9
	c0.3-0.7,0.7-1.3,1.2-1.9c0.4-0.5,1-0.8,1.6-1c0.8-0.2,1.5-0.3,2.3-0.2h0.7v2.6h-0.5c-1,0-2,0.1-2.9,0.4c-0.6,0.3-1.2,0.8-1.4,1.4
	c-0.4,1.2-0.5,2.4-0.5,3.7v2.8h2.8v2.3h-8v-2.3L691.5,624.8z M700.9,627v-4.4h2.3v0.4c0.1,0.6,0.5,1.2,1,1.5c0.6,0.4,1.3,0.6,2,0.6
	c0.7,0,1.4-0.1,2-0.4c0.5-0.2,0.7-0.7,0.7-1.2c0-0.4-0.2-0.9-0.6-1.1c-0.8-0.3-1.6-0.5-2.4-0.6c-1.4-0.1-2.7-0.6-3.8-1.5
	c-0.8-0.7-1.2-1.6-1.1-2.6c0-1,0.4-2,1.2-2.7c0.9-0.8,2.1-1.1,3.3-1.1c1.1,0,2.2,0.2,3.2,0.8v-0.5h2.3v4.3h-2.3v-0.8
	c-0.6-1-1.8-1.6-3-1.6c-0.6,0-1.2,0.1-1.7,0.4c-0.4,0.2-0.6,0.7-0.6,1.2c0,0.4,0.2,0.8,0.6,1c0.8,0.3,1.7,0.5,2.6,0.6
	c1,0.1,1.9,0.4,2.8,0.7c0.6,0.3,1.2,0.7,1.6,1.3c0.4,0.6,0.7,1.4,0.6,2.1c0,1.1-0.5,2.2-1.4,2.9c-2.1,1.4-4.8,1.4-7,0.1v0.7
	L700.9,627z M713.1,616.4v-2.3h1.7v-2l2.5-2.3v4.3h2.4v2.3h-2.4v6.3c0,0.6,0,1.3,0.2,1.9c0.1,0.2,0.4,0.3,0.8,0.3
	c0.5,0,0.9-0.1,1.4-0.3v2.3c-0.6,0.2-1.3,0.3-2,0.3c-0.7,0-1.3-0.2-1.9-0.5c-0.5-0.3-0.8-0.8-0.9-1.3c-0.2-0.9-0.2-1.8-0.2-2.7v-6.4
	L713.1,616.4z M726.1,614.1v1.5c1.3-1,2.8-1.7,4.5-1.8c0.7,0,1.5,0.2,2.1,0.6c0.5,0.4,0.9,0.9,1.1,1.5c0.2,0.8,0.3,1.7,0.2,2.5v6.3
	h2.2v2.3h-4.7v-8.5c0.1-0.7-0.1-1.4-0.4-1.9c-0.3-0.3-0.7-0.5-1.1-0.5c-1.4,0.1-2.8,0.7-3.8,1.6v6.9h2.2v2.3h-7v-2.3h2.3v-8.4h-2.3
	v-2.3L726.1,614.1z M750.4,624.8v2.3H746v-1.6c-1.1,1.1-2.6,1.8-4.1,1.8c-1.1,0-2.2-0.4-3.1-1.2c-1.6-1.5-1.7-4-0.2-5.7
	c0.1-0.1,0.2-0.2,0.3-0.3c0.9-0.8,2.1-1.2,3.3-1.2c1.3,0,2.5,0.4,3.5,1.1v-1.3c0-0.5,0-1-0.2-1.5c-0.2-0.4-0.5-0.8-0.9-1
	c-0.6-0.3-1.2-0.4-1.8-0.4c-1.1-0.1-2.2,0.5-2.8,1.5l-2.4-0.6c1.1-2,2.9-3,5.6-3c0.9,0,1.7,0.1,2.5,0.4c0.6,0.2,1.1,0.5,1.6,1
	c0.3,0.4,0.6,0.8,0.7,1.3c0.1,0.8,0.2,1.5,0.2,2.3v6L750.4,624.8z M745.7,622.2c-0.9-0.8-2.1-1.2-3.3-1.3c-0.6,0-1.3,0.2-1.8,0.6
	c-0.5,0.4-0.7,1-0.7,1.6c0,0.6,0.2,1.1,0.6,1.5c0.5,0.4,1.1,0.6,1.7,0.6c1.3,0,2.6-0.6,3.5-1.5V622.2z M753.8,624.8v-8.4h-2.2v-2.3
	h4.7v1.6c1.2-1.1,2.8-1.8,4.5-1.8c1.4-0.1,2.6,0.7,3,2c1.3-1.2,3-1.9,4.7-2c0.7,0,1.4,0.2,2.1,0.5c0.5,0.3,0.9,0.8,1.1,1.4
	c0.2,0.8,0.3,1.7,0.3,2.5v6.4h2.3v2.3h-4.8v-8.2c0-0.5,0-1.1-0.1-1.6c-0.1-0.3-0.3-0.6-0.5-0.8c-0.3-0.2-0.6-0.3-1-0.3
	c-1.4,0.1-2.7,0.7-3.7,1.7v6.9h2.2v2.3h-4.8v-8.5c0-0.6-0.1-1.3-0.4-1.8c-0.3-0.4-0.8-0.6-1.2-0.6c-1.4,0.2-2.7,0.8-3.7,1.7v6.9h2.3
	v2.3h-7.1v-2.3L753.8,624.8z M789.1,621.2h-10.9c0.1,1.1,0.6,2.1,1.4,2.9c0.8,0.8,1.9,1.2,3,1.1c1.7,0,3.3-0.8,4.2-2.1l2.2,1
	c-0.7,1.1-1.7,2-2.8,2.5c-1.1,0.5-2.4,0.8-3.7,0.8c-1.9,0-3.7-0.6-5.1-1.8c-1.4-1.3-2.2-3.1-2.1-5c-0.1-1.9,0.7-3.6,2-4.9
	c1.3-1.2,2.9-1.9,4.7-1.9c1.8,0,3.4,0.7,4.7,1.9C788.4,617.1,789.2,619.1,789.1,621.2L789.1,621.2z M786.5,619.4
	c-0.2-0.9-0.7-1.8-1.4-2.5c-0.8-0.7-1.8-1.1-2.8-1.1c-1,0-1.9,0.3-2.6,1c-0.7,0.7-1.2,1.6-1.3,2.6L786.5,619.4z M792,627v-3.3h3.2
	v3.3H792z M800.4,624.8v-14.1h-2.3v-2.3h4.8v16.3h2v2.3h-6.8v-2.3H800.4z M819.8,624.8v2.3h-4.4v-1.6c-1.1,1.1-2.6,1.8-4.2,1.8
	c-1.1,0-2.2-0.4-3.1-1.2c-1.6-1.5-1.7-4-0.2-5.7c0.1-0.1,0.2-0.2,0.3-0.3c0.9-0.8,2.1-1.2,3.3-1.2c1.3,0,2.5,0.4,3.5,1.1v-1.3
	c0-0.5,0-1-0.2-1.5c-0.2-0.4-0.5-0.8-0.9-1c-0.6-0.3-1.2-0.4-1.8-0.4c-1.1-0.1-2.2,0.5-2.8,1.5l-2.4-0.6c1.1-2,2.9-3,5.6-3
	c0.9,0,1.7,0.1,2.5,0.4c0.6,0.2,1.2,0.5,1.6,1c0.3,0.4,0.6,0.8,0.7,1.3c0.1,0.8,0.2,1.5,0.2,2.3v6L819.8,624.8z M815.1,622.2
	c-0.9-0.8-2.1-1.2-3.3-1.3c-0.6,0-1.3,0.2-1.8,0.6c-0.5,0.4-0.7,1-0.7,1.6c0,0.6,0.2,1.1,0.6,1.5c0.5,0.4,1.1,0.6,1.7,0.6
	c1.3,0,2.6-0.6,3.5-1.5V622.2z M821.2,627v-4.4h2.3v0.4c0.1,0.6,0.5,1.2,1,1.5c0.6,0.4,1.3,0.6,2,0.6c0.7,0,1.4-0.1,2-0.4
	c0.5-0.2,0.7-0.7,0.7-1.2c0-0.4-0.2-0.9-0.6-1.1c-0.8-0.3-1.6-0.5-2.4-0.6c-1.4-0.1-2.7-0.6-3.8-1.5c-0.8-0.7-1.2-1.6-1.1-2.6
	c0-1,0.4-2,1.2-2.7c0.9-0.8,2.1-1.1,3.3-1.1c1.1,0,2.2,0.2,3.2,0.8v-0.5h2.2v4.3h-2.3v-0.8c-0.6-1-1.8-1.6-3-1.6
	c-0.6,0-1.2,0.1-1.6,0.4c-0.4,0.2-0.7,0.7-0.7,1.2c0,0.4,0.2,0.8,0.6,1c0.8,0.3,1.7,0.5,2.6,0.6c1,0.1,1.9,0.3,2.8,0.7
	c0.6,0.3,1.2,0.7,1.6,1.3c0.4,0.6,0.6,1.4,0.6,2.1c0,1.1-0.5,2.2-1.4,2.9c-2.1,1.4-4.8,1.4-7,0.1v0.7L821.2,627z M833.5,616.4v-2.3
	h1.7v-2l2.5-2.3v4.3h2.4v2.3h-2.4v6.3c0,0.6,0,1.3,0.2,1.9c0.1,0.2,0.4,0.3,0.8,0.3c0.5,0,0.9-0.1,1.4-0.3v2.3
	c-0.6,0.2-1.3,0.3-2,0.3c-0.7,0-1.3-0.2-1.9-0.5c-0.5-0.3-0.8-0.8-0.9-1.3c-0.2-0.9-0.2-1.8-0.2-2.7v-6.4L833.5,616.4z M846.5,614.1
	v1.5c1.3-1,2.8-1.7,4.5-1.8c0.7,0,1.5,0.2,2.1,0.6c0.5,0.4,0.9,0.9,1.1,1.5c0.2,0.8,0.3,1.7,0.3,2.5v6.3h2.2v2.3h-4.7v-8.5
	c0.1-0.7-0.1-1.4-0.4-1.9c-0.3-0.3-0.7-0.5-1.1-0.5c-1.4,0.1-2.7,0.7-3.8,1.6v6.9h2.2v2.3h-7v-2.3h2.3v-8.4h-2.3v-2.3L846.5,614.1z
	 M870.8,624.8v2.3h-4.4v-1.6c-1.1,1.1-2.6,1.8-4.2,1.8c-1.1,0-2.2-0.4-3.1-1.2c-1.6-1.5-1.7-4-0.2-5.7c0.1-0.1,0.2-0.2,0.3-0.3
	c0.9-0.8,2.1-1.2,3.3-1.2c1.3,0,2.5,0.4,3.5,1.1v-1.3c0-0.5,0-1-0.2-1.5c-0.2-0.4-0.5-0.8-0.9-1c-0.5-0.3-1.2-0.4-1.8-0.4
	c-1.1-0.1-2.2,0.5-2.8,1.5l-2.4-0.6c1.1-2,2.9-3,5.6-3c0.9,0,1.7,0.1,2.5,0.4c0.6,0.2,1.2,0.5,1.6,1c0.3,0.4,0.6,0.8,0.7,1.3
	c0.1,0.8,0.2,1.5,0.2,2.3v6L870.8,624.8z M866.1,622.2c-0.9-0.8-2.1-1.2-3.3-1.3c-0.6,0-1.3,0.2-1.8,0.6c-0.5,0.4-0.7,1-0.7,1.6
	c0,0.6,0.2,1.1,0.6,1.5c0.5,0.4,1.1,0.6,1.7,0.6c1.3,0,2.6-0.6,3.5-1.5V622.2z M874.2,624.8v-8.4H872v-2.3h4.7v1.6
	c1.2-1.1,2.8-1.8,4.5-1.8c1.3-0.1,2.6,0.7,3.1,2c1.3-1.2,3-1.9,4.7-2c0.7,0,1.4,0.2,2.1,0.5c0.5,0.3,0.9,0.8,1.1,1.4
	c0.2,0.8,0.3,1.7,0.3,2.5v6.4h2.3v2.3h-4.8v-8.2c0-0.5,0-1.1-0.1-1.6c-0.1-0.3-0.2-0.6-0.5-0.8c-0.3-0.2-0.6-0.3-1-0.3
	c-1.4,0.1-2.7,0.7-3.7,1.7v6.9h2.2v2.3H882v-8.5c0-0.6-0.1-1.3-0.4-1.8c-0.3-0.4-0.8-0.6-1.2-0.6c-1.4,0.2-2.7,0.8-3.7,1.7v6.9h2.3
	v2.3h-7.1v-2.3L874.2,624.8z M909.5,621.2h-11c0.1,1.1,0.6,2.1,1.4,2.9c0.8,0.8,1.9,1.1,3,1.1c1.7,0,3.3-0.8,4.2-2.1l2.2,1
	c-0.7,1.1-1.7,2-2.8,2.5c-1.1,0.5-2.4,0.8-3.7,0.8c-1.9,0-3.7-0.6-5.1-1.8c-1.4-1.3-2.2-3.1-2.1-5c-0.1-1.9,0.7-3.6,2-4.9
	c1.3-1.2,2.9-1.9,4.7-1.9c1.8,0,3.4,0.7,4.7,1.9C908.7,617.1,909.5,619.1,909.5,621.2L909.5,621.2z M906.9,619.4
	c-0.2-0.9-0.7-1.8-1.4-2.5c-0.8-0.7-1.8-1.1-2.8-1.1c-1,0-1.9,0.3-2.6,1c-0.7,0.7-1.2,1.6-1.3,2.6L906.9,619.4z M926.1,625.2
	c-1,1.3-2.5,2.1-4.1,2.2c-1.3,0-2.6-0.6-3.4-1.7c-1-1.2-1.5-2.8-1.4-4.3c0-2.1,0.8-4.2,2.1-5.8c1.1-1.6,2.9-2.6,4.8-2.7
	c1.7,0,3.2,0.9,4,2.4l0.5-2.1h2.4l-1.9,9c-0.3,1.2-0.4,1.9-0.4,2.1c0,0.2,0.1,0.5,0.3,0.6c0.2,0.2,0.4,0.2,0.6,0.2
	c0.7-0.1,1.4-0.4,2-0.9c1-0.7,1.7-1.6,2.2-2.7c0.6-1.2,0.9-2.5,0.9-3.8c0-2.3-1-4.5-2.8-6c-1.9-1.6-4.3-2.5-6.8-2.4
	c-3-0.1-5.9,1.1-8,3.3c-2.1,2.2-3.2,5.1-3.1,8.1c0,3.3,1,5.9,3.1,7.6s4.9,2.7,8.4,2.7c1.9,0,3.8-0.3,5.6-1.1c1.5-0.6,2.8-1.7,3.8-3
	h2.4c-1,1.8-2.4,3.2-4.1,4.2c-2.3,1.3-5,2-7.6,1.8c-4.3,0-7.6-1.1-10-3.3c-2.4-2.3-3.7-5.4-3.5-8.7c-0.1-3.5,1.2-6.9,3.5-9.6
	c2.3-2.7,5.6-4.1,9.8-4.1c3-0.1,6,0.9,8.3,3c3.9,3.7,4.2,9.9,0.6,14c-1.3,1.8-3.3,2.8-5.5,2.9c-0.7,0.1-1.4-0.1-1.9-0.5
	C926.3,626.4,926,625.8,926.1,625.2L926.1,625.2z M919.5,621.7c0,1,0.3,1.9,0.9,2.7c0.5,0.7,1.2,1,2,1.1c1.4-0.1,2.6-0.8,3.4-2
	c1-1.3,1.6-3,1.5-4.7c0.1-1-0.3-2-0.9-2.8c-0.5-0.7-1.4-1-2.2-1c-1.4,0.1-2.7,0.9-3.3,2.2C920,618.5,919.6,620.1,919.5,621.7z
	 M938.9,616.4v-2.3h1.7v-2l2.5-2.3v4.3h2.4v2.3h-2.4v6.3c0,0.6,0,1.3,0.2,1.9c0.1,0.2,0.4,0.3,0.8,0.3c0.5,0,0.9-0.1,1.4-0.3v2.3
	c-0.6,0.2-1.3,0.3-2,0.3c-0.7,0-1.3-0.2-1.9-0.5c-0.5-0.3-0.8-0.8-0.9-1.3c-0.2-0.9-0.2-1.8-0.2-2.7v-6.4L938.9,616.4z M960.5,624.8
	v2.3h-4.4v-1.6c-1.1,1.1-2.6,1.8-4.1,1.8c-1.1,0-2.2-0.4-3.1-1.2c-1.6-1.5-1.7-4-0.2-5.7c0.1-0.1,0.2-0.2,0.3-0.3
	c0.9-0.8,2.1-1.2,3.3-1.2c1.3,0,2.5,0.4,3.5,1.1v-1.3c0-0.5,0-1-0.2-1.5c-0.2-0.4-0.5-0.8-0.9-1c-0.6-0.3-1.2-0.4-1.8-0.4
	c-1.1-0.1-2.2,0.5-2.8,1.5l-2.4-0.6c1.1-2,2.9-3,5.6-3c0.9,0,1.7,0.1,2.5,0.4c0.6,0.2,1.2,0.5,1.6,1c0.3,0.4,0.6,0.8,0.7,1.3
	c0.1,0.8,0.2,1.5,0.2,2.3v6L960.5,624.8z M955.8,622.2c-0.9-0.8-2.1-1.2-3.3-1.3c-0.6,0-1.3,0.2-1.8,0.6c-0.5,0.4-0.7,1-0.7,1.6
	c0,0.6,0.2,1.1,0.6,1.5c0.5,0.4,1.1,0.6,1.7,0.6c1.3,0,2.6-0.6,3.5-1.5V622.2z M976,624.8v2.3h-4.8v-1.5c-1.2,1-2.7,1.6-4.3,1.7
	c-0.8,0-1.5-0.2-2.2-0.6c-0.5-0.3-0.9-0.9-1.1-1.5c-0.2-1-0.3-1.9-0.3-2.9v-5.9h-1.8v-2.3h4.4v7.9c0,0.6,0,1.3,0.1,1.9
	c0.1,0.3,0.2,0.6,0.5,0.8c0.3,0.2,0.6,0.3,1,0.3c1.4-0.1,2.7-0.7,3.8-1.7v-7H969v-2.3h4.8v10.7L976,624.8z M978.6,627v-3.3h3.3v3.3
	H978.6z M998.9,621.2h-10.9c0.1,1.1,0.6,2.1,1.4,2.9c0.8,0.8,1.9,1.2,3,1.1c1.7,0,3.3-0.8,4.2-2.1l2.2,1c-0.7,1.1-1.7,2-2.8,2.5
	c-1.1,0.5-2.4,0.8-3.7,0.8c-1.9,0-3.7-0.6-5.1-1.8c-1.4-1.3-2.2-3.1-2.1-5c-0.1-1.9,0.7-3.6,2.1-4.9c1.3-1.2,2.9-1.9,4.7-1.9
	c1.8,0,3.4,0.7,4.7,1.9C998.2,617.1,999,619.1,998.9,621.2L998.9,621.2z M996.3,619.4c-0.2-0.9-0.7-1.8-1.4-2.5
	c-0.8-0.7-1.8-1.1-2.8-1.1c-1,0-1.9,0.3-2.6,1c-0.7,0.7-1.2,1.6-1.3,2.6L996.3,619.4z M1017,624.8v2.3h-4.8v-1.9
	c-1.2,1.4-2.9,2.1-4.6,2.1c-1.6,0-3.2-0.6-4.4-1.7c-1.3-1.3-2-3-1.9-4.9c-0.1-1.9,0.7-3.7,2-5c1.2-1.2,2.8-1.8,4.4-1.8
	c1.8,0,3.4,0.8,4.6,2.1v-5.1h-2.5v-2.3h5v16.3H1017z M1003.9,620.6c-0.1,1.2,0.4,2.4,1.2,3.3c1.6,1.6,4.2,1.5,5.8-0.1
	c0.9-0.9,1.3-2.1,1.3-3.3c0.1-1.2-0.4-2.4-1.3-3.2c-0.8-0.7-1.8-1.1-2.9-1.1c-1.1,0-2.2,0.5-2.9,1.3
	C1004.3,618.3,1003.8,619.4,1003.9,620.6L1003.9,620.6z M1032.2,624.8v2.3h-4.8v-1.5c-1.2,1-2.7,1.6-4.3,1.7c-0.8,0-1.5-0.2-2.1-0.6
	c-0.5-0.3-0.9-0.9-1.1-1.5c-0.2-1-0.3-1.9-0.3-2.9v-5.9h-1.8v-2.3h4.4v7.9c0,0.6,0,1.3,0.1,1.9c0,0.3,0.2,0.6,0.5,0.8
	c0.3,0.2,0.6,0.3,1,0.3c1.4-0.1,2.8-0.7,3.8-1.7v-7h-2.3v-2.3h4.8v10.7L1032.2,624.8z M1034.8,627v-3.3h3.3v3.3H1034.8z M1046,614.1
	v1.5c1.3-1,2.8-1.6,4.5-1.8c0.7,0,1.5,0.2,2.1,0.6c0.5,0.4,0.9,0.9,1.1,1.5c0.2,0.8,0.3,1.7,0.3,2.5v6.3h2.2v2.3h-4.7v-8.5
	c0.1-0.7-0.1-1.4-0.4-1.9c-0.3-0.3-0.7-0.5-1.1-0.5c-1.4,0.1-2.8,0.7-3.8,1.6v6.9h2.2v2.3h-7v-2.3h2.3v-8.4h-2.3v-2.3L1046,614.1z
	 M1072.9,614.1v2.3h-2.3v9.6c0,1,0,1.9-0.2,2.9c-0.2,0.7-0.5,1.4-1,1.9c-0.6,0.7-1.4,1.3-2.3,1.7c-1.1,0.5-2.3,0.7-3.4,0.7
	c-1.8,0-3.6-0.6-5.1-1.7l1.7-1.8c1,0.8,2.3,1.3,3.7,1.3c0.7,0,1.4-0.1,2-0.4c0.5-0.2,1-0.6,1.4-1c0.3-0.3,0.5-0.7,0.6-1.1
	c0.1-0.6,0.2-1.2,0.1-1.8v-1.2c-1.2,1.3-2.9,2.1-4.7,2.1c-1.7,0.1-3.4-0.6-4.5-1.9c-1.2-1.3-1.8-3-1.8-4.7c-0.1-1.9,0.6-3.7,1.9-5
	c2.4-2.4,6.3-2.5,8.7-0.1c0.1,0.1,0.2,0.2,0.3,0.3v-1.8L1072.9,614.1z M1059.8,620.7c0,1.2,0.4,2.3,1.1,3.2c0.7,0.8,1.8,1.3,2.9,1.2
	c1.1,0,2.2-0.4,3-1.2c0.9-0.8,1.4-2,1.3-3.2c0.1-1.2-0.4-2.4-1.3-3.2c-0.8-0.8-1.8-1.2-2.9-1.2c-1.1,0-2.1,0.4-2.9,1.2
	C1060.2,618.3,1059.7,619.5,1059.8,620.7L1059.8,620.7z"/>
<rect x="-1010.3" y="-674.1" class="st32" width="720" height="1147.7"/>
<rect class="st32" width="721.2" height="1147.7"/>
<text transform="matrix(1 0 0 1 111.04 662.36)" class="st33 st34 st35">LASTNAME Firstname OtherName</text>
<ellipse id="Passport_holder" class="st36" cx="371.3" cy="475.9" rx="121.6" ry="148.9"/>
<text id="Staff_id_value" transform="matrix(1 0 0 1 226.56 754.48)" class="st33 st34 st35">TAU/SSPF/000</text>
<text id="Staff_id" transform="matrix(1 0 0 1 40.85 755.23)" class="st37 st38 st39">Staff ID          :</text>
<text transform="matrix(1 0 0 1 307.6003 694.5774)" class="st38 st40">POSITION</text>
<text id="Staff_id_00000103984985711407932300000005111675659716713101_" transform="matrix(1 0 0 1 42.5499 870.1526)" class="st37 st41 st35">Email     :  </text>
<text id="Staff_id_00000168113164306005880200000007111668216867845009_" transform="matrix(1 0 0 1 40.123 785.9262)" class="st37 st38 st39">Department   :</text>
<text transform="matrix(1 0 0 1 41.4799 822.47)" class="st38 st39">Phone No      :</text>
<text id="Staff_id_value_00000124158555656938346690000016268374441811513512_" transform="matrix(1 0 0 1 75.2787 719.3474)" class="st33 st34 st35">TAU/SSPF/000</text>
</svg>
