<?xml version="1.0" encoding="utf-8"?>
<!-- Generator: Adobe Illustrator 25.4.0, SVG Export Plug-In . SVG Version: 6.00 Build 0)  -->
<svg version="1.1" id="Layer_2_00000099653134960231865370000010247675301169311105_"
	 xmlns="http://www.w3.org/2000/svg" xmlns:xlink="http://www.w3.org/1999/xlink" x="0px" y="0px" viewBox="0 0 512 512"
	 style="enable-background:new 0 0 512 512;" xml:space="preserve">
<style type="text/css">
	.st0{fill:#FF9500;}
</style>
<g>
	<path class="st0" d="M40.1,336c-4.6,0-9.4,0-14.5,0L8,336c-4.4,0-8-3.6-8-8s3.6-8,8-8l17.6,0c40.9,0.1,76.2,0.2,80.7-6.6
		c1.1-1.6,2.2-4.6,3.4-7.8c3.4-8.8,8.1-20.9,20.2-24.1c5.3-1.4,9.6-0.4,12.8,0.3c3,0.7,3.8,0.8,4.9,0.2c3.5-1.7,6-7.1,5.3-9.7
		c-0.1-0.3-0.2-0.6-1.3-1.4c-3.7-2.4-4.7-7.4-2.3-11.1c2.4-3.7,7.4-4.7,11.1-2.3c4.2,2.7,6.8,6.2,8,10.5
		c2.9,10.3-3.4,23.4-13.8,28.4c-6.3,3-11.5,1.8-15.3,1c-2.4-0.5-3.8-0.8-5.2-0.4c-4.2,1.1-6.9,8.2-9.4,14.4c-1.5,4-3,7.7-5,10.8
		C111.2,335,88.3,336,40.1,336L40.1,336z"/>
	<path class="st0" d="M504,360c-0.3,0-0.5,0-0.8,0c-27-0.3-49.5-17.8-66-30.5c-6.7-5.2-15.9-12.3-18.9-12.3h0
		c-5.2,0.1-9.5,1.3-14.9,2.9c-7.9,2.2-17.8,5-33.1,4.6c-12.2-0.3-37.6-1-53.3-17.5c-12.1-12.7-14.9-31.5-6.9-46.7
		c2.1-3.9,6.9-5.4,10.8-3.4c3.9,2.1,5.4,6.9,3.4,10.8c-4.8,9.1-3.1,20.4,4.3,28.2c11.1,11.7,32.1,12.2,42.1,12.5
		c12.9,0.3,20.7-1.9,28.3-4c5.8-1.6,11.8-3.3,19-3.5c8.9-0.4,17.2,6.5,29.1,15.6c15.6,12.1,35,27.2,57,27.2c4.4,0,8,3.6,8,8
		S508.4,360,504,360L504,360z"/>
</g>
<path class="st0" d="M424,264c-4.4,0-8-3.6-8-8V128c0-4.4,3.6-8,8-8s8,3.6,8,8v128C432,260.4,428.4,264,424,264z"/>
<path class="st0" d="M424,176c-2.9,0-5.8-1.6-7.2-4.4c-2-4-0.4-8.8,3.6-10.7l16-8c4-2,8.8-0.4,10.7,3.6s0.4,8.8-3.6,10.7l-16,8
	C426.4,175.7,425.2,176,424,176L424,176z"/>
<path class="st0" d="M424,160c-1.2,0-2.4-0.3-3.6-0.8l-16-8c-4-2-5.6-6.8-3.6-10.7s6.8-5.5,10.7-3.6l16,8c4,2,5.6,6.8,3.6,10.7
	C429.8,158.4,426.9,160,424,160L424,160z"/>
<path class="st0" d="M320,264c-4.4,0-8-3.6-8-8V136c0-4.4,3.6-8,8-8s8,3.6,8,8v120C328,260.4,324.4,264,320,264z"/>
<path class="st0" d="M320,184c-2.9,0-5.8-1.6-7.2-4.4c-2-4-0.4-8.8,3.6-10.7l16-8c4-2,8.8-0.4,10.7,3.6s0.4,8.8-3.6,10.7l-16,8
	C322.4,183.7,321.2,184,320,184L320,184z"/>
<path class="st0" d="M320,168c-1.2,0-2.4-0.3-3.6-0.8l-16-8c-4-2-5.6-6.8-3.6-10.7s6.8-5.5,10.7-3.6l16,8c4,2,5.6,6.8,3.6,10.7
	C325.8,166.4,322.9,168,320,168L320,168z"/>
<path class="st0" d="M456,216c-13.8,0-26.6-5.8-35.8-16.2c-1.3-0.1-2.6-0.3-3.9-0.5C408.9,209.7,397,216,384,216
	c-22.1,0-40-17.9-40-40c0-10.2,3.8-19.8,10.7-27.2c-1.8-4-2.7-8.4-2.7-12.8c0-17.6,14.4-32,32-32c2.9,0,5.8,0.4,8.6,1.2
	C395.8,86.4,412.3,72,432,72c16.2,0,30.5,9.8,36.7,24.3C484.1,98.6,496,112,496,128c0,3.7-0.7,7.3-1.9,10.8
	c6.4,8.4,9.9,18.5,9.9,29.2C504,194.5,482.5,216,456,216L456,216z M424.2,184c2.5,0,4.9,1.2,6.4,3.2c6.2,8.2,15.4,12.8,25.5,12.8
	c17.6,0,32-14.4,32-32c0-8.4-3.2-16.3-9.1-22.3c-2.5-2.6-3-6.5-1.2-9.6c1.5-2.6,2.3-5.3,2.3-8c0-8.8-7.2-16-16-16
	c0.1,0-0.3,0.1-0.8,0.1c-4.1,0.2-7.2-2.4-8.1-6C452.4,95.4,442.9,88,432,88c-13.2,0-24,10.8-24,24c0,1.6,0.2,3.3,0.6,5.2
	c0.8,3.5-0.8,7-3.9,8.7c-3.1,1.7-6.9,1.2-9.5-1.3c-3-3-7-4.6-11.2-4.6c-8.8,0-16,7.2-16,16c0,3.4,1.1,6.7,3.3,9.6
	c1.3,1.7,1.8,3.8,1.5,6s-1.4,4-3.1,5.3c-6.2,4.6-9.7,11.6-9.7,19.2c0,13.2,10.8,24,24,24c9.1,0,17.3-5.1,21.4-13.4
	c1.7-3.5,5.7-5.2,9.5-4.1c3.3,1,6.2,1.5,8.8,1.5C423.9,184,424,184,424.2,184L424.2,184z"/>
<path class="st0" d="M296,216c-23.2,0-40-18.3-40-43.5c0-9.6,3.1-18.6,8.7-26.1c-1.1-3.1-1.6-6.3-1.6-9.5c0-14.6,10.6-26.7,24.6-29
	c5.7-13,18.6-21.7,33.2-21.7c17.7,0,32.4,12.6,35.8,29.2c2.2-0.5,4.5-0.8,6.9-0.8c4.4,0,8.2,3.6,8.2,8s-3.3,8-7.8,8h-0.5
	c-3.4,0-6.7,1.4-9.3,3.9c-2.5,2.5-6.3,3-9.4,1.3c-3.1-1.7-4.7-5.2-4-8.6c0.3-1.5,0.6-3,0.6-4.6c0-11.2-9.2-20.4-20.5-20.4
	c-9.3,0-17.4,6.3-19.7,15.4c-1,4.1-5.2,6.7-9.3,5.9c-7.1,0.3-12.8,6.2-12.8,13.4c0,2.3,0.6,4.6,1.9,6.7c1.9,3.1,1.4,7.1-1.2,9.7
	c-5.1,5.1-7.8,11.9-7.8,19.2c0,13.3,7.5,27.5,24,27.5c9.6,0,20.8-4.9,25.5-11.1c1.5-2,3.9-3.2,6.4-3.2c2.9,0,5,1,7,1.9
	c3.6,1.6,9.5,4.4,25.1,4.4c4.4,0,8,3.6,8,8s-3.6,8-8,8c-16.6,0-25-2.9-29.9-4.9C321.7,210.8,308.5,216,296,216L296,216z"/>
<path class="st0" d="M272,272c-2.2,0-4.3-0.9-5.9-2.6l-62.2-68.2c-6.2-6.9-17.7-6.9-23.8,0l-62.2,68.2c-3,3.3-8.1,3.5-11.3,0.5
	c-3.3-3-3.5-8-0.5-11.3l62.2-68.2c6-6.7,14.7-10.6,23.8-10.6s17.7,3.9,23.8,10.6l62.1,68.1c3,3.3,2.7,8.3-0.5,11.3
	C275.9,271.3,273.9,272,272,272L272,272z"/>
<path class="st0" d="M8,272c-1.9,0-3.8-0.7-5.3-2c-3.3-2.9-3.7-8-0.7-11.3l94.2-107.4c6-6.9,14.7-11,23.9-11.1
	c9.3-0.1,17.9,3.8,24,10.6l35.8,39.8c3,3.3,2.7,8.3-0.6,11.3c-3.3,3-8.3,2.7-11.3-0.6l-35.8-39.8c-3-3.4-7.6-5.1-12-5.3
	c-4.6,0-8.9,2.1-11.9,5.6L14,269.3C12.4,271.1,10.2,272,8,272z"/>
<path class="st0" d="M104,208c-0.3,0-0.5,0-0.8,0c-2.4-0.2-4.5-1.5-5.9-3.5l-16-24c-2.5-3.7-1.5-8.6,2.2-11.1
	c3.7-2.4,8.6-1.5,11.1,2.2l10.6,15.9l9.1-9.1c2.4-2.5,6.2-3,9.2-1.5l9.7,4.8l10.7-16.1c2.4-3.7,7.4-4.7,11.1-2.2
	c3.7,2.4,4.7,7.4,2.2,11.1l-14.6,22c-2.2,3.4-6.6,4.5-10.2,2.7l-10.8-5.4l-11.9,11.9C108.2,207.1,106.1,208,104,208L104,208z"/>
<path class="st0" d="M176,240c-0.3,0-0.5,0-0.8,0c-2.4-0.2-4.5-1.5-5.9-3.5l-14.6-21.9c-2.5-3.7-1.5-8.6,2.2-11.1
	c3.7-2.5,8.6-1.5,11.1,2.2l9.2,13.8l9.1-9.1c2.4-2.5,6.2-3,9.2-1.5l9.7,4.8l7.7-11.5c2.5-3.7,7.4-4.7,11.1-2.2s4.7,7.4,2.2,11.1
	l-11.6,17.4c-2.2,3.3-6.6,4.5-10.2,2.7l-10.8-5.4l-11.9,11.9C180.2,239.2,178.1,240,176,240L176,240z"/>
<path class="st0" d="M184,128c-16.4,0-31.2-6-40-16h0c-13.2,0-24-10.8-24-24c0-10.7,7-19.8,16.7-22.9c3.2-14.3,16-25.1,31.3-25.1
	c5.9,0,11.6,1.7,16.6,4.7C191.3,36.8,201.3,32,212,32c17,0,31.2,11.6,34.9,27.8C257.3,65.3,264,76.1,264,88c0,17.6-14.4,32-32,32
	c-4.7,0-9.2-1-13.4-3C209.7,124,197.2,128,184,128z M147.6,95.5c2.7,0,5.2,1.3,6.7,3.6C159.4,107,171,112,184,112
	c11.2,0,21.9-4,27.7-10.3c2.8-3,7.4-3.5,10.7-1c2.8,2.2,6.2,3.3,9.6,3.3c8.8,0,16-7.2,16-16c0-6.8-4.4-12.8-10.8-15
	c-3-1-5.1-3.7-5.4-6.8c-1-10.3-9.5-18.1-19.8-18.1c-7.9,0-15.1,4.7-18.3,12c-1.1,2.5-3.5,4.3-6.2,4.7c-2.7,0.4-5.5-0.7-7.3-2.8
	c-3.1-3.7-7.6-5.9-12.2-5.9c-8.8,0-16,7.2-16,16c0,4.4-3.6,8-8,8s-8,3.6-8,8s3.6,8,8,8c0.5,0,1.1-0.1,1.8-0.2
	C146.4,95.6,147,95.5,147.6,95.5L147.6,95.5z"/>
<g>
	<path class="st0" d="M56,80c-13.2,0-24-10.8-24-24s10.8-24,24-24s24,10.8,24,24S69.2,80,56,80z M56,48c-4.4,0-8,3.6-8,8s3.6,8,8,8
		s8-3.6,8-8S60.4,48,56,48z"/>
	<path class="st0" d="M56,112c-4.4,0-8-3.6-8-8v-8c0-4.4,3.6-8,8-8s8,3.6,8,8v8C64,108.4,60.4,112,56,112z"/>
	<path class="st0" d="M56,24c-4.4,0-8-3.6-8-8V8c0-4.4,3.6-8,8-8s8,3.6,8,8v8C64,20.4,60.4,24,56,24z"/>
	<path class="st0" d="M16,64H8c-4.4,0-8-3.6-8-8s3.6-8,8-8h8c4.4,0,8,3.6,8,8S20.4,64,16,64z"/>
	<path class="st0" d="M104,64h-8c-4.4,0-8-3.6-8-8s3.6-8,8-8h8c4.4,0,8,3.6,8,8S108.4,64,104,64z"/>
	<path class="st0" d="M89.9,97.9c-2,0-4.1-0.8-5.7-2.3l-5.7-5.7c-3.1-3.1-3.1-8.2,0-11.3s8.2-3.1,11.3,0l5.7,5.7
		c3.1,3.1,3.1,8.2,0,11.3C94,97.2,92,97.9,89.9,97.9z"/>
	<path class="st0" d="M27.7,35.7c-2,0-4.1-0.8-5.7-2.3l-5.7-5.7c-3.1-3.1-3.1-8.2,0-11.3s8.2-3.1,11.3,0l5.7,5.7
		c3.1,3.1,3.1,8.2,0,11.3C31.8,34.9,29.8,35.7,27.7,35.7z"/>
	<path class="st0" d="M22.1,97.9c-2,0-4.1-0.8-5.7-2.3c-3.1-3.1-3.1-8.2,0-11.3l5.7-5.7c3.1-3.1,8.2-3.1,11.3,0s3.1,8.2,0,11.3
		l-5.7,5.7C26.2,97.2,24.1,97.9,22.1,97.9z"/>
	<path class="st0" d="M84.3,35.7c-2,0-4.1-0.8-5.7-2.3c-3.1-3.1-3.1-8.2,0-11.3l5.7-5.7c3.1-3.1,8.2-3.1,11.3,0s3.1,8.2,0,11.3
		l-5.7,5.7C88.4,34.9,86.3,35.7,84.3,35.7z"/>
</g>
<path class="st0" d="M504,272H8c-4.4,0-8-3.6-8-8s3.6-8,8-8h496c4.4,0,8,3.6,8,8S508.4,272,504,272z"/>
<path class="st0" d="M120,512c-1.3,0-2.7-0.3-3.9-1c-3.8-2.2-5.2-7.1-3-10.9l136-240c2.2-3.8,7-5.2,10.9-3c3.8,2.2,5.2,7.1,3,10.9
	l-136,240C125.5,510.5,122.8,512,120,512z"/>
<path class="st0" d="M352,512c-3.4,0-6.6-2.2-7.7-5.7l-72-240c-1.3-4.2,1.1-8.7,5.4-10c4.2-1.3,8.7,1.1,10,5.4l72,240
	c1.3,4.2-1.1,8.7-5.4,10C353.5,511.9,352.8,512,352,512z"/>
<path class="st0" d="M128,432H48c-4.4,0-8-3.6-8-8v-48c0-4.4,3.6-8,8-8h80c4.4,0,8,3.6,8,8v48C136,428.4,132.4,432,128,432z M56,416
	h64v-32H56V416z"/>
<path class="st0" d="M88,512c-4.4,0-8-3.6-8-8v-80c0-4.4,3.6-8,8-8s8,3.6,8,8v80C96,508.4,92.4,512,88,512z"/>
<path class="st0" d="M438.8,448h-16c-4.4,0-8-3.6-8-8v-16c0-26.5,21.5-48,48-48h16c4.4,0,8,3.6,8,8v16
	C486.8,426.5,465.3,448,438.8,448z M430.8,432h8c17.6,0,32-14.4,32-32v-8h-8c-17.6,0-32,14.4-32,32V432z"/>
<path class="st0" d="M422.8,488h-16c-26.5,0-48-21.5-48-48v-16c0-4.4,3.6-8,8-8h16c26.5,0,48,21.5,48,48v16
	C430.8,484.4,427.3,488,422.8,488z M374.8,432v8c0,17.6,14.4,32,32,32h8v-8c0-17.6-14.4-32-32-32H374.8z"/>
<path class="st0" d="M422.8,512c-4.4,0-8-3.6-8-8v-80c0-4.4,3.6-8,8-8s8,3.6,8,8v80C430.8,508.4,427.3,512,422.8,512z"/>
<path class="st0" d="M256,376c-0.4,0-0.9,0-1.3-0.1c-4.4-0.7-7.3-4.8-6.6-9.2l8-48c0.7-4.4,4.8-7.4,9.2-6.6c4.4,0.7,7.3,4.8,6.6,9.2
	l-8,48C263.2,373.2,259.8,376,256,376z"/>
<path class="st0" d="M240,480c-0.3,0-0.7,0-1-0.1c-4.4-0.5-7.5-4.5-6.9-8.9l8-64c0.5-4.4,4.5-7.5,8.9-6.9c4.4,0.5,7.5,4.5,6.9,8.9
	l-8,64C247.4,477,244,480,240,480z"/>
</svg>
