<svg xmlns="http://www.w3.org/2000/svg" viewBox="0 0 66 53.07"><defs><style>.cls-1{fill:#ff9500;}</style></defs><g id="Layer_2" data-name="Layer 2"><g id="Layer_1-2" data-name="Layer 1"><path d="M11.47,44.05a1,1,0,0,0-1,1v3.12a3.41,3.41,0,1,0,6.81,0V45.05a1,1,0,0,0-1-1Z"/><path class="cls-1" d="M35.61,52.07a1,1,0,0,0,1,1H65a1,1,0,0,0,1-1V39.18H35.61ZM59.36,47.4H61a1,1,0,0,1,0,2H59.36a1,1,0,0,1,0-2Zm-5.4,0h1.69a1,1,0,0,1,0,2H54a1,1,0,0,1,0-2Z"/><path d="M1,18.86a1,1,0,0,0,1-1V11.35H5.09V37.8a5.26,5.26,0,0,0,5.25,5.26H33.61V32.85a3,3,0,0,1,3-3H53.23V24.37a0,0,0,0,0,0,0h0v-13h3.11v6.51a1,1,0,0,0,2,0V10.35a1,1,0,0,0-1-1H53.23V5.26A5.26,5.26,0,0,0,48,0H10.34A5.26,5.26,0,0,0,5.09,5.26V9.35H1a1,1,0,0,0-1,1v7.51A1,1,0,0,0,1,18.86ZM13.88,39.18A3.17,3.17,0,1,1,17.05,36,3.17,3.17,0,0,1,13.88,39.18ZM51.23,5.26v18.1H30.17V6h7.77a1,1,0,0,0,1-1V2H48A3.25,3.25,0,0,1,51.23,5.26ZM7.09,10.36h0V5.26A3.26,3.26,0,0,1,10.34,2h9.05V5a1,1,0,0,0,1,1h7.78V23.36H7.09Z"/><path class="cls-1" d="M65,31.85H36.61a1,1,0,0,0-1,1V36.1H66V32.85A1,1,0,0,0,65,31.85Z"/></g></g></svg>