<?xml version="1.0" encoding="utf-8"?>
<!-- Generator: Adobe Illustrator 23.0.3, SVG Export Plug-In . SVG Version: 6.00 Build 0)  -->
<svg version="1.1" id="Layer_1" xmlns="http://www.w3.org/2000/svg" xmlns:xlink="http://www.w3.org/1999/xlink" x="0px" y="0px"
	 viewBox="0 0 7.6 15.1" style="enable-background:new 0 0 7.6 15.1;" xml:space="preserve">
<style type="text/css">
	.st0{fill:#FFFFFF;}
</style>
<g>
	<path id="Path_91" class="st0" d="M3.1,0.1C2.9,0,2.6,0,2.4,0.1c0,0,0,0-0.1,0.1c-3.2,4.4-3.2,10.3,0,14.7c0.2,0.2,0.5,0.3,0.7,0.1
		c0,0,0,0,0.1-0.1c0.2-0.2,0.2-0.5,0.1-0.7c-2.9-4-2.9-9.4,0-13.4C3.3,0.6,3.3,0.3,3.1,0.1L3.1,0.1z"/>
	<path id="Path_92" class="st0" d="M5.3,2.3c-0.2-0.2-0.5-0.2-0.7,0c0,0,0,0-0.1,0.1c-2,3.1-2,7.2,0,10.3C4.7,12.9,5,13,5.2,12.8
		c0,0,0.1,0,0.1-0.1c0.2-0.2,0.2-0.4,0.1-0.7C3.6,9.3,3.6,5.7,5.3,3C5.5,2.7,5.4,2.5,5.3,2.3z M7.5,4.5C7.3,4.3,7,4.3,6.8,4.5
		c0,0-0.1,0.1-0.1,0.1c-0.9,1.9-0.9,4,0,5.9c0.1,0.2,0.4,0.3,0.6,0.2c0,0,0.1-0.1,0.1-0.1l0,0c0.2-0.2,0.2-0.4,0.1-0.6
		c-0.7-1.5-0.7-3.3,0-4.8C7.7,4.9,7.6,4.7,7.5,4.5L7.5,4.5z"/>
</g>
</svg>
